<?xml version="1.0" encoding="utf-8"?>
<!-- Generator: Adobe Illustrator 22.1.0, SVG Export Plug-In . SVG Version: 6.00 Build 0)  -->
<svg version="1.1" id="Camada_1" xmlns="http://www.w3.org/2000/svg" xmlns:xlink="http://www.w3.org/1999/xlink" x="0px" y="0px"
	 viewBox="0 0 333 140" style="enable-background:new 0 0 333 140;" xml:space="preserve">
<style type="text/css">
	.st0{fill:url(#SVGID_1_);}
	.st1{fill:#FFFFFF;}
	.st2{fill:url(#SVGID_2_);}
	.st3{fill:#0C3C53;}
	.st4{fill:url(#SVGID_3_);}
</style>
<g>
	<linearGradient id="SVGID_1_" gradientUnits="userSpaceOnUse" x1="122.1792" y1="42.2592" x2="330.9464" y2="42.2592">
		<stop  offset="8.667234e-02" style="stop-color:#25586D"/>
		<stop  offset="0.5502" style="stop-color:#003E51;stop-opacity:0.9"/>
		<stop  offset="1" style="stop-color:#00586D"/>
	</linearGradient>
	<path class="st0" d="M296,7.3c-17.6,0-32.2,13-34.6,30l-92.5,0c0,0,0,0,0,0l0,0v10h92.5c2.4,16.9,17,30,34.6,30
		c19.3,0,35-15.7,35-35S315.3,7.3,296,7.3z"/>
	<g>
		<path class="st1" d="M307,21.8c-3.6,0-6.5,2.9-6.5,6.5c0,1,0.2,1.9,0.6,2.7l5.9,11.6L313,31c0.4-0.8,0.6-1.8,0.6-2.7
			C313.6,24.7,310.6,21.8,307,21.8z M307,32.2c-2.2,0-3.9-1.8-3.9-3.9s1.8-3.9,3.9-3.9c2.2,0,3.9,1.8,3.9,3.9S309.2,32.2,307,32.2z
			 M309,44.6l2.4,4.8l-6,3l-2-10.1l0.3-0.3l0,0l-1.2-2.5l-0.6,0.6l-7.8-5.2l-7.8,5.2l-5.2-5.2L273,50.5l10.5,5.2l10.5-5.2l10.5,5.2
			l10.5-5.2l-4.4-8.8L309,44.6z M282.6,52.4l-6-3l5.1-10.1l2.7,2.7l0.3,0.3L282.6,52.4z M292.7,48.3l-7.3,3.7l1.9-9.4l0.3-0.2
			l5.1-3.4V48.3z M295.3,48.3v-9.4l5.1,3.4l0.3,0.2l1.9,9.4L295.3,48.3z"/>
	</g>
	<linearGradient id="SVGID_2_" gradientUnits="userSpaceOnUse" x1="20.3387" y1="42.2592" x2="809.3384" y2="42.2592">
		<stop  offset="0" style="stop-color:#63BD58"/>
		<stop  offset="0.6873" style="stop-color:#61D258"/>
	</linearGradient>
	<path class="st2" d="M89.9,37.3C89.9,37.3,89.9,37.3,89.9,37.3L89.9,37.3C87.6,21.1,74.2,8.5,57.6,7.4c-0.8-0.1-1.5-0.1-2.3-0.1
		c-19.3,0-35,15.7-35,35c0,18.7,14.7,34,33.2,34.9c0.6,0,1.2,0,1.8,0c17.6,0,32.2-13,34.6-30h79v-10H89.9z"/>
	<g>
		<g>
			<g>
				<path class="st1" d="M43.9,28.3h3.4v2.4h-3.4v3.9h-2.6v-3.9h-3.4v-2.4h3.4v-3.7h2.6V28.3z"/>
			</g>
		</g>
		<g>
			<g id="nb1dj5_2_">
				<g>
					<path class="st1" d="M71.1,41.7c-0.4,0.5-0.8,1-1.2,1.5c-0.4,0.5-0.8,0.5-1.2,0.1c-3.5-3-7.1-5.9-10.6-8.8
						c-0.9-0.7-1.7-1.4-2.6-2.2c-1.2,1-2.4,2-3.5,2.9c-3.2,2.6-6.4,5.3-9.5,7.9c-0.7,0.6-0.9,0.6-1.5-0.1c-0.2-0.2-0.4-0.5-0.6-0.8
						c-0.6-0.8-0.6-0.9,0.2-1.6c4.4-3.7,8.9-7.4,13.3-11.1c1.2-1,2.3-1,3.5,0c1.4,1.2,2.9,2.4,4.5,3.8c0-1,0-1.7,0-2.5
						c0-2-0.2-1.9,1.9-1.9c0.7,0,1.4,0,2.1,0c0.8,0,0.9,0.1,0.9,0.9c0,2.3,0,4.5,0,6.8c0,0.6,0.2,1,0.6,1.3c1.1,0.9,2.2,1.8,3.3,2.8
						c0.2,0.2,0.4,0.4,0.6,0.6C71.1,41.5,71.1,41.6,71.1,41.7z"/>
					<path class="st1" d="M53,53.8c-1.8,0-3.4,0-5.1,0c-0.8,0-1.6,0-2.4,0c-0.7,0-1.2-0.4-1.2-1.2c0-3,0-6,0-9.1
						c0-0.2,0.1-0.5,0.3-0.6c3.6-3,7.2-6,10.9-9c1.9,1.6,3.8,3.1,5.6,4.6c1.7,1.4,3.4,2.8,5,4.2c0.3,0.2,0.5,0.6,0.5,1
						c0,2.8,0,5.7,0,8.5c0,1.2-0.4,1.5-1.5,1.5c-2.3,0-4.7,0-7.1,0c0-2.5,0-4.9,0-7.4c-1.7,0-3.3,0-4.9,0C53,48.8,53,51.3,53,53.8z"
						/>
				</g>
			</g>
		</g>
	</g>
	<g>
		<g>
			<path class="st3" d="M4.6,129H2.1v-12.8h2.6V129z"/>
			<path class="st3" d="M9.3,119.5l0.1,1.4c0.3-0.5,0.7-0.9,1.2-1.1s1-0.4,1.6-0.4c1,0,1.7,0.3,2.2,0.9s0.8,1.6,0.8,2.9v5.8h-2.6
				v-5.8c0-0.7-0.1-1.2-0.4-1.4s-0.6-0.4-1.1-0.4c-0.4,0-0.7,0.1-1,0.2s-0.5,0.3-0.7,0.6v6.9H6.9v-9.5H9.3z"/>
			<path class="st3" d="M21.1,127.3c0.4,0,0.8-0.1,1.1-0.4s0.4-0.6,0.4-1.1h2.3l0,0.1c0,1-0.3,1.8-1.1,2.4c-0.7,0.6-1.7,1-2.7,1
				c-1.4,0-2.5-0.4-3.3-1.3s-1.2-2-1.2-3.5v-0.3c0-1.4,0.4-2.5,1.1-3.5c0.8-0.9,1.8-1.4,3.2-1.4c1.2,0,2.1,0.3,2.8,1s1.1,1.5,1,2.6
				l0,0.1h-2.3c0-0.5-0.1-0.9-0.4-1.2c-0.3-0.3-0.6-0.5-1.1-0.5c-0.7,0-1.1,0.3-1.4,0.8s-0.4,1.2-0.4,2v0.3c0,0.8,0.1,1.5,0.4,2
				S20.4,127.3,21.1,127.3z"/>
			<path class="st3" d="M29.1,129h-2.6v-13.7h2.6V129z"/>
			<path class="st3" d="M37,127.6c-0.3,0.5-0.7,0.9-1.1,1.2s-1,0.4-1.6,0.4c-1,0-1.8-0.3-2.4-1s-0.8-1.7-0.8-3.2v-5.5h2.6v5.5
				c0,0.8,0.1,1.4,0.3,1.7c0.2,0.3,0.6,0.5,1.1,0.5c0.4,0,0.8-0.1,1.1-0.2c0.3-0.1,0.5-0.3,0.7-0.6v-6.9h2.6v9.5h-2.1L37,127.6z"/>
			<path class="st3" d="M44.1,117.3h-2.6v-1.9h2.6V117.3z M44.1,129h-2.6v-9.5h2.6V129z"/>
			<path class="st3" d="M51.2,121.7l-0.9,0c-0.4,0-0.7,0.1-0.9,0.2s-0.4,0.4-0.6,0.7v6.4h-2.6v-9.5h2.4l0.1,1.4
				c0.2-0.5,0.5-0.9,0.9-1.2s0.8-0.4,1.2-0.4c0.1,0,0.2,0,0.4,0s0.2,0,0.3,0.1L51.2,121.7z"/>
			<path class="st3" d="M59.9,129h-2.6v-12.8h2.6V129z"/>
			<path class="st3" d="M64.7,119.5l0.1,1.3c0.3-0.5,0.7-0.8,1.1-1.1c0.5-0.2,1-0.4,1.6-0.4c0.6,0,1.1,0.1,1.6,0.4s0.8,0.7,1,1.2
				c0.3-0.5,0.7-0.9,1.1-1.2s1-0.4,1.7-0.4c0.9,0,1.7,0.3,2.2,1s0.8,1.7,0.8,3v5.6h-2.6v-5.7c0-0.8-0.1-1.3-0.4-1.6s-0.6-0.4-1-0.4
				c-0.4,0-0.7,0.1-0.9,0.2c-0.3,0.2-0.5,0.4-0.6,0.7c0,0.1,0,0.2,0,0.3c0,0.1,0,0.2,0,0.2v6.2h-2.6v-5.7c0-0.7-0.1-1.3-0.4-1.6
				c-0.2-0.3-0.6-0.5-1.1-0.5c-0.3,0-0.6,0.1-0.9,0.2c-0.3,0.1-0.5,0.3-0.6,0.6v6.9h-2.6v-9.5H64.7z"/>
			<path class="st3" d="M77.5,124.2c0-1.4,0.4-2.6,1.2-3.5c0.8-0.9,1.9-1.4,3.3-1.4c1.4,0,2.5,0.5,3.3,1.4s1.2,2.1,1.2,3.5v0.2
				c0,1.4-0.4,2.6-1.2,3.5s-1.9,1.3-3.3,1.3c-1.4,0-2.5-0.4-3.3-1.3s-1.2-2.1-1.2-3.5V124.2z M80,124.4c0,0.9,0.2,1.6,0.5,2.1
				s0.8,0.8,1.5,0.8c0.7,0,1.1-0.3,1.5-0.8s0.5-1.2,0.5-2.1v-0.2c0-0.8-0.2-1.5-0.5-2.1s-0.8-0.8-1.5-0.8c-0.7,0-1.1,0.3-1.5,0.8
				c-0.3,0.5-0.5,1.2-0.5,2.1V124.4z M82.5,115.5h2.9l0,0.1l-2.4,2.3h-2.2L82.5,115.5z"/>
			<path class="st3" d="M91.3,125.5l0.2,0.9h0.1l0.2-0.9l1.6-6H96l-3.2,9.5h-2.5l-3.2-9.5h2.7L91.3,125.5z"/>
			<path class="st3" d="M101.1,129.2c-1.4,0-2.5-0.4-3.3-1.3c-0.8-0.9-1.2-2-1.2-3.4v-0.4c0-1.4,0.4-2.6,1.2-3.5s1.8-1.4,3.2-1.4
				c1.3,0,2.3,0.4,2.9,1.2c0.7,0.8,1,1.8,1,3.2v1.3h-5.7l0,0.1c0,0.7,0.2,1.2,0.6,1.6s0.9,0.6,1.6,0.6c0.6,0,1.1-0.1,1.5-0.2
				s0.8-0.3,1.2-0.5l0.7,1.6c-0.4,0.3-0.9,0.6-1.5,0.8S101.9,129.2,101.1,129.2z M100.9,121.3c-0.5,0-0.9,0.2-1.2,0.5
				s-0.4,0.8-0.5,1.4l0,0h3.1v-0.2c0-0.6-0.1-1-0.3-1.3S101.4,121.3,100.9,121.3z"/>
			<path class="st3" d="M109.1,129h-2.6v-13.7h2.6V129z"/>
		</g>
	</g>
	<g>
		<g>
			<path class="st3" d="M280.2,125.7L280.2,125.7l3.3-9.4h3.3V129h-2.6v-8.7l-0.1,0l-3.2,8.7h-1.7l-3.2-8.8l-0.1,0v8.8h-2.6v-12.8
				h3.4L280.2,125.7z"/>
			<path class="st3" d="M294.6,129c-0.1-0.2-0.2-0.4-0.2-0.7s-0.1-0.5-0.1-0.7c-0.3,0.5-0.6,0.8-1,1.2s-0.9,0.5-1.5,0.5
				c-1,0-1.8-0.3-2.3-0.8s-0.8-1.2-0.8-2.1c0-0.9,0.4-1.7,1.1-2.2c0.7-0.5,1.8-0.8,3.1-0.8h1.4v-0.8c0-0.5-0.1-0.8-0.4-1.1
				s-0.6-0.4-1.1-0.4c-0.4,0-0.7,0.1-1,0.3c-0.2,0.2-0.3,0.5-0.3,0.8H289l0-0.1c0-0.8,0.3-1.5,1.1-2.1s1.7-0.9,2.9-0.9
				c1.1,0,2.1,0.3,2.8,0.9s1.1,1.4,1.1,2.5v3.9c0,0.4,0,0.9,0.1,1.3s0.2,0.8,0.3,1.2H294.6z M292.3,127.3c0.4,0,0.8-0.1,1.2-0.3
				s0.6-0.5,0.7-0.8v-1.3h-1.4c-0.5,0-1,0.1-1.2,0.4s-0.4,0.6-0.4,1c0,0.3,0.1,0.6,0.3,0.8C291.6,127.2,291.9,127.3,292.3,127.3z"/>
			<path class="st3" d="M307.2,124.5c0,1.4-0.3,2.5-1,3.4s-1.6,1.3-2.7,1.3c-0.5,0-0.9-0.1-1.3-0.3c-0.4-0.2-0.7-0.5-1-0.8v4.6h-2.6
				v-13.2h2.3l0.1,1.1c0.3-0.4,0.6-0.7,1-1c0.4-0.2,0.9-0.3,1.4-0.3c1.2,0,2.1,0.5,2.7,1.4s1,2.1,1,3.6V124.5z M304.7,124.4
				c0-0.9-0.1-1.6-0.4-2.2s-0.8-0.8-1.4-0.8c-0.4,0-0.7,0.1-1,0.2s-0.5,0.4-0.6,0.7v4.2c0.2,0.3,0.4,0.5,0.6,0.6s0.6,0.2,1,0.2
				c0.6,0,1.1-0.2,1.4-0.7s0.4-1.1,0.4-2V124.4z"/>
			<path class="st3" d="M314.4,129c-0.1-0.2-0.2-0.4-0.2-0.7c-0.1-0.2-0.1-0.5-0.1-0.7c-0.3,0.5-0.6,0.8-1,1.2
				c-0.4,0.3-0.9,0.5-1.5,0.5c-1,0-1.8-0.3-2.3-0.8s-0.8-1.2-0.8-2.1c0-0.9,0.4-1.7,1.1-2.2c0.7-0.5,1.8-0.8,3.1-0.8h1.4v-0.8
				c0-0.5-0.1-0.8-0.4-1.1s-0.6-0.4-1.1-0.4c-0.4,0-0.7,0.1-1,0.3c-0.2,0.2-0.3,0.5-0.3,0.8h-2.5l0-0.1c0-0.8,0.3-1.5,1.1-2.1
				s1.7-0.9,2.9-0.9c1.1,0,2.1,0.3,2.8,0.9s1.1,1.4,1.1,2.5v3.9c0,0.4,0,0.9,0.1,1.3s0.2,0.8,0.3,1.2H314.4z M312.1,127.3
				c0.4,0,0.8-0.1,1.2-0.3s0.6-0.5,0.7-0.8v-1.3h-1.4c-0.5,0-1,0.1-1.2,0.4s-0.4,0.6-0.4,1c0,0.3,0.1,0.6,0.3,0.8
				C311.4,127.2,311.7,127.3,312.1,127.3z"/>
		</g>
	</g>
	<g>
		<linearGradient id="SVGID_3_" gradientUnits="userSpaceOnUse" x1="45.0988" y1="93.8038" x2="65.8043" y2="93.8038">
			<stop  offset="0" style="stop-color:#63BD58"/>
			<stop  offset="0.6873" style="stop-color:#61D258"/>
		</linearGradient>
		<path class="st4" d="M62.5,85.5c-3.4,3.3-6.8,6.7-10.2,10c-1.2-1.2-2.5-2.4-3.7-3.7c-1.2,1.2-2.3,2.3-3.5,3.5
			c2.4,2.3,4.8,4.7,7,6.9c4.5-4.5,9.1-9,13.7-13.4C64.7,87.6,63.6,86.5,62.5,85.5z"/>
	</g>
</g>
</svg>
