<?xml version="1.0" encoding="utf-8"?>
<!-- Generator: Adobe Illustrator 22.1.0, SVG Export Plug-In . SVG Version: 6.00 Build 0)  -->
<svg version="1.1" id="Camada_1" xmlns="http://www.w3.org/2000/svg" xmlns:xlink="http://www.w3.org/1999/xlink" x="0px" y="0px"
	 viewBox="0 0 333 140" style="enable-background:new 0 0 333 140;" xml:space="preserve">
<style type="text/css">
	.st0{fill:url(#SVGID_1_);}
	.st1{fill:#FFFFFF;}
	.st2{fill:#0C3C53;}
	.st3{fill:url(#SVGID_2_);}
	.st4{fill:url(#SVGID_3_);}
</style>
<g>
	
		<linearGradient id="SVGID_1_" gradientUnits="userSpaceOnUse" x1="20.3" y1="100.3" x2="331" y2="100.3" gradientTransform="matrix(1 0 0 -1 0 142.5)">
		<stop  offset="0" style="stop-color:#63BD58"/>
		<stop  offset="0.6873" style="stop-color:#61D258"/>
	</linearGradient>
	<path class="st0" d="M296,7.3c-17.6,0-32.2,13-34.6,30h-92.5h-79l0,0l0,0C87.5,21.1,74.1,8.5,57.6,7.4c-0.8-0.1-1.5-0.1-2.3-0.1
		c-19.3,0-35,15.7-35,35c0,18.7,14.7,34,33.2,34.9c0.6,0,1.2,0,1.8,0c17.6,0,32.2-13,34.6-30h79h15.9h76.6c2.4,16.9,17,30,34.6,30
		c19.3,0,35-15.7,35-35S315.3,7.3,296,7.3z"/>
	<g>
		<path class="st1" d="M307,21.8c-3.6,0-6.5,2.9-6.5,6.5c0,1,0.2,1.9,0.6,2.7l5.9,11.6l5.9-11.6c0.4-0.8,0.6-1.8,0.6-2.7
			C313.5,24.7,310.6,21.8,307,21.8z M307,32.3c-2.2,0-3.9-1.8-3.9-3.9s1.8-3.9,3.9-3.9c2.2,0,3.9,1.8,3.9,3.9S309.2,32.3,307,32.3z
			 M309,44.6l2.4,4.8l-6,3l-2-10.1l0.3-0.3l0,0l-1.2-2.5l-0.6,0.6l-7.8-5.2l-7.8,5.2l-5.2-5.2l-7.8,15.7l10.5,5.2l10.5-5.2l10.5,5.2
			l10.5-5.2l-4.4-8.8L309,44.6z M282.5,52.4l-6-3l5.1-10.1l2.7,2.7l0.3,0.3L282.5,52.4z M292.6,48.3l-7.3,3.7l1.9-9.4l0.3-0.2
			l5.1-3.4V48.3z M295.2,48.3v-9.4l5.1,3.4l0.3,0.2l1.9,9.4L295.2,48.3z"/>
	</g>
	<g>
		<g>
			<path class="st2" d="M4.6,129.1H2v-12.8h2.6V129.1z"/>
			<path class="st2" d="M9.3,119.6l0.1,1.4c0.3-0.5,0.7-0.9,1.2-1.1s1-0.4,1.6-0.4c1,0,1.7,0.3,2.2,0.9s0.8,1.6,0.8,2.9v5.8h-2.6
				v-5.8c0-0.7-0.1-1.2-0.4-1.4s-0.6-0.4-1.1-0.4c-0.4,0-0.7,0.1-1,0.2s-0.5,0.3-0.7,0.6v6.9H6.9v-9.5L9.3,119.6L9.3,119.6z"/>
			<path class="st2" d="M21.1,127.3c0.4,0,0.8-0.1,1.1-0.4s0.4-0.6,0.4-1.1h2.3v0.1c0,1-0.3,1.8-1.1,2.4c-0.7,0.6-1.7,1-2.7,1
				c-1.4,0-2.5-0.4-3.3-1.3c-0.8-0.9-1.2-2-1.2-3.5v-0.3c0-1.4,0.4-2.5,1.1-3.5c0.8-0.9,1.8-1.4,3.2-1.4c1.2,0,2.1,0.3,2.8,1
				s1.1,1.5,1,2.6v0.1h-2.3c0-0.5-0.1-0.9-0.4-1.2c-0.3-0.3-0.6-0.5-1.1-0.5c-0.7,0-1.1,0.3-1.4,0.8s-0.4,1.2-0.4,2v0.3
				c0,0.8,0.1,1.5,0.4,2S20.4,127.3,21.1,127.3z"/>
			<path class="st2" d="M29.1,129.1h-2.6v-13.7h2.6V129.1z"/>
			<path class="st2" d="M37,127.7c-0.3,0.5-0.7,0.9-1.1,1.2s-1,0.4-1.6,0.4c-1,0-1.8-0.3-2.4-1c-0.6-0.7-0.8-1.7-0.8-3.2v-5.5h2.6
				v5.5c0,0.8,0.1,1.4,0.3,1.7c0.2,0.3,0.6,0.5,1.1,0.5c0.4,0,0.8-0.1,1.1-0.2s0.5-0.3,0.7-0.6v-6.9h2.6v9.5h-2.1L37,127.7z"/>
			<path class="st2" d="M44,117.3h-2.6v-1.9H44V117.3z M44,129.1h-2.6v-9.5H44V129.1z"/>
			<path class="st2" d="M51.1,121.8h-0.9c-0.4,0-0.7,0.1-0.9,0.2s-0.4,0.4-0.6,0.7v6.4h-2.6v-9.5h2.4l0.1,1.4
				c0.2-0.5,0.5-0.9,0.9-1.2s0.8-0.4,1.2-0.4c0.1,0,0.2,0,0.4,0s0.2,0,0.3,0.1L51.1,121.8z"/>
			<path class="st2" d="M59.9,129.1h-2.6v-12.8h2.6V129.1z"/>
			<path class="st2" d="M64.6,119.6l0.1,1.3c0.3-0.5,0.7-0.8,1.1-1.1c0.5-0.2,1-0.4,1.6-0.4s1.1,0.1,1.6,0.4s0.8,0.7,1,1.2
				c0.3-0.5,0.7-0.9,1.1-1.2s1-0.4,1.7-0.4c0.9,0,1.7,0.3,2.2,1s0.8,1.7,0.8,3v5.6h-2.6v-5.7c0-0.8-0.1-1.3-0.4-1.6s-0.6-0.4-1-0.4
				s-0.7,0.1-0.9,0.2c-0.3,0.2-0.5,0.4-0.6,0.7c0,0.1,0,0.2,0,0.3c0,0.1,0,0.2,0,0.2v6.2h-2.6v-5.7c0-0.7-0.1-1.3-0.4-1.6
				c-0.2-0.3-0.6-0.5-1.1-0.5c-0.3,0-0.6,0.1-0.9,0.2s-0.5,0.3-0.6,0.6v6.9h-2.6v-9.5h2.5V119.6z"/>
			<path class="st2" d="M77.4,124.2c0-1.4,0.4-2.6,1.2-3.5c0.8-0.9,1.9-1.4,3.3-1.4s2.5,0.5,3.3,1.4s1.2,2.1,1.2,3.5v0.2
				c0,1.4-0.4,2.6-1.2,3.5c-0.8,0.9-1.9,1.3-3.3,1.3s-2.5-0.4-3.3-1.3c-0.8-0.9-1.2-2.1-1.2-3.5V124.2z M80,124.4
				c0,0.9,0.2,1.6,0.5,2.1s0.8,0.8,1.5,0.8s1.1-0.3,1.5-0.8s0.5-1.2,0.5-2.1v-0.2c0-0.8-0.2-1.5-0.5-2.1s-0.8-0.8-1.5-0.8
				s-1.1,0.3-1.5,0.8c-0.3,0.5-0.5,1.2-0.5,2.1V124.4z M82.4,115.5h2.9v0.1l-2.4,2.3h-2.2L82.4,115.5z"/>
			<path class="st2" d="M91.3,125.5l0.2,0.9h0.1l0.2-0.9l1.6-6h2.7l-3.2,9.5h-2.5l-3.2-9.5h2.7L91.3,125.5z"/>
			<path class="st2" d="M101.1,129.2c-1.4,0-2.5-0.4-3.3-1.3c-0.8-0.9-1.2-2-1.2-3.4v-0.4c0-1.4,0.4-2.6,1.2-3.5s1.8-1.4,3.2-1.4
				c1.3,0,2.3,0.4,2.9,1.2c0.7,0.8,1,1.8,1,3.2v1.3h-5.7v0.1c0,0.7,0.2,1.2,0.6,1.6s0.9,0.6,1.6,0.6c0.6,0,1.1-0.1,1.5-0.2
				s0.8-0.3,1.2-0.5l0.7,1.6c-0.4,0.3-0.9,0.6-1.5,0.8S101.8,129.2,101.1,129.2z M100.9,121.4c-0.5,0-0.9,0.2-1.2,0.5
				s-0.4,0.8-0.5,1.4l0,0h3.1v-0.2c0-0.6-0.1-1-0.3-1.3S101.4,121.4,100.9,121.4z"/>
			<path class="st2" d="M109,129.1h-2.6v-13.7h2.6V129.1z"/>
		</g>
	</g>
	<g>
		<g>
			<path class="st2" d="M280.1,125.7L280.1,125.7l3.3-9.4h3.3v12.8h-2.6v-8.7H284l-3.2,8.7h-1.7l-3.2-8.8h-0.1v8.8h-2.6v-12.8h3.4
				L280.1,125.7z"/>
			<path class="st2" d="M294.6,129.1c-0.1-0.2-0.2-0.4-0.2-0.7s-0.1-0.5-0.1-0.7c-0.3,0.5-0.6,0.8-1,1.2s-0.9,0.5-1.5,0.5
				c-1,0-1.8-0.3-2.3-0.8s-0.8-1.2-0.8-2.1s0.4-1.7,1.1-2.2s1.8-0.8,3.1-0.8h1.4v-0.8c0-0.5-0.1-0.8-0.4-1.1s-0.6-0.4-1.1-0.4
				c-0.4,0-0.7,0.1-1,0.3c-0.2,0.2-0.3,0.5-0.3,0.8H289v-0.1c0-0.8,0.3-1.5,1.1-2.1s1.7-0.9,2.9-0.9c1.1,0,2.1,0.3,2.8,0.9
				s1.1,1.4,1.1,2.5v3.9c0,0.4,0,0.9,0.1,1.3c0.1,0.4,0.2,0.8,0.3,1.2L294.6,129.1L294.6,129.1z M292.2,127.4c0.4,0,0.8-0.1,1.2-0.3
				s0.6-0.5,0.7-0.8v-1.4h-1.4c-0.5,0-1,0.1-1.2,0.4s-0.4,0.6-0.4,1c0,0.3,0.1,0.6,0.3,0.8C291.6,127.3,291.9,127.4,292.2,127.4z"/>
			<path class="st2" d="M307.2,124.6c0,1.4-0.3,2.5-1,3.4s-1.6,1.3-2.7,1.3c-0.5,0-0.9-0.1-1.3-0.3s-0.7-0.5-1-0.8v4.6h-2.6v-13.2
				h2.3l0.1,1.1c0.3-0.4,0.6-0.7,1-1c0.4-0.2,0.9-0.3,1.4-0.3c1.2,0,2.1,0.5,2.7,1.4s1,2.1,1,3.6v0.2H307.2z M304.6,124.4
				c0-0.9-0.1-1.6-0.4-2.2s-0.8-0.8-1.4-0.8c-0.4,0-0.7,0.1-1,0.2s-0.5,0.4-0.6,0.7v4.2c0.2,0.3,0.4,0.5,0.6,0.6s0.6,0.2,1,0.2
				c0.6,0,1.1-0.2,1.4-0.7s0.4-1.1,0.4-2V124.4z"/>
			<path class="st2" d="M314.4,129.1c-0.1-0.2-0.2-0.4-0.2-0.7s-0.1-0.5-0.1-0.7c-0.3,0.5-0.6,0.8-1,1.2s-0.9,0.5-1.5,0.5
				c-1,0-1.8-0.3-2.3-0.8s-0.8-1.2-0.8-2.1s0.4-1.7,1.1-2.2s1.8-0.8,3.1-0.8h1.4v-0.8c0-0.5-0.1-0.8-0.4-1.1s-0.6-0.4-1.1-0.4
				c-0.4,0-0.7,0.1-1,0.3c-0.2,0.2-0.3,0.5-0.3,0.8h-2.5v-0.1c0-0.8,0.3-1.5,1.1-2.1s1.7-0.9,2.9-0.9c1.1,0,2.1,0.3,2.8,0.9
				s1.1,1.4,1.1,2.5v3.9c0,0.4,0,0.9,0.1,1.3c0.1,0.4,0.2,0.8,0.3,1.2L314.4,129.1L314.4,129.1z M312.1,127.4c0.4,0,0.8-0.1,1.2-0.3
				s0.6-0.5,0.7-0.8v-1.4h-1.4c-0.5,0-1,0.1-1.2,0.4s-0.4,0.6-0.4,1c0,0.3,0.1,0.6,0.3,0.8C311.4,127.3,311.7,127.4,312.1,127.4z"/>
		</g>
	</g>
	<g>
		<g>
			<linearGradient id="SVGID_2_" gradientUnits="userSpaceOnUse" x1="45.0602" y1="93.7507" x2="65.7656" y2="93.7507">
				<stop  offset="0" style="stop-color:#63BD58"/>
				<stop  offset="0.6873" style="stop-color:#61D258"/>
			</linearGradient>
			<path class="st3" d="M62.4,85.4c-3.4,3.3-6.8,6.7-10.2,10c-1.2-1.2-2.5-2.4-3.7-3.7c-1.2,1.2-2.3,2.3-3.5,3.5
				c2.4,2.3,4.8,4.7,7,6.9c4.5-4.5,9.1-9,13.7-13.4C64.6,87.6,63.5,86.5,62.4,85.4z"/>
		</g>
	</g>
	<g>
		<g>
			<linearGradient id="SVGID_3_" gradientUnits="userSpaceOnUse" x1="284.8473" y1="93.7507" x2="305.5528" y2="93.7507">
				<stop  offset="0" style="stop-color:#63BD58"/>
				<stop  offset="0.6873" style="stop-color:#61D258"/>
			</linearGradient>
			<path class="st4" d="M302.2,85.4c-3.4,3.3-6.8,6.7-10.2,10c-1.2-1.2-2.5-2.4-3.7-3.7c-1.2,1.2-2.3,2.3-3.5,3.5
				c2.4,2.3,4.8,4.7,7,6.9c4.5-4.5,9.1-9,13.7-13.4C304.4,87.6,303.3,86.5,302.2,85.4z"/>
		</g>
	</g>
	<g>
		<g>
			<g>
				<path class="st1" d="M43.8,28.3h3.4v2.4h-3.4v3.9h-2.6v-3.9h-3.4v-2.4h3.4v-3.7h2.6V28.3z"/>
			</g>
		</g>
		<g>
			<g id="nb1dj5_2_">
				<g>
					<path class="st1" d="M71.1,41.7c-0.4,0.5-0.8,1-1.2,1.5c-0.4,0.5-0.8,0.5-1.2,0.1c-3.5-3-7.1-5.9-10.6-8.8
						c-0.9-0.7-1.7-1.4-2.6-2.2c-1.2,1-2.4,2-3.5,2.9c-3.2,2.6-6.4,5.3-9.5,7.9c-0.7,0.6-0.9,0.6-1.5-0.1c-0.2-0.2-0.4-0.5-0.6-0.8
						c-0.6-0.8-0.6-0.9,0.2-1.6c4.4-3.7,8.9-7.4,13.3-11.1c1.2-1,2.3-1,3.5,0c1.4,1.2,2.9,2.4,4.5,3.8c0-1,0-1.7,0-2.5
						c0-2-0.2-1.9,1.9-1.9c0.7,0,1.4,0,2.1,0c0.8,0,0.9,0.1,0.9,0.9c0,2.3,0,4.5,0,6.8c0,0.6,0.2,1,0.6,1.3c1.1,0.9,2.2,1.8,3.3,2.8
						c0.2,0.2,0.4,0.4,0.6,0.6C71.1,41.5,71.1,41.6,71.1,41.7z"/>
					<path class="st1" d="M53,53.8c-1.8,0-3.4,0-5.1,0c-0.8,0-1.6,0-2.4,0c-0.7,0-1.2-0.4-1.2-1.2c0-3,0-6,0-9.1
						c0-0.2,0.1-0.5,0.3-0.6c3.6-3,7.2-6,10.9-9c1.9,1.6,3.8,3.1,5.6,4.6c1.7,1.4,3.4,2.8,5,4.2c0.3,0.2,0.5,0.6,0.5,1
						c0,2.8,0,5.7,0,8.5c0,1.2-0.4,1.5-1.5,1.5c-2.3,0-4.7,0-7.1,0c0-2.5,0-4.9,0-7.4c-1.7,0-3.3,0-4.9,0C53,48.9,53,51.3,53,53.8z"
						/>
				</g>
			</g>
		</g>
	</g>
</g>
</svg>
