<?xml version="1.0" encoding="utf-8"?>
<!-- Generator: Adobe Illustrator 22.1.0, SVG Export Plug-In . SVG Version: 6.00 Build 0)  -->
<svg version="1.1" id="Capa_1" xmlns="http://www.w3.org/2000/svg" xmlns:xlink="http://www.w3.org/1999/xlink" x="0px" y="0px"
	 viewBox="0 0 56.2 56.2" style="enable-background:new 0 0 56.2 56.2;" xml:space="preserve">
<style type="text/css">
	.st0{fill:#606060;}
	.st1{fill:none;}
</style>
<g>
	<g>
		<path class="st0" d="M43.7,56.2H12.5C5.6,56.2,0,50.6,0,43.7V12.5C0,5.6,5.6,0,12.5,0h31.2c6.9,0,12.5,5.6,12.5,12.5v31.2
			C56.2,50.6,50.6,56.2,43.7,56.2z M12.5,1C6.2,1,1,6.2,1,12.5v31.2C1,50,6.2,55.2,12.5,55.2h31.2c6.3,0,11.5-5.2,11.5-11.5V12.5
			C55.2,6.2,50,1,43.7,1H12.5z"/>
		<path class="st0" d="M43.8,53.2H12.4C7.2,53.2,3,49,3,43.8V12.4C3,7.2,7.2,3,12.4,3h31.5c5.2,0,9.4,4.2,9.4,9.4v31.5
			C53.2,49,49,53.2,43.8,53.2z M12.4,3.7c-4.8,0-8.6,3.9-8.6,8.6v31.5c0,4.8,3.9,8.6,8.6,8.6h31.5c4.8,0,8.6-3.9,8.6-8.6V12.4
			c0-4.8-3.9-8.6-8.6-8.6L12.4,3.7L12.4,3.7z"/>
	</g>
	<path class="st0" d="M46.8,22.7c-0.1-1.1-0.3-1.3-1.4-1.3c-1.4,0-2.8,0-4.1,0c-0.9,0-1.3,0.3-1.3,1.3c0,6.2,0,12.3,0,18.5
		c0,0.7,0.3,1.1,1.1,1.1c1.4,0,2.7,0,4.1,0c1.5,0,1.5,0,1.7-1.5c0-0.1,0.1-0.2,0.1-0.4c0-5.7,0-11.3,0-17
		C46.9,23.2,46.8,22.9,46.8,22.7z"/>
	<path class="st0" d="M35.7,28.4c-1.5,0-3,0-4.5,0c-1,0-1.3,0.3-1.3,1.3c0,3.7,0,7.5,0,11.2c0,0.8,0.3,1.2,1,1.4c1.4,0,2.8,0,4.1,0
		c0.3,0,0.5-0.1,0.8-0.1c0.7-0.1,1-0.4,1-1.1c0-3.9,0-7.8,0-11.6C36.8,28.9,36.4,28.4,35.7,28.4z"/>
	<g>
		<circle class="st1" cx="33.2" cy="21.4" r="2.1"/>
		<circle class="st1" cx="43.4" cy="14.5" r="2.1"/>
		<path class="st1" d="M13,23L13,23L13,23L13,23z"/>
		<path class="st0" d="M43.4,11c-1.9,0-3.5,1.6-3.5,3.5c0,0.4,0.1,0.8,0.2,1.1l-4.6,3.2c-0.6-0.5-1.4-0.8-2.2-0.8
			c-1.2,0-2.2,0.6-2.9,1.5l-3.8-1.3c0-0.1,0-0.1,0-0.2c0-1.9-1.6-3.5-3.5-3.5s-3.5,1.6-3.5,3.5c0,0.4,0.1,0.8,0.2,1.2l-4.6,3.2
			c-0.6-0.5-1.4-0.8-2.2-0.8c-1.9,0-3.5,1.6-3.5,3.5s1.6,3.5,3.5,3.5s3.5-1.6,3.5-3.5c0-0.4-0.1-0.8-0.2-1.2l4.6-3.2
			c0.6,0.5,1.4,0.8,2.2,0.8c1.2,0,2.2-0.6,2.9-1.5l3.8,1.3c0,0.1,0,0.2,0,0.2c-0.1,1.8,1.5,3.4,3.4,3.4s3.5-1.6,3.5-3.5
			c0-0.4-0.1-0.8-0.2-1.1l4.6-3.2c0.6,0.5,1.4,0.9,2.3,0.9c1.9,0,3.5-1.6,3.5-3.5S45.3,11,43.4,11z M13,27.2c-1.2,0-2.1-1-2.1-2.1
			c0-1.2,1-2.1,2.1-2.1l0,0l0,0c0,0,0,0,0.1,0c1.1,0.1,2,1,2,2.1C15.1,26.3,14.1,27.2,13,27.2z M23.2,20c-1.2,0-2.1-1-2.1-2.1
			c0-1.2,1-2.1,2.1-2.1c1.2,0,2.1,1,2.1,2.1C25.3,19.1,24.3,20,23.2,20z M33.2,23.5c-1.2,0-2.1-1-2.1-2.1c0-1.2,1-2.1,2.1-2.1
			s2.1,1,2.1,2.1C35.3,22.6,34.4,23.5,33.2,23.5z M43.4,16.6c-1.2,0-2.1-1-2.1-2.1c0-1.2,1-2.1,2.1-2.1c1.2,0,2.1,1,2.1,2.1
			C45.5,15.7,44.6,16.6,43.4,16.6z"/>
	</g>
	<path class="st0" d="M46,42.3h-5c-0.6,0-1-0.4-1-1V22.4c0-0.6,0.4-1,1-1h5c0.6,0,1,0.4,1,1v18.9C47,41.9,46.6,42.3,46,42.3z"/>
	<path class="st0" d="M35.8,42.3h-5c-0.6,0-1-0.4-1-1V29.4c0-0.6,0.4-1,1-1h5c0.6,0,1,0.4,1,1v11.9C36.8,41.9,36.4,42.3,35.8,42.3z"
		/>
	<path class="st0" d="M25.7,42.3h-5c-0.6,0-1-0.4-1-1V25.9c0-0.6,0.4-1,1-1h5c0.6,0,1,0.4,1,1v15.4C26.7,41.9,26.3,42.3,25.7,42.3z"
		/>
	<path class="st0" d="M15.5,42.3h-5c-0.6,0-1-0.4-1-1v-8.4c0-0.6,0.4-1,1-1h5c0.6,0,1,0.4,1,1v8.4C16.5,41.9,16.1,42.3,15.5,42.3z"
		/>
</g>
</svg>
