<?xml version="1.0" encoding="UTF-8" standalone="no"?>
<!-- Created with Inkscape (http://www.inkscape.org/) -->

<svg
   xmlns:dc="http://purl.org/dc/elements/1.1/"
   xmlns:cc="http://creativecommons.org/ns#"
   xmlns:rdf="http://www.w3.org/1999/02/22-rdf-syntax-ns#"
   xmlns:svg="http://www.w3.org/2000/svg"
   xmlns="http://www.w3.org/2000/svg"
   xmlns:sodipodi="http://sodipodi.sourceforge.net/DTD/sodipodi-0.dtd"
   xmlns:inkscape="http://www.inkscape.org/namespaces/inkscape"
   width="161.15891mm"
   height="44.999981mm"
   viewBox="0 0 161.15891 44.999981"
   version="1.1"
   id="svg3797"
   inkscape:version="0.92.2 2405546, 2018-03-11"
   sodipodi:docname="logo.svg">
  <defs
     id="defs3791">
    <clipPath
       clipPathUnits="userSpaceOnUse"
       id="clipPath20">
      <path
         d="M 0,793.702 H 1417.322 V 0 H 0 Z"
         id="path18"
         inkscape:connector-curvature="0" />
    </clipPath>
  </defs>
  <sodipodi:namedview
     id="base"
     pagecolor="#ffffff"
     bordercolor="#666666"
     borderopacity="1.0"
     inkscape:pageopacity="0.0"
     inkscape:pageshadow="2"
     inkscape:zoom="1.4"
     inkscape:cx="263.94858"
     inkscape:cy="-1.5125198"
     inkscape:document-units="mm"
     inkscape:current-layer="layer1"
     showgrid="false"
     fit-margin-top="0"
     fit-margin-left="0"
     fit-margin-right="0"
     fit-margin-bottom="0"
     inkscape:window-width="1366"
     inkscape:window-height="703"
     inkscape:window-x="0"
     inkscape:window-y="0"
     inkscape:window-maximized="1" />
  <metadata
     id="metadata3794">
    <rdf:RDF>
      <cc:Work
         rdf:about="">
        <dc:format>image/svg+xml</dc:format>
        <dc:type
           rdf:resource="http://purl.org/dc/dcmitype/StillImage" />
        <dc:title></dc:title>
      </cc:Work>
    </rdf:RDF>
  </metadata>
  <g
     inkscape:label="Layer 1"
     inkscape:groupmode="layer"
     id="layer1"
     transform="translate(149.37112,11.249991)">
    <path
       inkscape:connector-curvature="0"
       id="path24"
       style="fill:#08374a;fill-opacity:1;fill-rule:nonzero;stroke:none;stroke-width:0.35277778"
       d="m -78.836344,13.438985 h -6.744405 l 3.372202,-9.0550998 z m -0.736953,-14.12980802 c -0.03034,-0.0786694 -0.106186,-0.13052778 -0.1905,-0.13052778 h -4.719814 c -0.08431,0 -0.160161,0.0518583 -0.1905,0.13052778 L -94.045299,23.382026 c -0.02469,0.06315 -0.01658,0.134056 0.02152,0.189795 0.03845,0.05574 0.1016,0.08925 0.168981,0.08925 h 4.312355 c 0.08537,0 0.162278,-0.05327 0.191911,-0.133703 l 2.191103,-5.910086 h 9.902119 l 2.22497,5.911144 c 0.02999,0.07973 0.106539,0.132645 0.191558,0.132645 h 4.447822 c 0.06738,0 0.130881,-0.03351 0.168981,-0.08925 0.0381,-0.05574 0.04621,-0.126647 0.02152,-0.189795 z" />
    <path
       inkscape:connector-curvature="0"
       id="path28"
       style="fill:#08374a;fill-opacity:1;fill-rule:nonzero;stroke:none;stroke-width:0.35277778"
       d="m -53.8764,6.9209573 c 0,-0.1132417 -0.09172,-0.2046111 -0.204611,-0.2046111 h -3.938764 c -0.113242,0 -0.204611,0.091369 -0.204611,0.2046111 v 9.7786467 c 0,2.188986 -1.218142,3.496028 -3.258608,3.496028 -2.818342,0 -3.122789,-2.492375 -3.122789,-3.564114 V 6.9209573 c 0,-0.1132417 -0.09137,-0.2046111 -0.204611,-0.2046111 h -3.938764 c -0.112889,0 -0.204611,0.091369 -0.204611,0.2046111 V 17.344482 c 0,3.998736 2.653241,6.791678 6.451953,6.791678 1.874661,0 3.563408,-0.717198 4.498269,-1.86937 0.02505,0.502003 0.07444,0.965906 0.122061,1.225903 0.01764,0.09737 0.102306,0.168275 0.201083,0.168275 h 3.769078 c 0.05821,0 0.113594,-0.02469 0.1524,-0.06809 0.03881,-0.04339 0.0575,-0.1016 0.05115,-0.159103 -0.04198,-0.37465 -0.168628,-1.514828 -0.168628,-2.999316 z" />
    <path
       inkscape:connector-curvature="0"
       id="path32"
       style="fill:#08374a;fill-opacity:1;fill-rule:nonzero;stroke:none;stroke-width:0.35277778"
       d="m -42.728728,20.195703 c -2.577747,0 -4.243211,-1.985433 -4.243211,-5.058128 0,-2.964391 1.718733,-4.956175 4.276725,-4.956175 2.515658,0 4.141258,1.932164 4.141258,4.922309 0,3.045883 -1.677458,5.091994 -4.174772,5.091994 m 8.387291,-21.3215356 c 0,-0.1132417 -0.09137,-0.2049639 -0.204611,-0.2049639 h -3.836811 c -0.112889,0 -0.204611,0.091722 -0.204611,0.2049639 V 8.153281 c -0.615597,-0.7849305 -1.957564,-1.8785416 -4.650669,-1.8785416 -4.607631,0 -8.081786,3.8103526 -8.081786,8.8628356 0,5.258153 3.351036,8.930922 8.149872,8.930922 2.245783,0 3.817055,-1.010708 4.671483,-2.107847 0.03387,0.606072 0.102659,1.261181 0.151695,1.532114 0.01799,0.09737 0.103011,0.168275 0.201789,0.168275 h 3.768724 c 0.05856,0 0.1143,-0.0254 0.153459,-0.06914 0.03881,-0.0441 0.0568,-0.102659 0.04939,-0.160867 -0.0067,-0.05539 -0.167923,-1.377244 -0.167923,-2.996494 z" />
    <path
       inkscape:connector-curvature="0"
       id="path36"
       style="fill:#08374a;fill-opacity:1;fill-rule:nonzero;stroke:none;stroke-width:0.35277778"
       d="m -23.116718,13.442972 -2.513189,-0.509058 c -0.938741,-0.188031 -1.498953,-0.760236 -1.498953,-1.531056 0,-0.951441 0.953912,-1.6968609 2.1717,-1.6968609 2.34315,0 2.776361,1.7628309 2.853267,2.3029329 0.0085,0.05856 0.04163,0.110773 0.09102,0.142875 0.04974,0.03246 0.110066,0.04128 0.167922,0.02505 l 3.327753,-0.950737 c 0.09984,-0.02858 0.16263,-0.127705 0.145697,-0.230716 -0.368653,-2.2087418 -2.314575,-4.7886056 -6.585656,-4.7886056 -3.463925,0 -6.282266,2.4832027 -6.282266,5.5354356 0,2.506839 1.722966,4.38397 4.608336,5.021439 l 2.447572,0.543631 c 0.808214,0.166158 1.77165,0.583847 1.77165,1.633008 0,0.84455 -0.702733,1.696861 -2.2733,1.696861 -2.153708,0 -3.047294,-1.417814 -3.157714,-2.632075 -0.0056,-0.06032 -0.03775,-0.115358 -0.08749,-0.149578 -0.05009,-0.03457 -0.113241,-0.04516 -0.171097,-0.02928 l -3.429353,0.950736 c -0.09666,0.02681 -0.159455,0.119944 -0.148872,0.21978 0.127706,1.169106 0.784225,2.411236 1.756833,3.322814 1.291873,1.210734 3.114675,1.850672 5.271206,1.850672 4.236155,0 6.452305,-2.767541 6.452305,-5.501569 0,-2.6416 -1.791052,-4.545894 -4.917369,-5.225697" />
    <path
       inkscape:connector-curvature="0"
       id="path40"
       style="fill:#08374a;fill-opacity:1;fill-rule:nonzero;stroke:none;stroke-width:0.35277778"
       d="m -5.3627889,16.088346 v 0.509411 c 0,3.366558 -2.1230166,4.073172 -3.9038388,4.073172 -1.5155333,0 -2.2059193,-1.002594 -2.2059193,-1.93428 0,-1.478845 1.275644,-1.912409 2.0327054,-2.03835 z M -1.082889,12.59126 c 0,-3.9976777 -2.7036888,-6.3845721 -7.2330026,-6.3845721 -4.5106164,0 -6.8756384,2.8934833 -7.1638584,5.5816501 -0.01129,0.103364 0.0568,0.198614 0.158397,0.221544 l 3.599039,0.814917 c 0.05609,0.01305 0.11677,7.05e-4 0.164747,-0.03351 0.04763,-0.03422 0.07796,-0.08714 0.08396,-0.145344 0.138641,-1.355725 1.049866,-2.8038782 3.1915801,-2.8038782 1.8552582,0 2.919236,0.8410222 2.919236,2.3075192 0,0.389467 -0.1192389,0.85337 -1.0488083,0.986367 l -4.2432108,0.644878 c -3.23462,0.467783 -5.165725,2.409472 -5.165725,5.193594 0,2.518833 2.035175,5.195711 5.807075,5.195711 2.661708,0 4.1670108,-1.284817 4.8986719,-2.193925 0.032808,0.926394 0.1308805,1.428044 0.1696861,1.544814 0.028222,0.08361 0.1065389,0.140053 0.1943805,0.140053 h 3.6667722 c 0.06103,0 0.11923886,-0.02752 0.15839719,-0.07479 0.0388056,-0.04763 0.0543278,-0.109714 0.0423333,-0.170039 -0.008114,-0.04092 -0.19967219,-1.026936 -0.19967219,-2.608439 z" />
    <path
       inkscape:connector-curvature="0"
       id="path44"
       style="fill:#08374a;fill-opacity:1;fill-rule:nonzero;stroke:none;stroke-width:0.35277778"
       d="m 11.712996,19.868642 c -0.04798,-0.03916 -0.110419,-0.05362 -0.170392,-0.04233 -0.130175,0.02611 -0.774347,0.131586 -1.317272,0.131586 -1.3677193,0 -1.9007665,-0.52317 -1.9007665,-1.866195 v -7.469011 h 3.2247415 c 0.113242,0 0.204964,-0.09137 0.204964,-0.204611 V 6.9209923 c 0,-0.1132417 -0.09172,-0.2046111 -0.204964,-0.2046111 H 8.3245655 V 1.8618063 c 0,-0.1132417 -0.091722,-0.2046111 -0.2046111,-0.2046111 H 4.555135 c -0.1132416,0 -0.2046111,0.091369 -0.2046111,0.2046111 v 2.4786166 c 0,1.5098889 -0.8537222,2.3759583 -2.3424444,2.3759583 H 1.159649 c -0.1128889,0 -0.2046111,0.091369 -0.2046111,0.2046111 v 3.4970857 c 0,0.113242 0.0917222,0.204611 0.2046111,0.204611 h 2.8507972 v 8.114242 c 0,3.162653 1.9780249,5.127625 5.1621971,5.127625 1.3751277,0 2.1508857,-0.244122 2.4913167,-0.38982 0.07514,-0.03245 0.123825,-0.106186 0.123825,-0.188383 v -3.259314 c 0,-0.06138 -0.02752,-0.119591 -0.07479,-0.158397" />
    <path
       inkscape:connector-curvature="0"
       id="path48"
       style="fill:#80cc28;fill-opacity:1;fill-rule:nonzero;stroke:none;stroke-width:0.35277778"
       d="m -104.3711,8.7072829 c -0.86289,-7.6087109 -5.54743,-14.075833 -12.09005,-17.4497996 l -8.53122,17.4497996 z" />
    <path
       inkscape:connector-curvature="0"
       id="path52"
       style="fill:#cce310;fill-opacity:1;fill-rule:nonzero;stroke:none;stroke-width:0.35277778"
       d="m -141.30027,28.474197 19.18229,-39.234885 c -1.51024,-0.318911 -3.07481,-0.489303 -4.67889,-0.489303 -12.44776,0 -22.57425,10.0933248 -22.57425,22.500166 0,6.906683 3.14078,13.093347 8.07085,17.224022" />
    <path
       inkscape:connector-curvature="0"
       id="path56"
       style="fill:#008940;fill-opacity:1;fill-rule:nonzero;stroke:none;stroke-width:0.35277778"
       d="m -127.90293,14.660126 -8.32379,17.025055 c 2.87196,1.321858 6.0646,2.064808 9.42975,2.064808 11.2843,0 20.66149,-8.295569 22.31496,-19.089863 z" />
  </g>
</svg>
