<?xml version="1.0" encoding="utf-8"?>
<!-- Generator: Adobe Illustrator 22.1.0, SVG Export Plug-In . SVG Version: 6.00 Build 0)  -->
<svg version="1.1" id="Capa_1" xmlns="http://www.w3.org/2000/svg" xmlns:xlink="http://www.w3.org/1999/xlink" x="0px" y="0px"
	 viewBox="0 0 18.7 17.3" style="enable-background:new 0 0 18.7 17.3;" xml:space="preserve">
<style type="text/css">
	.st0{clip-path:url(#SVGID_2_);}
	.st1{clip-path:url(#SVGID_4_);fill:#fad200;}
</style>
<g>
	<defs>
		<path id="SVGID_1_" d="M8.4,6.1c0-0.5,0.4-0.9,0.9-0.9c0.5,0,0.9,0.4,0.9,0.9v4.7c0,0.5-0.4,0.9-0.9,0.9c-0.5,0-0.9-0.4-0.9-0.9
			V6.1z M9.4,14.5c-0.5,0-0.9-0.4-0.9-0.9s0.4-0.9,0.9-0.9c0.5,0,0.9,0.4,0.9,0.9S9.9,14.5,9.4,14.5z M9.9,2.4
			c-0.4-0.7-0.8-0.6-1.1,0l-6.7,12c-0.3,0.6-0.2,1.1,0.6,1.1H16c0.6,0,1-0.3,0.6-1.1L9.9,2.4z M7.2,1.5L7.2,1.5c1.1-2,3.3-2,4.4,0
			l6.7,12c1.1,2,0,3.8-2.2,3.8H2.7c-2.3,0-3.4-1.9-2.2-3.8L7.2,1.5z"/>
	</defs>
	<use xlink:href="#SVGID_1_"  style="overflow:visible;fill-rule:evenodd;clip-rule:evenodd;fill:#606060;"/>
	<clipPath id="SVGID_2_">
		<use xlink:href="#SVGID_1_"  style="overflow:visible;"/>
	</clipPath>
	<g class="st0">
		<defs>
			<rect id="SVGID_3_" x="-195.5" y="-1496.4" width="1049.4" height="2049.3"/>
		</defs>
		<use xlink:href="#SVGID_3_"  style="overflow:visible;fill:#606060;"/>
		<clipPath id="SVGID_4_">
			<use xlink:href="#SVGID_3_"  style="overflow:visible;"/>
		</clipPath>
		<rect x="-3.6" y="-3.6" class="st1" width="26" height="24.6"/>
	</g>
</g>
</svg>
