<?xml version="1.0" encoding="utf-8"?>
<!-- Generator: Adobe Illustrator 22.1.0, SVG Export Plug-In . SVG Version: 6.00 Build 0)  -->
<svg version="1.1" id="Capa_1" xmlns="http://www.w3.org/2000/svg" xmlns:xlink="http://www.w3.org/1999/xlink" x="0px" y="0px"
	 viewBox="0 0 56.2 56.2" style="enable-background:new 0 0 56.2 56.2;" xml:space="preserve">
<style type="text/css">
	.st0{fill:#fff;}
</style>
<g>
	<g>
		<g>
			<path class="st0" d="M43.7,56.2H12.5C5.6,56.2,0,50.6,0,43.7V12.5C0,5.6,5.6,0,12.5,0h31.2c6.9,0,12.5,5.6,12.5,12.5v31.2
				C56.2,50.6,50.6,56.2,43.7,56.2z M12.5,1C6.2,1,1,6.2,1,12.5v31.2C1,50,6.2,55.2,12.5,55.2h31.2c6.3,0,11.5-5.2,11.5-11.5V12.5
				C55.2,6.2,50,1,43.7,1H12.5z"/>
			<path class="st0" d="M43.8,53.2H12.4C7.2,53.2,3,49,3,43.8V12.4C3,7.2,7.2,3,12.4,3h31.5c5.2,0,9.4,4.2,9.4,9.4v31.5
				C53.2,49,49,53.2,43.8,53.2z M12.4,3.7c-4.8,0-8.6,3.9-8.6,8.6v31.5c0,4.8,3.9,8.6,8.6,8.6h31.5c4.8,0,8.6-3.9,8.6-8.6V12.4
				c0-4.8-3.9-8.6-8.6-8.6H12.4z"/>
		</g>
		<g id="_x34_9T6Xy.tif_6_">
			<g>
				<path class="st0" d="M17.6,42.2c-1.2,0-2.2-0.3-3.1-1.1c-0.9-0.8-1.4-1.9-1.4-3.1c0-6,0-12.1,0-18.1c0-0.4,0.2-0.6,0.5-0.9
					c2.3-2.3,4.7-4.7,7-7c0.7-0.6,1.3-1.3,1.9-1.9c0.3-0.3,0.5-0.4,0.9-0.4c3.5,0,7.1,0.1,10.6,0c2.6,0,4.5,1.9,4.5,4.3
					c0,0,0,0.1,0,0.1c0.4,0.1,0.8,0.1,1.2,0.2c1.9,0.5,3.2,2.1,3.2,4c0,8.1,0,16.1,0,24.2c0,2.3-1.9,4.2-4.3,4.2
					c-5.6,0-11.2,0-16.8,0c-2.5,0-4.3-1.7-4.4-4.2C17.6,42.3,17.6,42.3,17.6,42.2z M24.4,11.7c0,0.2,0,0.3,0,0.4c0,1.4,0,2.9,0,4.3
					c0.1,2.5-1.9,4.5-4.5,4.4c-1.4,0-2.9,0-4.3,0c-0.3,0-0.4,0.1-0.4,0.4c0,5.5,0,11,0,16.5c0,1.4,0.9,2.3,2.3,2.3
					c5.6,0,11.2,0,16.8,0c1.4,0,2.3-0.9,2.3-2.3c0-7.9,0-15.9,0-23.8c0-0.2,0-0.4-0.1-0.6c-0.2-1.1-1.1-1.7-2.3-1.7
					c-3.2,0-6.3,0-9.5,0C24.7,11.6,24.6,11.6,24.4,11.7z M19.7,42.1c-0.1,0.7,0.2,1.3,0.7,1.8c0.5,0.5,1.1,0.6,1.7,0.6
					c5.5,0,11.1,0,16.6,0c0.1,0,0.3,0,0.4,0c1-0.1,1.8-0.8,1.9-1.8c0-0.3,0-0.6,0-0.9c0-7.8,0-15.5,0-23.3c0-0.1,0-0.3,0-0.4
					c-0.1-1.2-1.2-2.2-2.4-2c0,0.2,0,0.3,0,0.5c0,7,0,14,0,21c0,0.3,0,0.7-0.1,1c-0.4,2.1-2.1,3.5-4.3,3.5c-4.7,0-9.4,0-14.1,0
					C20,42.1,19.9,42.1,19.7,42.1z M16.8,18.7C16.8,18.7,16.8,18.7,16.8,18.7c1.1,0,2.2,0,3.3,0c1.3,0,2.3-1,2.3-2.3c0-1,0-2,0-3
					c0-0.1,0-0.2,0-0.3C20.5,15,18.6,16.9,16.8,18.7z"/>
				<path class="st0" d="M25.9,24.1c2.1,0,4.1,0,6.2,0c0.6,0,1.1,0.4,1.1,0.9c0,0.6-0.3,1-0.8,1.1c-0.1,0-0.3,0-0.4,0
					c-4,0-8.1,0-12.1,0c-0.1,0-0.2,0-0.3,0c-0.6-0.1-1-0.5-0.9-1c0-0.5,0.4-1,1-1c0.8,0,1.5,0,2.3,0C23.2,24.1,24.5,24.1,25.9,24.1z
					"/>
				<path class="st0" d="M25.9,31.5c-2,0-4,0-6,0c-0.1,0-0.3,0-0.4,0c-0.6-0.1-0.9-0.5-0.9-1.1c0-0.5,0.4-1,1-1c0.2,0,0.3,0,0.5,0
					c4,0,8,0,12,0c0.7,0,1.1,0.4,1.1,0.9c0,0.6-0.3,1-0.8,1.1c-0.1,0-0.3,0-0.4,0C29.9,31.5,27.9,31.5,25.9,31.5z"/>
				<path class="st0" d="M25.9,34.8c2.1,0,4.1,0,6.2,0c0.7,0,1.1,0.5,1.1,1.1c0,0.4-0.3,0.8-0.8,0.9c-0.2,0-0.4,0-0.6,0
					c-4,0-8,0-12,0c-0.1,0-0.2,0-0.3,0c-0.6-0.1-1-0.5-1-1c0-0.6,0.4-1,1-1c0.3,0,0.5,0,0.8,0C22.2,34.8,24.1,34.8,25.9,34.8z"/>
				<path class="st0" d="M29.7,18.8c0.8,0,1.6,0,2.4,0c0.7,0,1.1,0.4,1.1,1c0,0.6-0.4,1-1.1,1c-1.6,0-3.2,0-4.7,0
					c-0.7,0-1.1-0.4-1.1-1c0-0.6,0.4-1,1.1-1C28.1,18.8,28.9,18.8,29.7,18.8z"/>
			</g>
		</g>
	</g>
</g>
</svg>
