<?xml version="1.0" encoding="utf-8"?>
<!-- Generator: Adobe Illustrator 22.1.0, SVG Export Plug-In . SVG Version: 6.00 Build 0)  -->
<svg version="1.1" id="Capa_1" xmlns="http://www.w3.org/2000/svg" xmlns:xlink="http://www.w3.org/1999/xlink" x="0px" y="0px"
	 viewBox="0 0 26 26" style="enable-background:new 0 0 26 26;" xml:space="preserve">
<style type="text/css">
	.st0{fill:#606060;}
</style>
<g>
	<g id="QAiHlU.tif_1_">
		<g>
			<path class="st0" d="M6.5,19.4c0-0.2,0.1-0.3,0.1-0.5c0.3-1.1,0.6-2.1,0.9-3.2c0,0,0,0,0,0c0.9,0.9,1.8,1.8,2.7,2.7
				c-0.1,0-0.3,0.1-0.4,0.1C8.8,18.9,7.7,19.1,6.5,19.4C6.6,19.4,6.6,19.4,6.5,19.4C6.5,19.4,6.5,19.4,6.5,19.4z"/>
			<path class="st0" d="M15,8.2c0.9,0.9,1.8,1.8,2.7,2.7c-2.3,2.3-4.5,4.5-6.8,6.8C10,16.8,9.1,15.9,8.2,15
				C10.5,12.8,12.8,10.5,15,8.2z"/>
			<path class="st0" d="M18.5,10.3c-0.9-0.9-1.8-1.8-2.7-2.7c0,0,0,0,0,0C16,7.3,16.2,7,16.4,6.8c0.4-0.3,0.9-0.3,1.3,0
				c0.3,0.3,0.6,0.6,0.9,0.9c0.1,0.1,0.3,0.3,0.4,0.4c0.4,0.4,0.4,1,0,1.4C18.9,9.8,18.7,10,18.5,10.3
				C18.5,10.2,18.5,10.3,18.5,10.3z"/>
		</g>
	</g>
	<path class="st0" d="M13,26C5.8,26,0,20.2,0,13C0,5.8,5.8,0,13,0c7.2,0,13,5.8,13,13C26,20.2,20.2,26,13,26z M13,1
		C6.4,1,1,6.4,1,13s5.4,12,12,12s12-5.4,12-12S19.6,1,13,1z"/>
</g>
</svg>
