<?xml version="1.0" encoding="utf-8"?>
<!-- Generator: Adobe Illustrator 22.1.0, SVG Export Plug-In . SVG Version: 6.00 Build 0)  -->
<svg version="1.1" id="Capa_1" xmlns="http://www.w3.org/2000/svg" xmlns:xlink="http://www.w3.org/1999/xlink" x="0px" y="0px"
	 viewBox="0 0 24.9 25" style="enable-background:new 0 0 24.9 25;" xml:space="preserve">
<style type="text/css">
	.st0{fill:#fff;}
</style>
<g>
	<path class="st0" d="M12.4,0C5.5,0-0.2,5.6-0.2,12.5S5.5,25,12.4,25c6.9,0,12.5-5.6,12.5-12.5S19.2,0,12.4,0L12.4,0z M12.4,24.2
		c-6.4,0-11.7-5.2-11.7-11.7S5.9,0.8,12.4,0.8C18.8,0.8,24,6.1,24,12.5S18.8,24.2,12.4,24.2L12.4,24.2z M12.4,24.2"/>
	<path class="st0" d="M16.7,8.1c-0.3-0.3-0.9-0.3-1.2,0l-3.2,3.2L9.2,8.1C8.9,7.8,8.3,7.8,8,8.1C7.6,8.5,7.6,9,8,9.4l3.2,3.2L8,15.7
		c-0.3,0.3-0.3,0.9,0,1.2c0.2,0.2,0.4,0.3,0.6,0.3c0.2,0,0.5-0.1,0.6-0.3l3.2-3.2l3.2,3.2c0.2,0.2,0.4,0.3,0.6,0.3
		c0.2,0,0.5-0.1,0.6-0.3c0.3-0.3,0.3-0.9,0-1.2l-3.2-3.2l3.2-3.2C17.1,9,17.1,8.5,16.7,8.1L16.7,8.1z M16.7,8.1"/>
</g>
</svg>
