<?xml version="1.0" encoding="utf-8"?>
<!-- Generator: Adobe Illustrator 22.1.0, SVG Export Plug-In . SVG Version: 6.00 Build 0)  -->
<svg version="1.1" id="Capa_1" xmlns="http://www.w3.org/2000/svg" xmlns:xlink="http://www.w3.org/1999/xlink" x="0px" y="0px"
	 viewBox="0 0 42.8 42.8" style="enable-background:new 0 0 42.8 42.8;" xml:space="preserve">
<style type="text/css">
	.st0{fill:#fff;}
</style>
<g id="LvAslV.tif">
	<g>
		<path class="st0" d="M1.9,21.4c2.3-1.9,4.6-3.9,6.9-5.8c3.5-2.9,7-5.8,10.5-8.8c1.4-1.2,3.2-1.2,4.5,0c1.6,1.4,3.2,2.7,4.8,4.1
			c0.2,0.2,0.4,0.3,0.7,0.5c0-0.3,0.1-0.6,0.1-0.8c0-1.3,0-2.5,0-3.8c0-0.7,0.2-0.9,0.9-0.9c1.4,0,2.7,0,4.1,0c0.8,0,1,0.2,1,1
			c0,3,0,6,0,9c0,0.5,0.2,0.8,0.5,1.1c1.5,1.2,3,2.5,4.5,3.7c0.8,0.6,0.8,0.8,0.2,1.5c-0.4,0.4-0.7,0.9-1.1,1.3
			c-0.5,0.6-0.8,0.6-1.4,0.1c-3.4-2.8-6.7-5.6-10.1-8.5c-2-1.7-4.1-3.4-6.1-5.1c-0.4-0.3-0.6-0.2-0.9,0c-5.3,4.5-10.7,9-16,13.4
			c-0.7,0.6-1,0.6-1.6-0.1c-0.5-0.6-1-1.2-1.5-1.7C1.9,21.6,1.9,21.5,1.9,21.4z"/>
		<path class="st0" d="M21.4,36.9c-4,0-8,0-12,0c-1.4,0-1.9-0.5-1.9-1.9c0-3.5,0-7.1,0-10.6c0-0.5,0.1-0.8,0.5-1.1
			c4.3-3.6,8.7-7.2,13-10.8c0.3-0.3,0.6-0.3,0.9,0c4.3,3.6,8.7,7.2,13,10.8c0.3,0.3,0.4,0.5,0.4,0.9c0,3.6,0,7.2,0,10.9
			c0,1.3-0.5,1.8-1.8,1.8C29.5,36.9,25.5,36.9,21.4,36.9z M13.5,26.9c-0.2,4.4,3.7,8.1,7.9,8.2c4.6,0.1,8.1-3.7,8.3-7.6
			c0.3-5.1-4-8.6-7.9-8.7C17.2,18.7,13.3,22.7,13.5,26.9z"/>
		<path class="st0" d="M22.8,30.1c-0.3,1-1.5,2.1-2.4,2.1c-0.8,0-1.2-0.5-1-1.3c0.4-1.5,0.9-3,1.4-4.6c0.1-0.2,0.1-0.4,0.1-0.6
			c0-0.1,0-0.4-0.1-0.4c-0.1-0.1-0.4,0-0.5,0.1c-0.3,0.3-0.6,0.7-1,1c0.5-1,1.3-1.7,2.4-2c0.7-0.1,1.2,0.5,1,1.2
			c-0.3,1.1-0.7,2.2-1,3.4c-0.2,0.6-0.3,1.1-0.5,1.7c0,0.2,0.1,0.4,0.1,0.6c0.2-0.1,0.4-0.1,0.6-0.2C22.2,30.8,22.5,30.5,22.8,30.1z
			"/>
		<path class="st0" d="M22.7,23.4c-0.6,0-1-0.4-1-1c0-0.5,0.4-1,1-1c0.5,0,1,0.4,1,1C23.7,23,23.3,23.4,22.7,23.4z"/>
	</g>
</g>
</svg>
