<?xml version="1.0" encoding="utf-8"?>
<!-- Generator: Adobe Illustrator 22.1.0, SVG Export Plug-In . SVG Version: 6.00 Build 0)  -->
<svg version="1.1" id="Capa_1" xmlns="http://www.w3.org/2000/svg" xmlns:xlink="http://www.w3.org/1999/xlink" x="0px" y="0px"
	 viewBox="0 0 56.2 56.2" style="enable-background:new 0 0 56.2 56.2;" xml:space="preserve">
<style type="text/css">
	.st0{fill:#fff;}
</style>
<g>
	<g id="nb1dj5_37_">
		<g>
			<path class="st0" d="M47.1,28.1c-0.5,0.6-1,1.3-1.6,1.9c-0.5,0.6-1,0.6-1.6,0.1c-4.5-3.7-8.9-7.5-13.4-11.2
				c-1.1-0.9-2.2-1.8-3.3-2.7c-1.5,1.3-3,2.5-4.5,3.7c-4,3.3-8,6.7-12,10c-0.9,0.7-1.1,0.7-1.9-0.1c-0.3-0.3-0.5-0.6-0.8-1
				c-0.8-1-0.8-1.2,0.2-2c5.6-4.7,11.2-9.3,16.8-14c1.5-1.2,2.9-1.2,4.4,0c1.8,1.5,3.6,3,5.7,4.7c0-1.2,0-2.2,0-3.1
				c0-2.6-0.2-2.4,2.4-2.4c0.9,0,1.8,0,2.6,0c1,0,1.2,0.2,1.2,1.2c0,2.8,0,5.7,0,8.5c0,0.8,0.2,1.2,0.8,1.7c1.4,1.1,2.8,2.3,4.2,3.5
				c0.3,0.2,0.5,0.5,0.7,0.7C47.1,27.9,47.1,28,47.1,28.1z"/>
			<path class="st0" d="M24.2,44.8c-2.2,0-4.3,0-6.4,0c-1,0-2.1,0-3.1,0c-0.9,0-1.5-0.5-1.5-1.5c0-3.8,0-7.6,0-11.5
				c0-0.3,0.1-0.6,0.3-0.8c4.6-3.8,9.1-7.6,13.8-11.3c2.4,2,4.7,3.9,7.1,5.8c2.1,1.8,4.3,3.5,6.4,5.3c0.3,0.3,0.6,0.8,0.6,1.2
				c0,3.6,0,7.2,0,10.7c0,1.5-0.5,1.9-2,1.9c-3,0-5.9,0-9,0c0-3.1,0-6.2,0-9.3c-2.1,0-4.1,0-6.2,0C24.2,38.5,24.2,41.6,24.2,44.8z"
				/>
		</g>
	</g>
	<path class="st0" d="M43.7,56.2H12.5C5.6,56.2,0,50.6,0,43.7V12.5C0,5.6,5.6,0,12.5,0h31.2c6.9,0,12.5,5.6,12.5,12.5v31.2
		C56.2,50.6,50.6,56.2,43.7,56.2z M12.5,1C6.2,1,1,6.2,1,12.5v31.2C1,50,6.2,55.2,12.5,55.2h31.2c6.3,0,11.5-5.2,11.5-11.5V12.5
		C55.2,6.2,50,1,43.7,1H12.5z"/>
	<path class="st0" d="M43.8,53.2H12.4C7.2,53.2,3,49,3,43.8V12.4C3,7.2,7.2,3,12.4,3h31.5c5.2,0,9.4,4.2,9.4,9.4v31.5
		C53.2,49,49,53.2,43.8,53.2z M12.4,3.7c-4.8,0-8.6,3.9-8.6,8.6v31.5c0,4.8,3.9,8.6,8.6,8.6h31.5c4.8,0,8.6-3.9,8.6-8.6V12.4
		c0-4.8-3.9-8.6-8.6-8.6H12.4z"/>
</g>
</svg>
