<?xml version="1.0" encoding="utf-8"?>
<!-- Generator: Adobe Illustrator 22.1.0, SVG Export Plug-In . SVG Version: 6.00 Build 0)  -->
<svg version="1.1" id="Capa_1" xmlns="http://www.w3.org/2000/svg" xmlns:xlink="http://www.w3.org/1999/xlink" x="0px" y="0px"
	 viewBox="0 0 22.4 35.4" style="enable-background:new 0 0 22.4 35.4;" xml:space="preserve">
<style type="text/css">
	.st0{fill:#606060;}
</style>
<g id="TDzQif.tif_1_">
	<g>
		<g>
			<path class="st0" d="M11.9-0.2C12.3-0.1,12.6-0.1,13,0c2.3,0.4,4.3,1.5,6,3.1c1.7,1.6,2.8,3.6,3.2,5.9c0.4,2.3,0.3,4.5-0.5,6.7
				c-0.5,1.6-1.2,3.1-2,4.5c-2.8,5.1-5.6,10.1-8.4,15.2c0,0,0,0.1-0.1,0.1c0-0.1-0.1-0.1-0.1-0.1c-2.8-5-5.6-10.1-8.4-15.1
				c-1-1.8-1.8-3.7-2.3-5.6C0,13.3,0,12,0,10.6c0.2-5,4-9.5,9-10.6C9.4,0,9.9-0.1,10.3-0.1c0.1,0,0.1,0,0.2,0
				C11-0.2,11.4-0.2,11.9-0.2z M16,11.2c0-2.7-2.1-4.9-4.8-4.9c-2.6,0-4.8,2.2-4.8,4.9c0,2.7,2.1,4.9,4.8,4.9
				C13.9,16.1,16,13.9,16,11.2z"/>
		</g>
	</g>
</g>
</svg>
