<?xml version="1.0" encoding="utf-8"?>
<!-- Generator: Adobe Illustrator 22.1.0, SVG Export Plug-In . SVG Version: 6.00 Build 0)  -->
<svg version="1.1" id="Capa_1" xmlns="http://www.w3.org/2000/svg" xmlns:xlink="http://www.w3.org/1999/xlink" x="0px" y="0px"
	 viewBox="0 0 56.2 56.2" style="enable-background:new 0 0 56.2 56.2;" xml:space="preserve">
<style type="text/css">
	.st0{fill:#fff;}
</style>
<g>
	<path class="st0" d="M43.7,56.2H12.5C5.6,56.2,0,50.6,0,43.7V12.5C0,5.6,5.6,0,12.5,0h31.2c6.9,0,12.5,5.6,12.5,12.5v31.2
		C56.2,50.6,50.6,56.2,43.7,56.2z M12.5,1C6.2,1,1,6.2,1,12.5v31.2C1,50,6.2,55.2,12.5,55.2h31.2c6.3,0,11.5-5.2,11.5-11.5V12.5
		C55.2,6.2,50,1,43.7,1H12.5z"/>
	<path class="st0" d="M43.8,53.2H12.4C7.2,53.2,3,49,3,43.8V12.4C3,7.2,7.2,3,12.4,3h31.5c5.2,0,9.4,4.2,9.4,9.4v31.5
		C53.2,49,49,53.2,43.8,53.2z M12.4,3.7c-4.8,0-8.6,3.9-8.6,8.6v31.5c0,4.8,3.9,8.6,8.6,8.6h31.5c4.8,0,8.6-3.9,8.6-8.6V12.4
		c0-4.8-3.9-8.6-8.6-8.6H12.4z"/>
	<g id="UKOZUL_4_">
		<g>
			<path class="st0" d="M45.4,17.8c-1.4,4.3-2.8,8.6-4.3,12.9c-0.9,2.6-1.9,5.2-3.1,7.7c-0.7,1.4-1.6,2.7-2.7,3.8
				c-1.9,2.2-6,3.5-9.3,1.9c-3.8-1.8-7.6-3.4-11.4-5.1c-2.8-1.2-4-3.4-3.9-6.4c0-0.7,0.1-1.4,0.2-2.1c0.8,0.3,1.4,0.5,2.1,0.8
				c4.2,1.7,8.4,3.4,12.6,5.1c0.5,0.2,0.7,0.5,0.7,1c0.1,0.8,0.2,1.6,0.4,2.4c0.5,1.8,2.1,2.6,3.9,2.2c2.1-0.5,3.5-1.8,4.4-3.6
				c1.1-2.2,2.2-4.6,3-6.9c1.5-4,2.8-8.1,4.1-12.1c0.1-0.2,0.1-0.3,0.2-0.6c-0.6-0.1-1.3-0.3-1.9-0.4c-4.9-1-9.7-1.9-14.6-2.9
				c-0.6-0.1-0.8,0.1-1,0.6c-1.5,4.2-3,8.3-4.5,12.5c-0.1,0.4-0.3,0.7-0.4,1.1c-0.3,0.7-1,1-1.6,0.7c-0.6-0.2-0.9-0.9-0.7-1.6
				c0.3-1,0.7-2,1.1-3.1c1.4-3.9,2.9-7.9,4.3-11.8c0.5-1.4,0.7-1.5,2.2-1.2c6.2,1.2,12.5,2.5,18.7,3.7c0.8,0.2,1.5,0.3,1.8,1.2
				C45.4,17.6,45.4,17.7,45.4,17.8z"/>
		</g>
	</g>
</g>
</svg>
