<?xml version="1.0" encoding="utf-8"?>
<!-- Generator: Adobe Illustrator 22.1.0, SVG Export Plug-In . SVG Version: 6.00 Build 0)  -->
<svg version="1.1" id="Capa_1" xmlns="http://www.w3.org/2000/svg" xmlns:xlink="http://www.w3.org/1999/xlink" x="0px" y="0px"
	 viewBox="0 0 37.6 27.5" style="enable-background:new 0 0 37.6 27.5;" xml:space="preserve">
<style type="text/css">
	.st0{fill:#fff;}
</style>
<g>
	<g>
		<g>
			<path class="st0" d="M414.1-124.3c-0.3-0.3-0.5-0.6-0.8-0.9l-0.2-0.3c-0.3-0.3-0.3-0.5-0.2-0.7c0.1-0.4,0.2-0.9,0.2-1.3
				c0.3-1.4-0.2-2.3-1.5-2.8c-0.4-0.2-0.8-0.3-1.1-0.4c-0.4-0.1-0.7-0.4-0.8-0.8c-0.2-0.5-0.3-1-0.5-1.5c-0.4-0.9-1.2-1.3-2.2-1.2
				c-0.4,0-0.8,0.1-1.3,0.2c-0.6,0.2-1,0-1.4-0.4c-0.3-0.3-0.6-0.6-1-0.8c-0.9-0.7-1.8-0.7-2.7,0c-0.3,0.2-0.6,0.5-0.9,0.8l-0.3,0.3
				c-0.3,0.3-0.5,0.3-0.7,0.2c-0.3-0.1-0.7-0.1-1-0.2l-0.3-0.1c-1.4-0.3-2.3,0.2-2.8,1.6c-0.1,0.3-0.3,0.7-0.4,1.1
				c-0.1,0.4-0.4,0.7-0.8,0.8c-0.5,0.2-1,0.3-1.4,0.5c-0.9,0.4-1.3,1.2-1.2,2.2c0,0.4,0.1,0.8,0.2,1.3c0.2,0.6,0,1-0.4,1.5
				c-0.3,0.3-0.6,0.7-0.8,1c-0.6,0.9-0.6,1.8,0,2.6c0.3,0.4,0.6,0.7,1,1.2c0.3,0.3,0.3,0.6,0.2,1c-0.1,0.4-0.1,0.7-0.2,1l-0.1,0.3
				l0,0.1c0,0.7,0,1.7,1.2,2.3c0.5,0.2,1,0.4,1.5,0.6c0.4,0.1,0.7,0.4,0.8,0.8c0.2,0.5,0.3,1,0.5,1.5c0.4,0.9,1.2,1.4,2.2,1.2
				c0.4,0,0.8-0.1,1.3-0.2c0.6-0.1,1,0,1.4,0.4c0.4,0.4,0.7,0.7,1,0.8c0.4,0.3,0.9,0.5,1.3,0.5c0.5,0,0.9-0.2,1.3-0.5
				c0.4-0.3,0.8-0.7,1.2-1c0.3-0.3,0.6-0.3,1-0.3c0.3,0.1,0.5,0.1,0.8,0.2l0.3,0.1c1.4,0.3,2.3-0.2,2.8-1.5c0.2-0.4,0.3-0.8,0.4-1.1
				c0.1-0.4,0.4-0.7,0.8-0.8c0.5-0.2,1-0.3,1.5-0.6c0.9-0.4,1.3-1.2,1.2-2.1c0-0.4-0.1-0.8-0.2-1.3c-0.2-0.6,0-1,0.4-1.4
				c0.3-0.3,0.6-0.7,0.8-1C414.7-122.5,414.7-123.4,414.1-124.3z M412.7-122.7c-0.2,0.2-0.4,0.5-0.7,0.8c-0.8,0.8-1.1,1.9-0.8,3
				c0.1,0.4,0.1,0.7,0.2,1.1c0,0.3,0,0.3-0.2,0.4c-0.4,0.2-0.8,0.3-1.3,0.5c-1,0.3-1.7,1-2,2c-0.1,0.3-0.2,0.6-0.3,1
				c-0.2,0.5-0.3,0.6-0.9,0.5l-0.3-0.1c-0.2,0-0.5-0.1-0.7-0.1c-0.9-0.2-1.8,0-2.5,0.7c-0.3,0.3-0.7,0.6-1,0.9
				c-0.3,0.2-0.4,0.2-0.6,0c-0.3-0.3-0.6-0.5-0.8-0.7c-0.6-0.6-1.3-0.9-2.1-0.9c-0.3,0-0.6,0-0.9,0.1c-0.4,0.1-0.8,0.1-1.1,0.2
				c-0.3,0-0.3,0-0.4-0.2c-0.2-0.4-0.3-0.8-0.5-1.3c-0.3-1-0.9-1.6-1.9-1.9c-0.4-0.1-0.9-0.3-1.3-0.5c-0.2-0.1-0.2-0.1-0.2-0.6
				l0-0.2c0.1-0.3,0.1-0.6,0.2-1c0.2-0.9,0-1.8-0.6-2.5c-0.4-0.4-0.7-0.7-0.9-1.1c-0.2-0.3-0.2-0.4,0-0.6c0.2-0.2,0.4-0.5,0.6-0.8
				c0.9-0.9,1.2-1.9,0.8-3.1c-0.1-0.3-0.1-0.7-0.2-1c0-0.3,0-0.4,0.2-0.4c0.4-0.2,0.8-0.3,1.2-0.5c1-0.3,1.7-1,2-2
				c0.1-0.3,0.2-0.6,0.3-0.9c0.2-0.6,0.3-0.6,0.9-0.5l0.3,0.1c0.3,0.1,0.7,0.1,1,0.2c0.7,0.1,1.5-0.1,2.1-0.6l0.3-0.3
				c0.3-0.2,0.6-0.5,0.8-0.7c0.3-0.2,0.4-0.2,0.7,0c0.3,0.2,0.5,0.4,0.8,0.6c0.8,0.9,1.9,1.1,3.1,0.8c0.3-0.1,0.6-0.1,1-0.2
				c0.3,0,0.3,0,0.4,0.2c0.2,0.4,0.3,0.8,0.5,1.3c0.3,1,1,1.7,2,1.9c0.3,0.1,0.6,0.2,1,0.3c0.5,0.2,0.6,0.3,0.5,0.9
				c-0.1,0.4-0.2,0.9-0.2,1.3c-0.1,0.8,0.1,1.5,0.6,2.1l0.2,0.3c0.3,0.3,0.5,0.6,0.7,0.9C412.9-123,412.9-122.9,412.7-122.7z"/>
		</g>
		<path class="st0" d="M406.4-128.4c-2.2,2.1-4.4,4.3-6.6,6.5c-0.8-0.8-1.6-1.6-2.4-2.4c-0.8,0.7-1.5,1.5-2.3,2.2
			c1.5,1.5,3.1,3,4.5,4.4c2.9-2.9,5.9-5.8,8.8-8.6C407.8-127,407.1-127.7,406.4-128.4z"/>
	</g>
</g>
<g id="wAdd4e.tif_2_">
	<g>
		<path class="st0" d="M1.4,14.4c0-0.3,0.1-0.6,0.1-1c0.1-0.8,0.3-1.5,0.8-2.1c0.5-0.6,1.1-0.9,1.7-1.1c0.6-0.2,1.2-0.3,1.9-0.5
			c0.1,0,0.3,0,0.4,0.1c0.5,0.7,1.9,0.6,2.5,0.2c0.1,0,0.1-0.1,0.2-0.1c0.1-0.1,0.2-0.2,0.3-0.1c0.9,0.1,1.7,0.3,2.5,0.7
			c1,0.5,1.6,1.4,1.8,2.5c0,0.2,0.1,0.3,0.1,0.5c0,0.1,0,0.2-0.1,0.2c-0.5,0.2-1,0.4-1.4,0.7C11,15,10.3,16,9.9,17.1
			c-0.1,0.2-0.2,0.5-0.2,0.7c0,0.2-0.1,0.3-0.3,0.3c-0.4,0-0.8,0.1-1.2,0.1c-1.2,0-2.3,0-3.4-0.2c-1-0.2-2-0.5-2.8-1.1
			c-0.2-0.2-0.4-0.3-0.6-0.5C1.4,15.7,1.4,15.1,1.4,14.4z"/>
		<path class="st0" d="M36.2,16.4c-0.1,0-0.1,0.1-0.2,0.1c-0.7,0.7-1.6,1.1-2.5,1.3c-1.2,0.3-2.4,0.4-3.7,0.4c-0.4,0-0.8,0-1.2,0
			c0-0.2-0.1-0.3-0.1-0.5c-0.5-2-1.7-3.2-3.6-3.9c-0.2-0.1-0.4-0.1-0.6-0.2c-0.3-0.1-0.3-0.2-0.3-0.5c0.3-1.3,0.9-2.2,2.2-2.7
			c0.7-0.3,1.4-0.4,2.1-0.6c0.2,0,0.3,0,0.4,0.2c0.2,0.3,0.6,0.4,0.9,0.4c0.3,0,0.6,0,1,0c0.3,0,0.6-0.2,0.8-0.5
			c0,0,0.1-0.1,0.2-0.1c0.8,0.1,1.6,0.3,2.3,0.6c1.3,0.5,1.9,1.5,2.1,2.8c0.1,0.7,0.1,1.4,0.1,2.2c0,0.1,0,0.3,0,0.4
			C36.2,16.1,36.2,16.2,36.2,16.4z"/>
		<path class="st0" d="M30.3,1.3c0.3,0,0.5,0.1,0.8,0.1c1.2,0.3,1.9,1,2.2,2.2c0.1,0.3,0.1,0.5,0.1,0.8c0.1,0.7,0.1,1.5-0.1,2.2
			c-0.2,0.9-0.6,1.6-1.3,2.2c-1.4,1.1-3.2,1-4.4-0.4c-0.6-0.7-0.9-1.5-1-2.3c-0.1-0.9-0.1-1.8,0.2-2.7c0.4-1.1,1.2-1.8,2.3-2
			c0.2,0,0.5-0.1,0.7-0.1C30,1.3,30.2,1.3,30.3,1.3z"/>
		<path class="st0" d="M18.9,25.7c-1-0.1-2-0.1-3.1-0.2c-1.5-0.2-2.9-0.6-4.1-1.5c-0.3-0.2-0.5-0.4-0.8-0.7
			c-0.2-0.2-0.3-0.5-0.3-0.7c0-1.5,0.1-3,0.4-4.5c0.3-1.3,1.2-2.2,2.4-2.8c1.1-0.5,2.2-0.8,3.4-1c0.1,0,0.2,0,0.2,0.1
			c0.1,0.1,0.3,0.2,0.4,0.3c0.3,0.3,0.7,0.5,1.1,0.5c0.4,0,0.7,0,1.1,0c0.5,0,0.9-0.3,1.2-0.6c0.2-0.2,0.3-0.2,0.5-0.1
			c0.9,0.2,1.9,0.4,2.8,0.8c1.7,0.7,2.7,1.9,3,3.7c0.2,1.2,0.3,2.4,0.3,3.5c0,0.6-0.3,1-0.7,1.3c-0.7,0.6-1.5,1-2.4,1.3
			c-1.5,0.5-3,0.7-4.6,0.7C19.5,25.7,19.2,25.7,18.9,25.7C18.9,25.7,18.9,25.7,18.9,25.7z"/>
		<path class="st0" d="M18.9,2.9c0.8,0,1.5,0,2.2,0.3c1.2,0.5,2,1.4,2.4,2.6c0.1,0.5,0.2,1,0.3,1.6c0.1,0.8,0.1,1.7-0.1,2.5
			c-0.3,1.4-0.9,2.5-2.1,3.4c-1.7,1.3-4,1.1-5.5-0.4c-1-1-1.6-2.3-1.7-3.7c-0.1-1.1,0-2.1,0.2-3.2c0.2-1,0.8-1.8,1.6-2.4
			c0.6-0.4,1.2-0.6,2-0.7C18.4,2.9,18.7,2.9,18.9,2.9z"/>
		<path class="st0" d="M11,5.2c0,1.1-0.2,2.1-0.9,3C9.4,9.2,8.4,9.6,7.3,9.6C6.4,9.5,5.7,9,5.1,8.4C4.5,7.8,4.2,7,4.1,6.1
			C4,5.3,4,4.4,4.3,3.5c0.3-1.3,1.2-2,2.5-2.2C7.4,1.2,8,1.3,8.7,1.4c1.2,0.3,1.9,1.1,2.2,2.2C11,4.1,11,4.7,11,5.2
			C11.1,5.2,11.1,5.2,11,5.2z"/>
	</g>
</g>
</svg>
