<?xml version="1.0" encoding="utf-8"?>
<!-- Generator: Adobe Illustrator 22.1.0, SVG Export Plug-In . SVG Version: 6.00 Build 0)  -->
<svg version="1.1" id="Capa_1" xmlns="http://www.w3.org/2000/svg" xmlns:xlink="http://www.w3.org/1999/xlink" x="0px" y="0px"
	 viewBox="0 0 43.3 25" style="enable-background:new 0 0 43.3 25;" xml:space="preserve">
<style type="text/css">
	.st0{fill:#fff;}
</style>
<g>
	<g>
		<g>
			<path class="st0" d="M416.9-126.8c-0.3-0.3-0.5-0.6-0.8-0.9l-0.2-0.3c-0.3-0.3-0.3-0.5-0.2-0.7c0.1-0.4,0.2-0.9,0.2-1.3
				c0.3-1.4-0.2-2.3-1.5-2.8c-0.4-0.2-0.8-0.3-1.1-0.4c-0.4-0.1-0.7-0.4-0.8-0.8c-0.2-0.5-0.3-1-0.5-1.5c-0.4-0.9-1.2-1.3-2.2-1.2
				c-0.4,0-0.8,0.1-1.3,0.2c-0.6,0.2-1,0-1.4-0.4c-0.3-0.3-0.6-0.6-1-0.8c-0.9-0.7-1.8-0.7-2.7,0c-0.3,0.2-0.6,0.5-0.9,0.8l-0.3,0.3
				c-0.3,0.3-0.5,0.3-0.7,0.2c-0.3-0.1-0.7-0.1-1-0.2l-0.3-0.1c-1.4-0.3-2.3,0.2-2.8,1.6c-0.1,0.3-0.3,0.7-0.4,1.1
				c-0.1,0.4-0.4,0.7-0.8,0.8c-0.5,0.2-1,0.3-1.4,0.5c-0.9,0.4-1.3,1.2-1.2,2.2c0,0.4,0.1,0.8,0.2,1.3c0.2,0.6,0,1-0.4,1.5
				c-0.3,0.3-0.6,0.7-0.8,1c-0.6,0.9-0.6,1.8,0,2.6c0.3,0.4,0.6,0.7,1,1.2c0.3,0.3,0.3,0.6,0.2,1c-0.1,0.4-0.1,0.7-0.2,1l-0.1,0.3
				l0,0.1c0,0.7,0,1.7,1.2,2.3c0.5,0.2,1,0.4,1.5,0.6c0.4,0.1,0.7,0.4,0.8,0.8c0.2,0.5,0.3,1,0.5,1.5c0.4,0.9,1.2,1.4,2.2,1.2
				c0.4,0,0.8-0.1,1.3-0.2c0.6-0.1,1,0,1.4,0.4c0.4,0.4,0.7,0.7,1,0.8c0.4,0.3,0.9,0.5,1.3,0.5c0.5,0,0.9-0.2,1.3-0.5
				c0.4-0.3,0.8-0.7,1.2-1c0.3-0.3,0.6-0.3,1-0.3c0.3,0.1,0.5,0.1,0.8,0.2l0.3,0.1c1.4,0.3,2.3-0.2,2.8-1.5c0.2-0.4,0.3-0.8,0.4-1.1
				c0.1-0.4,0.4-0.7,0.8-0.8c0.5-0.2,1-0.3,1.5-0.6c0.9-0.4,1.3-1.2,1.2-2.1c0-0.4-0.1-0.8-0.2-1.3c-0.2-0.6,0-1,0.4-1.4
				c0.3-0.3,0.6-0.7,0.8-1C417.6-125,417.6-125.9,416.9-126.8z M415.6-125.1c-0.2,0.2-0.4,0.5-0.7,0.8c-0.8,0.8-1.1,1.9-0.8,3
				c0.1,0.4,0.1,0.7,0.2,1.1c0,0.3,0,0.3-0.2,0.4c-0.4,0.2-0.8,0.3-1.3,0.5c-1,0.3-1.7,1-2,2c-0.1,0.3-0.2,0.6-0.3,1
				c-0.2,0.5-0.3,0.6-0.9,0.5l-0.3-0.1c-0.2,0-0.5-0.1-0.7-0.1c-0.9-0.2-1.8,0-2.5,0.7c-0.3,0.3-0.7,0.6-1,0.9
				c-0.3,0.2-0.4,0.2-0.6,0c-0.3-0.3-0.6-0.5-0.8-0.7c-0.6-0.6-1.3-0.9-2.1-0.9c-0.3,0-0.6,0-0.9,0.1c-0.4,0.1-0.8,0.1-1.1,0.2
				c-0.3,0-0.3,0-0.4-0.2c-0.2-0.4-0.3-0.8-0.5-1.3c-0.3-1-0.9-1.6-1.9-1.9c-0.4-0.1-0.9-0.3-1.3-0.5c-0.2-0.1-0.2-0.1-0.2-0.6
				l0-0.2c0.1-0.3,0.1-0.6,0.2-1c0.2-0.9,0-1.8-0.6-2.5c-0.4-0.4-0.7-0.7-0.9-1.1c-0.2-0.3-0.2-0.4,0-0.6c0.2-0.2,0.4-0.5,0.6-0.8
				c0.9-0.9,1.2-1.9,0.8-3.1c-0.1-0.3-0.1-0.7-0.2-1c0-0.3,0-0.4,0.2-0.4c0.4-0.2,0.8-0.3,1.2-0.5c1-0.3,1.7-1,2-2
				c0.1-0.3,0.2-0.6,0.3-0.9c0.2-0.6,0.3-0.6,0.9-0.5l0.3,0.1c0.3,0.1,0.7,0.1,1,0.2c0.7,0.1,1.5-0.1,2.1-0.6l0.3-0.3
				c0.3-0.2,0.6-0.5,0.8-0.7c0.3-0.2,0.4-0.2,0.7,0c0.3,0.2,0.5,0.4,0.8,0.6c0.8,0.9,1.9,1.1,3.1,0.8c0.3-0.1,0.6-0.1,1-0.2
				c0.3,0,0.3,0,0.4,0.2c0.2,0.4,0.3,0.8,0.5,1.3c0.3,1,1,1.7,2,1.9c0.3,0.1,0.6,0.2,1,0.3c0.5,0.2,0.6,0.3,0.5,0.9
				c-0.1,0.4-0.2,0.9-0.2,1.3c-0.1,0.8,0.1,1.5,0.6,2.1l0.2,0.3c0.3,0.3,0.5,0.6,0.7,0.9C415.8-125.5,415.8-125.4,415.6-125.1z"/>
		</g>
		<path class="st0" d="M409.3-130.9c-2.2,2.1-4.4,4.3-6.6,6.5c-0.8-0.8-1.6-1.6-2.4-2.4c-0.8,0.7-1.5,1.5-2.3,2.2
			c1.5,1.5,3.1,3,4.5,4.4c2.9-2.9,5.9-5.8,8.8-8.6C410.7-129.5,410-130.2,409.3-130.9z"/>
	</g>
</g>
<g>
	<path class="st0" d="M29.5,7.4c0.4,0.2,1,0.4,1.3,0.2c1.2-0.6,2.3-1.4,3.5-2.2c-0.4-0.3-0.7-0.6-1.1-0.8C22-3.5,5.9,2.3,2.4,15.7
		c-0.3,1.3-0.3,1.2-0.5,2.3c0,0.1,0,0.1,0,0.2c0,0,0,0,0,0c0,0,0,0,0,0c-0.2,1.2-0.5,3.4,0.8,4.3c0,0,0,0,0,0c0,0,0,0,0,0
		c0.5,0.4,1,0.5,1.7,0.4C5.6,22.7,6,21.9,6.2,20c0.1-1.1,0.2-2.2,0.5-3.2C9.5,6.8,20.6,2.4,29.5,7.4z"/>
	<path class="st0" d="M41.3,3.1c-0.5,0.3-0.7,0.4-0.8,0.5c-6.7,4.3-13.3,8.5-20,12.8c-0.6,0.4-1.3,0.8-1.9,1.4
		c-1.8,1.7-1.3,4.8,0.9,5.9c0,0,0,0,0,0c1,0.5,2.2,0.4,3.1-0.2c0.8-0.5,1.6-1,2.2-1.7C30.2,15.9,35.5,10,40.7,4
		C40.9,3.8,41,3.6,41.3,3.1z"/>
	<path class="st0" d="M38.2,9.6c-1,1.1-1.8,2-2.6,3c-0.2,0.2-0.3,0.6-0.2,0.7c1.4,2.5,1.8,5.2,2,8c0.1,1.1,1.2,1.8,2.3,1.7
		c1.1-0.1,2-0.9,2-2.1C41.8,16.9,40.6,13.2,38.2,9.6z"/>
	<path class="st0" d="M19.6,9.5c-0.1,1.1,0.9,2,1.9,2.1c1.1,0,2-0.8,2-2c0-1.1-0.9-2-2-2C20.6,7.6,19.7,8.4,19.6,9.5z"/>
	<path class="st0" d="M13.5,10.9c-1.1,0-2,0.9-2,2c0,1,0.9,1.9,1.9,2c1.1,0,2-0.8,2.1-1.9C15.5,11.9,14.6,11,13.5,10.9z"/>
	<path class="st0" d="M10.1,19.1c-1.1,0-1.9,0.9-1.9,1.9c0,1.1,0.9,2,2,2c1.1,0,2-0.9,2-2C12.1,19.9,11.2,19,10.1,19.1z"/>
	<path class="st0" d="M33,19.1c-1.1,0-2,0.9-1.9,2c0,1.1,0.9,1.9,1.9,1.9c1.1,0,2-0.9,2-2C35,19.9,34.1,19,33,19.1z"/>
</g>
</svg>
