<?xml version="1.0" encoding="utf-8"?>
<!-- Generator: Adobe Illustrator 22.1.0, SVG Export Plug-In . SVG Version: 6.00 Build 0)  -->
<svg version="1.1" id="Capa_1" xmlns="http://www.w3.org/2000/svg" xmlns:xlink="http://www.w3.org/1999/xlink" x="0px" y="0px"
	 viewBox="0 0 27.8 27.5" style="enable-background:new 0 0 27.8 27.5;" xml:space="preserve">
<style type="text/css">
	.st0{fill:#fff;}
</style>
<g>
	<g>
		<g>
			<path class="st0" d="M409.2-124.3c-0.3-0.3-0.5-0.6-0.8-0.9l-0.2-0.3c-0.3-0.3-0.3-0.5-0.2-0.7c0.1-0.4,0.2-0.9,0.2-1.3
				c0.3-1.4-0.2-2.3-1.5-2.8c-0.4-0.2-0.8-0.3-1.1-0.4c-0.4-0.1-0.7-0.4-0.8-0.8c-0.2-0.5-0.3-1-0.5-1.5c-0.4-0.9-1.2-1.3-2.2-1.2
				c-0.4,0-0.8,0.1-1.3,0.2c-0.6,0.2-1,0-1.4-0.4c-0.3-0.3-0.6-0.6-1-0.8c-0.9-0.7-1.8-0.7-2.7,0c-0.3,0.2-0.6,0.5-0.9,0.8l-0.3,0.3
				c-0.3,0.3-0.5,0.3-0.7,0.2c-0.3-0.1-0.7-0.1-1-0.2l-0.3-0.1c-1.4-0.3-2.3,0.2-2.8,1.6c-0.1,0.3-0.3,0.7-0.4,1.1
				c-0.1,0.4-0.4,0.7-0.8,0.8c-0.5,0.2-1,0.3-1.4,0.5c-0.9,0.4-1.3,1.2-1.2,2.2c0,0.4,0.1,0.8,0.2,1.3c0.2,0.6,0,1-0.4,1.5
				c-0.3,0.3-0.6,0.7-0.8,1c-0.6,0.9-0.6,1.8,0,2.6c0.3,0.4,0.6,0.7,1,1.2c0.3,0.3,0.3,0.6,0.2,1c-0.1,0.4-0.1,0.7-0.2,1l-0.1,0.3
				l0,0.1c0,0.7,0,1.7,1.2,2.3c0.5,0.2,1,0.4,1.5,0.6c0.4,0.1,0.7,0.4,0.8,0.8c0.2,0.5,0.3,1,0.5,1.5c0.4,0.9,1.2,1.4,2.2,1.2
				c0.4,0,0.8-0.1,1.3-0.2c0.6-0.1,1,0,1.4,0.4c0.4,0.4,0.7,0.7,1,0.8c0.4,0.3,0.9,0.5,1.3,0.5c0.5,0,0.9-0.2,1.3-0.5
				c0.4-0.3,0.8-0.7,1.2-1c0.3-0.3,0.6-0.3,1-0.3c0.3,0.1,0.5,0.1,0.8,0.2l0.3,0.1c1.4,0.3,2.3-0.2,2.8-1.5c0.2-0.4,0.3-0.8,0.4-1.1
				c0.1-0.4,0.4-0.7,0.8-0.8c0.5-0.2,1-0.3,1.5-0.6c0.9-0.4,1.3-1.2,1.2-2.1c0-0.4-0.1-0.8-0.2-1.3c-0.2-0.6,0-1,0.4-1.4
				c0.3-0.3,0.6-0.7,0.8-1C409.9-122.5,409.8-123.4,409.2-124.3z M407.8-122.7c-0.2,0.2-0.4,0.5-0.7,0.8c-0.8,0.8-1.1,1.9-0.8,3
				c0.1,0.4,0.1,0.7,0.2,1.1c0,0.3,0,0.3-0.2,0.4c-0.4,0.2-0.8,0.3-1.3,0.5c-1,0.3-1.7,1-2,2c-0.1,0.3-0.2,0.6-0.3,1
				c-0.2,0.5-0.3,0.6-0.9,0.5l-0.3-0.1c-0.2,0-0.5-0.1-0.7-0.1c-0.9-0.2-1.8,0-2.5,0.7c-0.3,0.3-0.7,0.6-1,0.9
				c-0.3,0.2-0.4,0.2-0.6,0c-0.3-0.3-0.6-0.5-0.8-0.7c-0.6-0.6-1.3-0.9-2.1-0.9c-0.3,0-0.6,0-0.9,0.1c-0.4,0.1-0.8,0.1-1.1,0.2
				c-0.3,0-0.3,0-0.4-0.2c-0.2-0.4-0.3-0.8-0.5-1.3c-0.3-1-0.9-1.6-1.9-1.9c-0.4-0.1-0.9-0.3-1.3-0.5c-0.2-0.1-0.2-0.1-0.2-0.6
				l0-0.2c0.1-0.3,0.1-0.6,0.2-1c0.2-0.9,0-1.8-0.6-2.5c-0.4-0.4-0.7-0.7-0.9-1.1c-0.2-0.3-0.2-0.4,0-0.6c0.2-0.2,0.4-0.5,0.6-0.8
				c0.9-0.9,1.2-1.9,0.8-3.1c-0.1-0.3-0.1-0.7-0.2-1c0-0.3,0-0.4,0.2-0.4c0.4-0.2,0.8-0.3,1.2-0.5c1-0.3,1.7-1,2-2
				c0.1-0.3,0.2-0.6,0.3-0.9c0.2-0.6,0.3-0.6,0.9-0.5l0.3,0.1c0.3,0.1,0.7,0.1,1,0.2c0.7,0.1,1.5-0.1,2.1-0.6l0.3-0.3
				c0.3-0.2,0.6-0.5,0.8-0.7c0.3-0.2,0.4-0.2,0.7,0c0.3,0.2,0.5,0.4,0.8,0.6c0.8,0.9,1.9,1.1,3.1,0.8c0.3-0.1,0.6-0.1,1-0.2
				c0.3,0,0.3,0,0.4,0.2c0.2,0.4,0.3,0.8,0.5,1.3c0.3,1,1,1.7,2,1.9c0.3,0.1,0.6,0.2,1,0.3c0.5,0.2,0.6,0.3,0.5,0.9
				c-0.1,0.4-0.2,0.9-0.2,1.3c-0.1,0.8,0.1,1.5,0.6,2.1l0.2,0.3c0.3,0.3,0.5,0.6,0.7,0.9C408-123,408-122.9,407.8-122.7z"/>
		</g>
		<path class="st0" d="M401.5-128.4c-2.2,2.1-4.4,4.3-6.6,6.5c-0.8-0.8-1.6-1.6-2.4-2.4c-0.8,0.7-1.5,1.5-2.3,2.2
			c1.5,1.5,3.1,3,4.5,4.4c2.9-2.9,5.9-5.8,8.8-8.6C402.9-127,402.2-127.7,401.5-128.4z"/>
	</g>
</g>
<g>
	<g>
		<g>
			<path class="st0" d="M26.1,12.4c-0.3-0.3-0.5-0.6-0.8-0.9l-0.2-0.3c-0.3-0.3-0.3-0.5-0.2-0.7c0.1-0.4,0.2-0.9,0.2-1.3
				c0.3-1.4-0.2-2.3-1.5-2.8c-0.4-0.2-0.8-0.3-1.1-0.4c-0.4-0.1-0.7-0.4-0.8-0.8c-0.2-0.5-0.3-1-0.5-1.5c-0.4-0.9-1.2-1.3-2.2-1.2
				c-0.4,0-0.8,0.1-1.3,0.2c-0.6,0.2-1,0-1.4-0.4c-0.3-0.3-0.6-0.6-1-0.8c-0.9-0.7-1.8-0.7-2.7,0c-0.3,0.2-0.6,0.5-0.9,0.8l-0.3,0.3
				c-0.3,0.3-0.5,0.3-0.7,0.2c-0.3-0.1-0.7-0.1-1-0.2L9.3,2.6C7.9,2.3,7,2.8,6.5,4.1C6.4,4.5,6.3,4.8,6.2,5.2C6,5.6,5.8,5.9,5.3,6
				c-0.5,0.2-1,0.3-1.4,0.5C3,7,2.5,7.8,2.7,8.8c0,0.4,0.1,0.8,0.2,1.3c0.2,0.6,0,1-0.4,1.5c-0.3,0.3-0.6,0.7-0.8,1
				c-0.6,0.9-0.6,1.8,0,2.6c0.3,0.4,0.6,0.7,1,1.2c0.3,0.3,0.3,0.6,0.2,1c-0.1,0.4-0.1,0.7-0.2,1l-0.1,0.3l0,0.1
				c0,0.7,0,1.7,1.2,2.3c0.5,0.2,1,0.4,1.5,0.6c0.4,0.1,0.7,0.4,0.8,0.8c0.2,0.5,0.3,1,0.5,1.5c0.4,0.9,1.2,1.4,2.2,1.2
				c0.4,0,0.8-0.1,1.3-0.2c0.6-0.1,1,0,1.4,0.4c0.4,0.4,0.7,0.7,1,0.8c0.4,0.3,0.9,0.5,1.3,0.5c0.5,0,0.9-0.2,1.3-0.5
				c0.4-0.3,0.8-0.7,1.2-1c0.3-0.3,0.6-0.3,1-0.3c0.3,0.1,0.5,0.1,0.8,0.2l0.3,0.1c1.4,0.3,2.3-0.2,2.8-1.5c0.2-0.4,0.3-0.8,0.4-1.1
				c0.1-0.4,0.4-0.7,0.8-0.8c0.5-0.2,1-0.3,1.5-0.6c0.9-0.4,1.3-1.2,1.2-2.1c0-0.4-0.1-0.8-0.2-1.3c-0.2-0.6,0-1,0.4-1.4
				c0.3-0.3,0.6-0.7,0.8-1C26.8,14.2,26.8,13.3,26.1,12.4z M24.7,14.1c-0.2,0.2-0.4,0.5-0.7,0.8c-0.8,0.8-1.1,1.9-0.8,3
				c0.1,0.4,0.1,0.7,0.2,1.1c0,0.3,0,0.3-0.2,0.4c-0.4,0.2-0.8,0.3-1.3,0.5c-1,0.3-1.7,1-2,2c-0.1,0.3-0.2,0.6-0.3,1
				c-0.2,0.5-0.3,0.6-0.9,0.5l-0.3-0.1c-0.2,0-0.5-0.1-0.7-0.1c-0.9-0.2-1.8,0-2.5,0.7c-0.3,0.3-0.7,0.6-1,0.9
				c-0.3,0.2-0.4,0.2-0.6,0c-0.3-0.3-0.6-0.5-0.8-0.7c-0.6-0.6-1.3-0.9-2.1-0.9c-0.3,0-0.6,0-0.9,0.1c-0.4,0.1-0.8,0.1-1.1,0.2
				c-0.3,0-0.3,0-0.4-0.2c-0.2-0.4-0.3-0.8-0.5-1.3c-0.3-1-0.9-1.6-1.9-1.9c-0.4-0.1-0.9-0.3-1.3-0.5c-0.2-0.1-0.2-0.1-0.2-0.6
				l0-0.2c0.1-0.3,0.1-0.6,0.2-1c0.2-0.9,0-1.8-0.6-2.5c-0.4-0.4-0.7-0.7-0.9-1.1c-0.2-0.3-0.2-0.4,0-0.6c0.2-0.2,0.4-0.5,0.6-0.8
				c0.9-0.9,1.2-1.9,0.8-3.1c-0.1-0.3-0.1-0.7-0.2-1c0-0.3,0-0.4,0.2-0.4C5,7.9,5.4,7.8,5.8,7.6c1-0.3,1.7-1,2-2
				C7.9,5.4,8,5.1,8.1,4.7C8.3,4.2,8.4,4.1,9,4.2l0.3,0.1c0.3,0.1,0.7,0.1,1,0.2c0.7,0.1,1.5-0.1,2.1-0.6l0.3-0.3
				c0.3-0.2,0.6-0.5,0.8-0.7c0.3-0.2,0.4-0.2,0.7,0c0.3,0.2,0.5,0.4,0.8,0.6c0.8,0.9,1.9,1.1,3.1,0.8c0.3-0.1,0.6-0.1,1-0.2
				c0.3,0,0.3,0,0.4,0.2c0.2,0.4,0.3,0.8,0.5,1.3c0.3,1,1,1.7,2,1.9c0.3,0.1,0.6,0.2,1,0.3c0.5,0.2,0.6,0.3,0.5,0.9
				c-0.1,0.4-0.2,0.9-0.2,1.3c-0.1,0.8,0.1,1.5,0.6,2.1l0.2,0.3c0.3,0.3,0.5,0.6,0.7,0.9C25,13.7,25,13.8,24.7,14.1z"/>
		</g>
		<path class="st0" d="M18.4,8.4c-2.2,2.1-4.4,4.3-6.6,6.5c-0.8-0.8-1.6-1.6-2.4-2.4C8.7,13.2,8,14,7.2,14.7c1.5,1.5,3.1,3,4.5,4.4
			c2.9-2.9,5.9-5.8,8.8-8.6C19.8,9.8,19.1,9.1,18.4,8.4z"/>
	</g>
</g>
</svg>
