<?xml version="1.0" encoding="utf-8"?>
<!-- Generator: Adobe Illustrator 22.1.0, SVG Export Plug-In . SVG Version: 6.00 Build 0)  -->
<svg version="1.1" id="Capa_1" xmlns="http://www.w3.org/2000/svg" xmlns:xlink="http://www.w3.org/1999/xlink" x="0px" y="0px"
	 viewBox="0 0 43.4 47.3" style="enable-background:new 0 0 43.4 47.3;" xml:space="preserve">
<style type="text/css">
	.st0{fill:#0f3a53;}
</style>
<g>
	<g>
		<g>
			<path class="st0" d="M13.8,8.7h5.3v3.7h-5.3v6h-4v-6H4.5V8.7h5.3V3h4V8.7z"/>
		</g>
		<g id="wAdd4e.tif_8_">
			<g>
				<path class="st0" d="M26.8,44.3c-1.4-0.1-2.9-0.1-4.3-0.3c-2.1-0.2-4.1-0.8-5.9-2.1c-0.4-0.3-0.7-0.6-1.1-1
					c-0.3-0.3-0.4-0.6-0.4-1c-0.1-2.1,0.1-4.3,0.6-6.3c0.4-1.9,1.6-3.1,3.4-3.9c1.5-0.7,3.1-1.1,4.8-1.4c0.1,0,0.2,0,0.3,0.1
					c0.2,0.1,0.4,0.2,0.5,0.4c0.5,0.4,1,0.7,1.6,0.7c0.5,0,1,0,1.5,0c0.7-0.1,1.2-0.4,1.7-0.9c0.2-0.2,0.4-0.3,0.7-0.2
					c1.3,0.3,2.7,0.6,4,1.1c2.4,0.9,3.8,2.7,4.2,5.2c0.3,1.7,0.4,3.3,0.4,5c0,0.8-0.4,1.4-0.9,1.9c-1,0.9-2.2,1.4-3.4,1.8
					c-2.1,0.7-4.3,1-6.5,0.9C27.6,44.2,27.2,44.2,26.8,44.3C26.8,44.3,26.8,44.3,26.8,44.3z"/>
				<path class="st0" d="M26.8,11.9c1.2,0,2.1,0.1,3.1,0.4c1.8,0.7,2.8,1.9,3.3,3.7c0.2,0.7,0.3,1.5,0.4,2.2
					c0.1,1.2,0.1,2.3-0.1,3.5c-0.4,1.9-1.3,3.6-2.9,4.8c-2.4,1.8-5.6,1.6-7.8-0.5c-1.5-1.4-2.3-3.2-2.5-5.2c-0.1-1.5-0.1-3,0.3-4.5
					c0.3-1.4,1.1-2.6,2.3-3.4c0.8-0.6,1.8-0.9,2.8-0.9C26.1,12,26.6,11.9,26.8,11.9z"/>
			</g>
		</g>
	</g>
</g>
</svg>
