<?xml version="1.0" encoding="utf-8"?>
<!-- Generator: Adobe Illustrator 22.1.0, SVG Export Plug-In . SVG Version: 6.00 Build 0)  -->
<svg version="1.1" id="Camada_1" xmlns="http://www.w3.org/2000/svg" xmlns:xlink="http://www.w3.org/1999/xlink" x="0px" y="0px"
	 viewBox="0 0 420 140" style="enable-background:new 0 0 420 140;" xml:space="preserve">
<style type="text/css">
	.st0{fill:url(#SVGID_1_);}
	.st1{fill:#0C3C53;}
	.st2{fill:#FFFFFF;}
</style>
<g>
	
		<linearGradient id="SVGID_1_" gradientUnits="userSpaceOnUse" x1="31.5459" y1="98.5849" x2="342.2459" y2="98.5849" gradientTransform="matrix(1 0 0 -1 0 142.5)">
		<stop  offset="8.667234e-02" style="stop-color:#25586D"/>
		<stop  offset="0.5502" style="stop-color:#003E51;stop-opacity:0.9"/>
		<stop  offset="1" style="stop-color:#00586D"/>
	</linearGradient>
	<path class="st0" d="M307.2,9c-17.6,0-32.2,13-34.6,30h-92.5h-79l0,0l0,0C98.7,22.8,85.3,10.2,68.8,9.1C68,9,67.3,9,66.5,9
		c-19.3,0-35,15.7-35,35c0,18.7,14.7,34,33.2,34.9c0.6,0,1.2,0,1.8,0c17.6,0,32.2-13,34.6-30h79H196h76.6c2.4,16.9,17,30,34.6,30
		c19.3,0,35-15.7,35-35S326.5,9,307.2,9z"/>
	<g>
		<g>
			<g>
				<path class="st1" d="M7.8,130.9H5.2v-12.8h2.6V130.9z"/>
				<path class="st1" d="M12.5,121.3l0.1,1.4c0.3-0.5,0.7-0.9,1.2-1.1s1-0.4,1.6-0.4c1,0,1.7,0.3,2.2,0.9s0.8,1.6,0.8,2.9v5.8h-2.6
					V125c0-0.7-0.1-1.2-0.4-1.4s-0.6-0.4-1.1-0.4c-0.4,0-0.7,0.1-1,0.2s-0.5,0.3-0.7,0.6v6.9h-2.6v-9.5H12.5z"/>
				<path class="st1" d="M24.3,129.1c0.4,0,0.8-0.1,1.1-0.4s0.4-0.6,0.4-1.1H28l0,0.1c0,1-0.3,1.8-1.1,2.4c-0.7,0.6-1.7,1-2.7,1
					c-1.4,0-2.5-0.4-3.3-1.3s-1.2-2-1.2-3.5V126c0-1.4,0.4-2.5,1.1-3.5c0.8-0.9,1.8-1.4,3.2-1.4c1.2,0,2.1,0.3,2.8,1s1.1,1.5,1,2.6
					l0,0.1h-2.3c0-0.5-0.1-0.9-0.4-1.2c-0.3-0.3-0.6-0.5-1.1-0.5c-0.7,0-1.1,0.3-1.4,0.8s-0.4,1.2-0.4,2v0.3c0,0.8,0.1,1.5,0.4,2
					S23.6,129.1,24.3,129.1z"/>
				<path class="st1" d="M32.3,130.9h-2.6v-13.7h2.6V130.9z"/>
				<path class="st1" d="M40.2,129.4c-0.3,0.5-0.7,0.9-1.1,1.2s-1,0.4-1.6,0.4c-1,0-1.8-0.3-2.4-1s-0.8-1.7-0.8-3.2v-5.5h2.6v5.5
					c0,0.8,0.1,1.4,0.3,1.7c0.2,0.3,0.6,0.5,1.1,0.5c0.4,0,0.8-0.1,1.1-0.2c0.3-0.1,0.5-0.3,0.7-0.6v-6.9h2.6v9.5h-2.1L40.2,129.4z"
					/>
				<path class="st1" d="M47.2,119.1h-2.6v-1.9h2.6V119.1z M47.2,130.9h-2.6v-9.5h2.6V130.9z"/>
				<path class="st1" d="M54.3,123.5l-0.9,0c-0.4,0-0.7,0.1-0.9,0.2s-0.4,0.4-0.6,0.7v6.4h-2.6v-9.5h2.4l0.1,1.4
					c0.2-0.5,0.5-0.9,0.9-1.2s0.8-0.4,1.2-0.4c0.1,0,0.2,0,0.4,0s0.2,0,0.3,0.1L54.3,123.5z"/>
				<path class="st1" d="M70.2,129.1c-0.4,0.5-1,1-1.8,1.4s-1.8,0.6-3.1,0.6c-1.5,0-2.8-0.5-3.8-1.5s-1.5-2.2-1.5-3.8v-2.7
					c0-1.5,0.5-2.8,1.4-3.8c1-1,2.2-1.5,3.7-1.5c1.6,0,2.8,0.4,3.6,1.1s1.2,1.7,1.2,3l0,0.1h-2.4c0-0.7-0.2-1.2-0.6-1.6
					c-0.4-0.4-1-0.6-1.7-0.6c-0.8,0-1.4,0.3-1.9,0.9c-0.5,0.6-0.7,1.4-0.7,2.3v2.7c0,1,0.2,1.8,0.7,2.4s1.2,0.9,2,0.9
					c0.6,0,1.1-0.1,1.4-0.2s0.6-0.3,0.8-0.5v-2.5h-2.5v-1.8h5V129.1z"/>
				<path class="st1" d="M77.7,130.9c-0.1-0.2-0.2-0.4-0.2-0.7s-0.1-0.5-0.1-0.7c-0.3,0.5-0.6,0.8-1,1.2s-0.9,0.5-1.5,0.5
					c-1,0-1.8-0.3-2.3-0.8s-0.8-1.2-0.8-2.1c0-0.9,0.4-1.7,1.1-2.2c0.7-0.5,1.8-0.8,3.1-0.8h1.4v-0.8c0-0.5-0.1-0.8-0.4-1.1
					s-0.6-0.4-1.1-0.4c-0.4,0-0.7,0.1-1,0.3c-0.2,0.2-0.3,0.5-0.3,0.8h-2.5l0-0.1c0-0.8,0.3-1.5,1.1-2.1s1.7-0.9,2.9-0.9
					c1.1,0,2.1,0.3,2.8,0.9s1.1,1.4,1.1,2.5v3.9c0,0.4,0,0.9,0.1,1.3s0.2,0.8,0.3,1.2H77.7z M75.4,129.1c0.4,0,0.8-0.1,1.2-0.3
					s0.6-0.5,0.7-0.8v-1.3h-1.4c-0.5,0-1,0.1-1.2,0.4s-0.4,0.6-0.4,1c0,0.3,0.1,0.6,0.3,0.8C74.7,129,75,129.1,75.4,129.1z"/>
				<path class="st1" d="M86.8,123.5l-0.9,0c-0.4,0-0.7,0.1-0.9,0.2s-0.4,0.4-0.6,0.7v6.4h-2.6v-9.5h2.4l0.1,1.4
					c0.2-0.5,0.5-0.9,0.9-1.2s0.8-0.4,1.2-0.4c0.1,0,0.2,0,0.4,0s0.2,0,0.3,0.1L86.8,123.5z"/>
				<path class="st1" d="M93.8,130.9c-0.1-0.2-0.2-0.4-0.2-0.7s-0.1-0.5-0.1-0.7c-0.3,0.5-0.6,0.8-1,1.2s-0.9,0.5-1.5,0.5
					c-1,0-1.8-0.3-2.3-0.8s-0.8-1.2-0.8-2.1c0-0.9,0.4-1.7,1.1-2.2c0.7-0.5,1.8-0.8,3.1-0.8h1.4v-0.8c0-0.5-0.1-0.8-0.4-1.1
					s-0.6-0.4-1.1-0.4c-0.4,0-0.7,0.1-1,0.3c-0.2,0.2-0.3,0.5-0.3,0.8h-2.5l0-0.1c0-0.8,0.3-1.5,1.1-2.1s1.7-0.9,2.9-0.9
					c1.1,0,2.1,0.3,2.8,0.9s1.1,1.4,1.1,2.5v3.9c0,0.4,0,0.9,0.1,1.3s0.2,0.8,0.3,1.2H93.8z M91.4,129.1c0.4,0,0.8-0.1,1.2-0.3
					s0.6-0.5,0.7-0.8v-1.3h-1.4c-0.5,0-1,0.1-1.2,0.4s-0.4,0.6-0.4,1c0,0.3,0.1,0.6,0.3,0.8C90.8,129,91,129.1,91.4,129.1z"/>
				<path class="st1" d="M100.2,121.3l0.1,1.4c0.3-0.5,0.7-0.9,1.2-1.1s1-0.4,1.6-0.4c1,0,1.7,0.3,2.2,0.9s0.8,1.6,0.8,2.9v5.8h-2.6
					V125c0-0.7-0.1-1.2-0.4-1.4s-0.6-0.4-1.1-0.4c-0.4,0-0.7,0.1-1,0.2s-0.5,0.3-0.7,0.6v6.9h-2.6v-9.5H100.2z"/>
				<path class="st1" d="M111.1,119v2.3h1.6v1.8h-1.6v4.8c0,0.4,0.1,0.6,0.2,0.8s0.4,0.2,0.6,0.2c0.1,0,0.3,0,0.4,0
					c0.1,0,0.2,0,0.3-0.1l0.2,1.9c-0.3,0.1-0.5,0.2-0.8,0.2c-0.2,0-0.5,0.1-0.8,0.1c-0.9,0-1.6-0.2-2-0.7s-0.7-1.3-0.7-2.3v-4.9
					h-1.4v-1.8h1.4V119H111.1z"/>
				<path class="st1" d="M116.9,119.1h-2.6v-1.9h2.6V119.1z M116.9,130.9h-2.6v-9.5h2.6V130.9z"/>
				<path class="st1" d="M124.7,130.9c-0.1-0.2-0.2-0.4-0.2-0.7s-0.1-0.5-0.1-0.7c-0.3,0.5-0.6,0.8-1,1.2s-0.9,0.5-1.5,0.5
					c-1,0-1.8-0.3-2.3-0.8s-0.8-1.2-0.8-2.1c0-0.9,0.4-1.7,1.1-2.2c0.7-0.5,1.8-0.8,3.1-0.8h1.4v-0.8c0-0.5-0.1-0.8-0.4-1.1
					s-0.6-0.4-1.1-0.4c-0.4,0-0.7,0.1-1,0.3c-0.2,0.2-0.3,0.5-0.3,0.8H119l0-0.1c0-0.8,0.3-1.5,1.1-2.1s1.7-0.9,2.9-0.9
					c1.1,0,2.1,0.3,2.8,0.9s1.1,1.4,1.1,2.5v3.9c0,0.4,0,0.9,0.1,1.3s0.2,0.8,0.3,1.2H124.7z M122.3,129.1c0.4,0,0.8-0.1,1.2-0.3
					s0.6-0.5,0.7-0.8v-1.3h-1.4c-0.5,0-1,0.1-1.2,0.4s-0.4,0.6-0.4,1c0,0.3,0.1,0.6,0.3,0.8C121.7,129,121.9,129.1,122.3,129.1z"/>
			</g>
		</g>
		<g>
			<g>
				<path class="st1" d="M204.3,130.9h-2.6v-12.8h2.6V130.9z"/>
				<path class="st1" d="M209,121.3l0.1,1.4c0.3-0.5,0.7-0.9,1.2-1.1s1-0.4,1.6-0.4c1,0,1.7,0.3,2.2,0.9s0.8,1.6,0.8,2.9v5.8h-2.6
					V125c0-0.7-0.1-1.2-0.4-1.4s-0.6-0.4-1.1-0.4c-0.4,0-0.7,0.1-1,0.2s-0.5,0.3-0.7,0.6v6.9h-2.6v-9.5H209z"/>
				<path class="st1" d="M220.7,129.1c0.4,0,0.8-0.1,1.1-0.4s0.4-0.6,0.4-1.1h2.3l0,0.1c0,1-0.3,1.8-1.1,2.4c-0.7,0.6-1.7,1-2.7,1
					c-1.4,0-2.5-0.4-3.3-1.3s-1.2-2-1.2-3.5V126c0-1.4,0.4-2.5,1.1-3.5c0.8-0.9,1.8-1.4,3.2-1.4c1.2,0,2.1,0.3,2.8,1s1.1,1.5,1,2.6
					l0,0.1h-2.3c0-0.5-0.1-0.9-0.4-1.2c-0.3-0.3-0.6-0.5-1.1-0.5c-0.7,0-1.1,0.3-1.4,0.8s-0.4,1.2-0.4,2v0.3c0,0.8,0.1,1.5,0.4,2
					S220.1,129.1,220.7,129.1z"/>
				<path class="st1" d="M228.7,130.9h-2.6v-13.7h2.6V130.9z"/>
				<path class="st1" d="M236.7,129.4c-0.3,0.5-0.7,0.9-1.1,1.2s-1,0.4-1.6,0.4c-1,0-1.8-0.3-2.4-1s-0.8-1.7-0.8-3.2v-5.5h2.6v5.5
					c0,0.8,0.1,1.4,0.3,1.7c0.2,0.3,0.6,0.5,1.1,0.5c0.4,0,0.8-0.1,1.1-0.2c0.3-0.1,0.5-0.3,0.7-0.6v-6.9h2.6v9.5H237L236.7,129.4z"
					/>
				<path class="st1" d="M243.7,119.1h-2.6v-1.9h2.6V119.1z M243.7,130.9h-2.6v-9.5h2.6V130.9z"/>
				<path class="st1" d="M250.8,123.5l-0.9,0c-0.4,0-0.7,0.1-0.9,0.2s-0.4,0.4-0.6,0.7v6.4h-2.6v-9.5h2.4l0.1,1.4
					c0.2-0.5,0.5-0.9,0.9-1.2s0.8-0.4,1.2-0.4c0.1,0,0.2,0,0.4,0s0.2,0,0.3,0.1L250.8,123.5z"/>
				<path class="st1" d="M263.5,127.5L263.5,127.5l3.3-9.4h3.3v12.8h-2.6v-8.7l-0.1,0l-3.2,8.7h-1.7l-3.2-8.8l-0.1,0v8.8h-2.6v-12.8
					h3.4L263.5,127.5z"/>
				<path class="st1" d="M277.9,130.9c-0.1-0.2-0.2-0.4-0.2-0.7s-0.1-0.5-0.1-0.7c-0.3,0.5-0.6,0.8-1,1.2s-0.9,0.5-1.5,0.5
					c-1,0-1.8-0.3-2.3-0.8s-0.8-1.2-0.8-2.1c0-0.9,0.4-1.7,1.1-2.2c0.7-0.5,1.8-0.8,3.1-0.8h1.4v-0.8c0-0.5-0.1-0.8-0.4-1.1
					s-0.6-0.4-1.1-0.4c-0.4,0-0.7,0.1-1,0.3c-0.2,0.2-0.3,0.5-0.3,0.8h-2.5l0-0.1c0-0.8,0.3-1.5,1-2.1s1.7-0.9,2.9-0.9
					c1.1,0,2.1,0.3,2.8,0.9s1.1,1.4,1.1,2.5v3.9c0,0.4,0,0.9,0.1,1.3s0.2,0.8,0.3,1.2H277.9z M275.6,129.1c0.4,0,0.8-0.1,1.2-0.3
					s0.6-0.5,0.7-0.8v-1.3H276c-0.5,0-1,0.1-1.2,0.4s-0.4,0.6-0.4,1c0,0.3,0.1,0.6,0.3,0.8C274.9,129,275.2,129.1,275.6,129.1z"/>
				<path class="st1" d="M285.1,119v2.3h1.6v1.8h-1.6v4.8c0,0.4,0.1,0.6,0.2,0.8s0.4,0.2,0.6,0.2c0.1,0,0.3,0,0.4,0
					c0.1,0,0.2,0,0.3-0.1l0.2,1.9c-0.3,0.1-0.5,0.2-0.8,0.2c-0.2,0-0.5,0.1-0.8,0.1c-0.9,0-1.6-0.2-2-0.7s-0.7-1.3-0.7-2.3v-4.9
					h-1.4v-1.8h1.4V119H285.1z"/>
				<path class="st1" d="M293.2,123.5l-0.9,0c-0.4,0-0.7,0.1-0.9,0.2s-0.4,0.4-0.6,0.7v6.4h-2.6v-9.5h2.4l0.1,1.4
					c0.2-0.5,0.5-0.9,0.9-1.2s0.8-0.4,1.2-0.4c0.1,0,0.2,0,0.4,0s0.2,0,0.3,0.1L293.2,123.5z"/>
				<path class="st1" d="M297.3,130.9h-2.6v-9.5h2.6V130.9z M296.6,117.5h2.9l0,0.1l-2.4,2.3h-2.2L296.6,117.5z"/>
				<path class="st1" d="M303.5,129.1c0.4,0,0.8-0.1,1.1-0.4s0.4-0.6,0.4-1.1h2.3l0,0.1c0,1-0.3,1.8-1.1,2.4c-0.7,0.6-1.7,1-2.7,1
					c-1.4,0-2.5-0.4-3.3-1.3s-1.2-2-1.2-3.5V126c0-1.4,0.4-2.5,1.1-3.5c0.8-0.9,1.8-1.4,3.2-1.4c1.2,0,2.1,0.3,2.8,1s1.1,1.5,1,2.6
					l0,0.1h-2.3c0-0.5-0.1-0.9-0.4-1.2c-0.3-0.3-0.6-0.5-1.1-0.5c-0.7,0-1.1,0.3-1.4,0.8s-0.4,1.2-0.4,2v0.3c0,0.8,0.1,1.5,0.4,2
					S302.8,129.1,303.5,129.1z"/>
				<path class="st1" d="M314.6,129.4c-0.3,0.5-0.7,0.9-1.1,1.2s-1,0.4-1.6,0.4c-1,0-1.8-0.3-2.4-1s-0.8-1.7-0.8-3.2v-5.5h2.6v5.5
					c0,0.8,0.1,1.4,0.3,1.7c0.2,0.3,0.6,0.5,1.1,0.5c0.4,0,0.8-0.1,1.1-0.2c0.3-0.1,0.5-0.3,0.7-0.6v-6.9h2.6v9.5h-2.1L314.6,129.4z
					"/>
				<path class="st1" d="M321.7,130.9h-2.6v-13.7h2.6V130.9z"/>
				<path class="st1" d="M329.4,130.9c-0.1-0.2-0.2-0.4-0.2-0.7s-0.1-0.5-0.1-0.7c-0.3,0.5-0.6,0.8-1,1.2s-0.9,0.5-1.5,0.5
					c-1,0-1.8-0.3-2.3-0.8s-0.8-1.2-0.8-2.1c0-0.9,0.4-1.7,1.1-2.2c0.7-0.5,1.8-0.8,3.1-0.8h1.4v-0.8c0-0.5-0.1-0.8-0.4-1.1
					s-0.6-0.4-1.1-0.4c-0.4,0-0.7,0.1-1,0.3c-0.2,0.2-0.3,0.5-0.3,0.8h-2.5l0-0.1c0-0.8,0.3-1.5,1-2.1s1.7-0.9,2.9-0.9
					c1.1,0,2.1,0.3,2.8,0.9s1.1,1.4,1.1,2.5v3.9c0,0.4,0,0.9,0.1,1.3s0.2,0.8,0.3,1.2H329.4z M327,129.1c0.4,0,0.8-0.1,1.2-0.3
					s0.6-0.5,0.7-0.8v-1.3h-1.4c-0.5,0-1,0.1-1.2,0.4s-0.4,0.6-0.4,1c0,0.3,0.1,0.6,0.3,0.8C326.4,129,326.7,129.1,327,129.1z"/>
				<path class="st1" d="M337.5,126c0-1.4,0.4-2.6,1.2-3.5c0.8-0.9,1.9-1.4,3.3-1.4c1.4,0,2.5,0.5,3.3,1.4s1.2,2.1,1.2,3.5v0.2
					c0,1.4-0.4,2.6-1.2,3.5s-1.9,1.3-3.3,1.3c-1.4,0-2.5-0.4-3.3-1.3s-1.2-2.1-1.2-3.5V126z M340.1,126.2c0,0.9,0.2,1.6,0.5,2.1
					s0.8,0.8,1.5,0.8c0.7,0,1.1-0.3,1.5-0.8s0.5-1.2,0.5-2.1V126c0-0.8-0.2-1.5-0.5-2.1s-0.8-0.8-1.5-0.8c-0.7,0-1.1,0.3-1.5,0.8
					c-0.3,0.5-0.5,1.2-0.5,2.1V126.2z"/>
				<path class="st1" d="M353.9,129.4c-0.3,0.5-0.7,0.9-1.1,1.2s-1,0.4-1.6,0.4c-1,0-1.8-0.3-2.4-1s-0.8-1.7-0.8-3.2v-5.5h2.6v5.5
					c0,0.8,0.1,1.4,0.3,1.7c0.2,0.3,0.6,0.5,1.1,0.5c0.4,0,0.8-0.1,1.1-0.2c0.3-0.1,0.5-0.3,0.7-0.6v-6.9h2.6v9.5h-2.1L353.9,129.4z
					"/>
				<path class="st1" d="M365.7,130.9h-2.6v-12.8h2.6V130.9z"/>
				<path class="st1" d="M370.4,121.3l0.1,1.3c0.3-0.5,0.7-0.8,1.1-1.1c0.5-0.2,1-0.4,1.6-0.4c0.6,0,1.1,0.1,1.6,0.4s0.8,0.7,1,1.2
					c0.3-0.5,0.7-0.9,1.1-1.2s1-0.4,1.7-0.4c0.9,0,1.7,0.3,2.2,1s0.8,1.7,0.8,3v5.6H379v-5.7c0-0.8-0.1-1.3-0.4-1.6s-0.6-0.4-1-0.4
					c-0.4,0-0.7,0.1-0.9,0.2c-0.3,0.2-0.5,0.4-0.6,0.7c0,0.1,0,0.2,0,0.3c0,0.1,0,0.2,0,0.2v6.2h-2.6v-5.7c0-0.7-0.1-1.3-0.4-1.6
					c-0.2-0.3-0.6-0.5-1.1-0.5c-0.3,0-0.6,0.1-0.9,0.2c-0.3,0.1-0.5,0.3-0.6,0.6v6.9H368v-9.5H370.4z"/>
				<path class="st1" d="M383.2,126c0-1.4,0.4-2.6,1.2-3.5c0.8-0.9,1.9-1.4,3.3-1.4c1.4,0,2.5,0.5,3.3,1.4s1.2,2.1,1.2,3.5v0.2
					c0,1.4-0.4,2.6-1.2,3.5s-1.9,1.3-3.3,1.3c-1.4,0-2.5-0.4-3.3-1.3s-1.2-2.1-1.2-3.5V126z M385.7,126.2c0,0.9,0.2,1.6,0.5,2.1
					s0.8,0.8,1.5,0.8c0.7,0,1.1-0.3,1.5-0.8s0.5-1.2,0.5-2.1V126c0-0.8-0.2-1.5-0.5-2.1s-0.8-0.8-1.5-0.8c-0.7,0-1.1,0.3-1.5,0.8
					c-0.3,0.5-0.5,1.2-0.5,2.1V126.2z M388.2,117.3h2.9l0,0.1l-2.4,2.3h-2.2L388.2,117.3z"/>
				<path class="st1" d="M397,127.3l0.2,0.9h0.1l0.2-0.9l1.6-6h2.7l-3.2,9.5H396l-3.2-9.5h2.7L397,127.3z"/>
				<path class="st1" d="M406.8,131c-1.4,0-2.5-0.4-3.3-1.3c-0.8-0.9-1.2-2-1.2-3.4V126c0-1.4,0.4-2.6,1.2-3.5s1.8-1.4,3.2-1.4
					c1.3,0,2.3,0.4,2.9,1.2c0.7,0.8,1,1.8,1,3.2v1.3h-5.7l0,0.1c0,0.7,0.2,1.2,0.6,1.6s0.9,0.6,1.6,0.6c0.6,0,1.1-0.1,1.5-0.2
					s0.8-0.3,1.2-0.5l0.7,1.6c-0.4,0.3-0.9,0.6-1.5,0.8S407.6,131,406.8,131z M406.6,123.1c-0.5,0-0.9,0.2-1.2,0.5s-0.4,0.8-0.5,1.4
					l0,0h3.1v-0.2c0-0.6-0.1-1-0.3-1.3S407.1,123.1,406.6,123.1z"/>
				<path class="st1" d="M414.8,130.9h-2.6v-13.7h2.6V130.9z"/>
			</g>
		</g>
		<g>
			<g>
				<g>
					<g>
						<path class="st2" d="M83.7,45.8c-0.3-0.4-0.6-0.8-1-1.2l-0.3-0.3c-0.3-0.4-0.3-0.7-0.3-0.9c0.1-0.5,0.2-1.1,0.3-1.6
							c0.3-1.7-0.3-2.8-1.9-3.4c-0.5-0.2-0.9-0.3-1.4-0.5c-0.5-0.2-0.8-0.5-1-1c-0.2-0.6-0.4-1.2-0.7-1.8C77,34,76,33.4,74.8,33.5
							c-0.5,0.1-1,0.1-1.6,0.3c-0.7,0.2-1.3,0.1-1.8-0.5c-0.4-0.4-0.8-0.7-1.2-1c-1.1-0.8-2.2-0.8-3.3,0c-0.4,0.3-0.8,0.6-1.1,0.9
							l-0.4,0.3c-0.4,0.3-0.7,0.3-0.9,0.3c-0.4-0.1-0.8-0.1-1.2-0.2l-0.4-0.1c-1.7-0.3-2.8,0.3-3.4,1.9c-0.2,0.4-0.3,0.9-0.4,1.3
							c-0.2,0.5-0.5,0.9-1,1c-0.6,0.2-1.2,0.4-1.8,0.7c-1.1,0.5-1.7,1.5-1.5,2.7c0.1,0.5,0.1,1,0.3,1.6c0.2,0.7,0.1,1.3-0.5,1.8
							c-0.4,0.4-0.7,0.8-1,1.2c-0.8,1.1-0.8,2.2,0,3.3c0.3,0.4,0.7,0.9,1.2,1.5c0.3,0.4,0.4,0.7,0.3,1.2c-0.1,0.5-0.2,0.9-0.2,1.3
							l-0.1,0.4l0,0.1c-0.1,0.9,0,2.1,1.5,2.8c0.6,0.3,1.3,0.5,1.8,0.7c0.5,0.2,0.8,0.5,1,1c0.2,0.7,0.4,1.2,0.7,1.8
							c0.5,1.1,1.5,1.7,2.7,1.5c0.4-0.1,1-0.1,1.6-0.3c0.7-0.2,1.2-0.1,1.7,0.4c0.4,0.4,0.9,0.8,1.2,1c0.5,0.4,1.1,0.6,1.6,0.6
							c0.6,0,1.1-0.2,1.6-0.6c0.5-0.4,1-0.8,1.4-1.2c0.4-0.3,0.7-0.4,1.2-0.3c0.3,0.1,0.7,0.1,1,0.2l0.4,0.1
							c1.7,0.3,2.8-0.3,3.4-1.9c0.2-0.5,0.3-0.9,0.5-1.4c0.2-0.5,0.5-0.9,1-1c0.6-0.2,1.2-0.4,1.8-0.7c1.1-0.5,1.6-1.5,1.5-2.6
							c-0.1-0.5-0.1-1-0.3-1.6c-0.2-0.7-0.1-1.3,0.5-1.8c0.4-0.4,0.8-0.9,1-1.2C84.5,48,84.5,46.9,83.7,45.8z M82,47.8
							c-0.2,0.3-0.5,0.7-0.8,1c-1,1-1.4,2.3-1,3.8c0.1,0.4,0.2,0.9,0.2,1.3c0,0.3-0.1,0.4-0.3,0.5c-0.5,0.2-1,0.4-1.6,0.6
							c-1.2,0.4-2.1,1.2-2.4,2.4c-0.1,0.4-0.3,0.8-0.4,1.2c-0.3,0.6-0.4,0.7-1.1,0.6l-0.4-0.1C74,59.1,73.7,59,73.4,59
							c-1.1-0.3-2.2,0-3.1,0.8c-0.4,0.3-0.8,0.7-1.3,1.1c-0.3,0.3-0.5,0.3-0.8,0c-0.4-0.3-0.7-0.6-1-0.8c-0.8-0.8-1.6-1.1-2.6-1.1
							c-0.4,0-0.7,0-1.1,0.1c-0.5,0.1-1,0.2-1.3,0.2c-0.3,0-0.4-0.1-0.5-0.3c-0.2-0.5-0.4-1-0.6-1.6c-0.4-1.2-1.2-2-2.4-2.4
							c-0.5-0.2-1.1-0.4-1.6-0.6c-0.2-0.1-0.3-0.1-0.3-0.7l0.1-0.3c0.1-0.3,0.1-0.8,0.2-1.2c0.2-1.1,0-2.2-0.8-3
							c-0.5-0.5-0.8-0.9-1.1-1.3c-0.2-0.3-0.2-0.4,0-0.8c0.2-0.3,0.5-0.7,0.8-0.9c1.1-1.1,1.4-2.4,1-3.9c-0.1-0.4-0.2-0.8-0.2-1.3
							c0-0.3,0.1-0.4,0.3-0.5c0.5-0.2,1-0.4,1.5-0.6c1.2-0.4,2.1-1.2,2.4-2.4c0.1-0.4,0.3-0.8,0.4-1.2c0.3-0.7,0.4-0.7,1.1-0.6
							l0.4,0.1c0.4,0.1,0.8,0.2,1.2,0.2c0.9,0.2,1.8-0.1,2.6-0.8l0.4-0.3c0.4-0.3,0.7-0.6,1-0.8c0.3-0.2,0.4-0.3,0.8,0
							c0.3,0.2,0.7,0.5,0.9,0.8c1,1.1,2.3,1.4,3.8,1c0.4-0.1,0.8-0.2,1.3-0.2c0.3,0,0.4,0.1,0.5,0.3c0.2,0.5,0.4,1,0.6,1.6
							c0.4,1.2,1.2,2,2.4,2.4c0.4,0.1,0.8,0.2,1.2,0.4c0.7,0.3,0.7,0.4,0.6,1.1c-0.1,0.5-0.2,1.1-0.3,1.6c-0.2,0.9,0.1,1.8,0.8,2.6
							l0.3,0.3c0.3,0.4,0.6,0.7,0.9,1.1C82.3,47.4,82.3,47.5,82,47.8z"/>
					</g>
					<path class="st2" d="M74.2,40.8c-2.7,2.6-5.4,5.3-8.1,8c-1-1-2-1.9-2.9-2.9c-0.9,0.9-1.9,1.8-2.8,2.8c1.9,1.9,3.8,3.7,5.6,5.5
						c3.6-3.5,7.3-7.1,10.9-10.7C75.9,42.5,75.1,41.6,74.2,40.8z"/>
				</g>
				<g>
					<path class="st2" d="M53.4,29.9h3.4v2.4h-3.4v3.9h-2.6v-3.9h-3.4v-2.4h3.4v-3.7h2.6V29.9z"/>
				</g>
			</g>
			<g>
				<g id="UKOZUL_26_">
					<g>
						<path class="st2" d="M303.9,38.4c-1,3-2,6-3,9c-0.6,1.8-1.3,3.6-2.1,5.3c-0.5,1-1.1,1.9-1.9,2.7c-1.3,1.5-4.2,2.4-6.5,1.3
							c-2.6-1.3-5.3-2.4-8-3.6c-1.9-0.9-2.8-2.4-2.7-4.5c0-0.5,0.1-1,0.1-1.5c0.5,0.2,1,0.4,1.4,0.6c2.9,1.2,5.9,2.4,8.8,3.6
							c0.4,0.1,0.5,0.3,0.5,0.7c0,0.6,0.1,1.1,0.3,1.7c0.4,1.2,1.4,1.8,2.7,1.5c1.4-0.3,2.5-1.2,3.1-2.5c0.8-1.6,1.5-3.2,2.1-4.8
							c1-2.8,1.9-5.6,2.9-8.5c0-0.1,0.1-0.2,0.1-0.4c-0.4-0.1-0.9-0.2-1.3-0.3c-3.4-0.7-6.8-1.3-10.2-2c-0.4-0.1-0.6,0-0.7,0.4
							c-1,2.9-2.1,5.8-3.2,8.7c-0.1,0.3-0.2,0.5-0.3,0.7c-0.2,0.5-0.7,0.7-1.1,0.5c-0.4-0.2-0.7-0.7-0.5-1.1
							c0.2-0.7,0.5-1.4,0.7-2.1c1-2.8,2-5.5,3-8.2c0.3-1,0.5-1.1,1.5-0.9c4.3,0.9,8.7,1.7,13,2.6c0.5,0.1,1.1,0.2,1.2,0.9
							C303.9,38.3,303.9,38.3,303.9,38.4z"/>
					</g>
				</g>
				<g>
					<path class="st2" d="M282.9,34.6h2.7v1.9h-2.7v3.1h-2.1v-3.1h-2.7v-1.9h2.7v-2.9h2.1V34.6z"/>
				</g>
			</g>
			<g>
				<g>
					<path class="st2" d="M315.6,34.6h2.7v1.9h-2.7v3.1h-2.1v-3.1h-2.7v-1.9h2.7v-2.9h2.1V34.6z"/>
				</g>
				<g id="nb1dj5_8_">
					<g>
						<path class="st2" d="M337.4,45.3c-0.3,0.4-0.7,0.8-1,1.2c-0.3,0.4-0.6,0.4-1,0.1c-2.8-2.4-5.6-4.7-8.5-7.1
							c-0.7-0.6-1.4-1.1-2.1-1.7c-1,0.8-1.9,1.6-2.8,2.4c-2.5,2.1-5.1,4.2-7.6,6.3c-0.6,0.5-0.7,0.5-1.2-0.1
							c-0.2-0.2-0.3-0.4-0.5-0.6c-0.5-0.6-0.5-0.7,0.1-1.3c3.5-2.9,7.1-5.9,10.6-8.8c0.9-0.8,1.8-0.8,2.8,0c1.1,1,2.3,1.9,3.6,3
							c0-0.8,0-1.4,0-2c0-1.6-0.1-1.5,1.5-1.5c0.6,0,1.1,0,1.7,0c0.6,0,0.7,0.1,0.7,0.8c0,1.8,0,3.6,0,5.4c0,0.5,0.1,0.8,0.5,1.1
							c0.9,0.7,1.8,1.5,2.7,2.2c0.2,0.1,0.3,0.3,0.5,0.5C337.4,45.2,337.4,45.2,337.4,45.3z"/>
						<path class="st2" d="M322.9,55c-1.4,0-2.7,0-4,0c-0.6,0-1.3,0-1.9,0c-0.6,0-0.9-0.3-1-0.9c0-2.4,0-4.8,0-7.2
							c0-0.2,0.1-0.4,0.2-0.5c2.9-2.4,5.8-4.8,8.7-7.2c1.5,1.2,3,2.5,4.5,3.7c1.3,1.1,2.7,2.2,4,3.3c0.2,0.2,0.4,0.5,0.4,0.8
							c0,2.3,0,4.5,0,6.8c0,0.9-0.3,1.2-1.2,1.2c-1.9,0-3.7,0-5.7,0c0-2,0-3.9,0-5.9c-1.3,0-2.6,0-3.9,0C322.9,51,322.9,53,322.9,55
							z"/>
					</g>
				</g>
			</g>
		</g>
	</g>
</g>
</svg>
