<?xml version="1.0" encoding="utf-8"?>
<!-- Generator: Adobe Illustrator 22.1.0, SVG Export Plug-In . SVG Version: 6.00 Build 0)  -->
<svg version="1.1" id="Camada_1" xmlns="http://www.w3.org/2000/svg" xmlns:xlink="http://www.w3.org/1999/xlink" x="0px" y="0px"
	 viewBox="0 0 350 140" style="enable-background:new 0 0 350 140;" xml:space="preserve">
<style type="text/css">
	.st0{fill:url(#SVGID_1_);}
	.st1{fill:#FFFFFF;}
	.st2{fill:#0C3C53;}
	.st3{fill:url(#SVGID_2_);}
	.st4{fill:url(#SVGID_3_);}
</style>
<g>
	
		<linearGradient id="SVGID_1_" gradientUnits="userSpaceOnUse" x1="36.8239" y1="100.3" x2="347.5239" y2="100.3" gradientTransform="matrix(1 0 0 -1 0 142.5)">
		<stop  offset="8.667234e-02" style="stop-color:#25586D"/>
		<stop  offset="0.5502" style="stop-color:#003E51;stop-opacity:0.9"/>
		<stop  offset="1" style="stop-color:#00586D"/>
	</linearGradient>
	<path class="st0" d="M312.5,7.3c-17.6,0-32.2,13-34.6,30h-92.5h0v9.9h0h15.9h76.6c2.4,16.9,17,30,34.6,30c19.3,0,35-15.7,35-35
		S331.8,7.3,312.5,7.3z"/>
	<g>
		<path class="st1" d="M323.5,21.8c-3.6,0-6.5,2.9-6.5,6.5c0,1,0.2,1.9,0.6,2.7l5.9,11.6l5.9-11.6c0.4-0.8,0.6-1.8,0.6-2.7
			C330,24.7,327.1,21.8,323.5,21.8z M323.5,32.3c-2.2,0-3.9-1.8-3.9-3.9s1.8-3.9,3.9-3.9c2.2,0,3.9,1.8,3.9,3.9
			S325.7,32.3,323.5,32.3z M325.5,44.6l2.4,4.8l-6,3l-2-10.1l0.3-0.3l0,0l-1.2-2.5l-0.6,0.6l-7.8-5.2l-7.8,5.2l-5.2-5.2l-7.8,15.7
			l10.5,5.2l10.5-5.2l10.5,5.2l10.5-5.2l-4.4-8.8L325.5,44.6z M299,52.4l-6-3l5.1-10.1l2.7,2.7l0.3,0.3L299,52.4z M309.1,48.3
			l-7.3,3.7l1.9-9.4l0.3-0.2l5.1-3.4V48.3z M311.7,48.3v-9.4l5.1,3.4l0.3,0.2l1.9,9.4L311.7,48.3z"/>
	</g>
	<g>
		<g>
			<path class="st2" d="M296.6,125.7L296.6,125.7l3.3-9.4h3.3v12.8h-2.6v-8.7h-0.1l-3.2,8.7h-1.7l-3.2-8.8h-0.1v8.8h-2.6v-12.8h3.4
				L296.6,125.7z"/>
			<path class="st2" d="M311.1,129.1c-0.1-0.2-0.2-0.4-0.2-0.7s-0.1-0.5-0.1-0.7c-0.3,0.5-0.6,0.8-1,1.2s-0.9,0.5-1.5,0.5
				c-1,0-1.8-0.3-2.3-0.8s-0.8-1.2-0.8-2.1s0.4-1.7,1.1-2.2s1.8-0.8,3.1-0.8h1.4v-0.8c0-0.5-0.1-0.8-0.4-1.1s-0.6-0.4-1.1-0.4
				c-0.4,0-0.7,0.1-1,0.3c-0.2,0.2-0.3,0.5-0.3,0.8h-2.5v-0.1c0-0.8,0.3-1.5,1.1-2.1s1.7-0.9,2.9-0.9c1.1,0,2.1,0.3,2.8,0.9
				s1.1,1.4,1.1,2.5v3.9c0,0.4,0,0.9,0.1,1.3c0.1,0.4,0.2,0.8,0.3,1.2L311.1,129.1L311.1,129.1z M308.7,127.4c0.4,0,0.8-0.1,1.2-0.3
				s0.6-0.5,0.7-0.8v-1.4h-1.4c-0.5,0-1,0.1-1.2,0.4s-0.4,0.6-0.4,1c0,0.3,0.1,0.6,0.3,0.8C308.1,127.3,308.4,127.4,308.7,127.4z"/>
			<path class="st2" d="M323.7,124.6c0,1.4-0.3,2.5-1,3.4s-1.6,1.3-2.7,1.3c-0.5,0-0.9-0.1-1.3-0.3s-0.7-0.5-1-0.8v4.6h-2.6v-13.2
				h2.3l0.1,1.1c0.3-0.4,0.6-0.7,1-1c0.4-0.2,0.9-0.3,1.4-0.3c1.2,0,2.1,0.5,2.7,1.4s1,2.1,1,3.6v0.2H323.7z M321.1,124.4
				c0-0.9-0.1-1.6-0.4-2.2s-0.8-0.8-1.4-0.8c-0.4,0-0.7,0.1-1,0.2s-0.5,0.4-0.6,0.7v4.2c0.2,0.3,0.4,0.5,0.6,0.6s0.6,0.2,1,0.2
				c0.6,0,1.1-0.2,1.4-0.7s0.4-1.1,0.4-2V124.4z"/>
			<path class="st2" d="M330.9,129.1c-0.1-0.2-0.2-0.4-0.2-0.7s-0.1-0.5-0.1-0.7c-0.3,0.5-0.6,0.8-1,1.2s-0.9,0.5-1.5,0.5
				c-1,0-1.8-0.3-2.3-0.8s-0.8-1.2-0.8-2.1s0.4-1.7,1.1-2.2s1.8-0.8,3.1-0.8h1.4v-0.8c0-0.5-0.1-0.8-0.4-1.1s-0.6-0.4-1.1-0.4
				c-0.4,0-0.7,0.1-1,0.3c-0.2,0.2-0.3,0.5-0.3,0.8h-2.5v-0.1c0-0.8,0.3-1.5,1.1-2.1s1.7-0.9,2.9-0.9c1.1,0,2.1,0.3,2.8,0.9
				s1.1,1.4,1.1,2.5v3.9c0,0.4,0,0.9,0.1,1.3c0.1,0.4,0.2,0.8,0.3,1.2L330.9,129.1L330.9,129.1z M328.6,127.4c0.4,0,0.8-0.1,1.2-0.3
				s0.6-0.5,0.7-0.8v-1.4h-1.4c-0.5,0-1,0.1-1.2,0.4s-0.4,0.6-0.4,1c0,0.3,0.1,0.6,0.3,0.8C327.9,127.3,328.2,127.4,328.6,127.4z"/>
		</g>
	</g>
	<g>
		<path class="st2" d="M5,129H2.5v-12.8H5V129z"/>
		<path class="st2" d="M9.7,119.4l0.1,1.4c0.3-0.5,0.7-0.9,1.2-1.1s1-0.4,1.6-0.4c1,0,1.7,0.3,2.2,0.9s0.8,1.6,0.8,2.9v5.8h-2.6
			v-5.8c0-0.7-0.1-1.2-0.4-1.4s-0.6-0.4-1.1-0.4c-0.4,0-0.7,0.1-1,0.2s-0.5,0.3-0.7,0.6v6.9H7.3v-9.5H9.7z"/>
		<path class="st2" d="M21.5,127.2c0.4,0,0.8-0.1,1.1-0.4s0.4-0.6,0.4-1.1h2.3l0,0.1c0,1-0.3,1.8-1.1,2.4c-0.7,0.6-1.7,1-2.7,1
			c-1.4,0-2.5-0.4-3.3-1.3s-1.2-2-1.2-3.5v-0.3c0-1.4,0.4-2.5,1.1-3.5c0.8-0.9,1.8-1.4,3.2-1.4c1.2,0,2.1,0.3,2.8,1s1.1,1.5,1,2.6
			l0,0.1H23c0-0.5-0.1-0.9-0.4-1.2c-0.3-0.3-0.6-0.5-1.1-0.5c-0.7,0-1.1,0.3-1.4,0.8s-0.4,1.2-0.4,2v0.3c0,0.8,0.1,1.5,0.4,2
			S20.8,127.2,21.5,127.2z"/>
		<path class="st2" d="M29.5,129H27v-13.7h2.6V129z"/>
		<path class="st2" d="M37.5,127.5c-0.3,0.5-0.7,0.9-1.1,1.2s-1,0.4-1.6,0.4c-1,0-1.8-0.3-2.4-1c-0.6-0.7-0.8-1.7-0.8-3.2v-5.5h2.6
			v5.5c0,0.8,0.1,1.4,0.3,1.7c0.2,0.3,0.6,0.5,1.1,0.5c0.4,0,0.8-0.1,1.1-0.2c0.3-0.1,0.5-0.3,0.7-0.6v-6.9h2.6v9.5h-2.1L37.5,127.5
			z"/>
		<path class="st2" d="M44.5,117.2h-2.6v-1.9h2.6V117.2z M44.5,129h-2.6v-9.5h2.6V129z"/>
		<path class="st2" d="M51.6,121.6l-0.9,0c-0.4,0-0.7,0.1-0.9,0.2s-0.4,0.4-0.6,0.7v6.4h-2.6v-9.5H49l0.1,1.4
			c0.2-0.5,0.5-0.9,0.9-1.2c0.4-0.3,0.8-0.4,1.2-0.4c0.1,0,0.2,0,0.4,0c0.1,0,0.2,0,0.3,0.1L51.6,121.6z"/>
		<path class="st2" d="M64.2,125.6L64.2,125.6l3.3-9.4h3.3V129h-2.6v-8.7l-0.1,0l-3.2,8.7h-1.7l-3.2-8.8l-0.1,0v8.8h-2.6v-12.8H61
			L64.2,125.6z"/>
		<path class="st2" d="M78.7,129c-0.1-0.2-0.2-0.4-0.2-0.7s-0.1-0.5-0.1-0.7c-0.3,0.5-0.6,0.8-1,1.2s-0.9,0.5-1.5,0.5
			c-1,0-1.8-0.3-2.3-0.8s-0.8-1.2-0.8-2.1c0-0.9,0.4-1.7,1.1-2.2c0.7-0.5,1.8-0.8,3.1-0.8h1.4v-0.8c0-0.5-0.1-0.8-0.4-1.1
			s-0.6-0.4-1.1-0.4c-0.4,0-0.7,0.1-1,0.3c-0.2,0.2-0.3,0.5-0.3,0.8h-2.5l0-0.1c0-0.8,0.3-1.5,1.1-2.1s1.7-0.9,2.9-0.9
			c1.1,0,2.1,0.3,2.8,0.9s1.1,1.4,1.1,2.5v3.9c0,0.4,0,0.9,0.1,1.3s0.2,0.8,0.3,1.2H78.7z M76.3,127.2c0.4,0,0.8-0.1,1.2-0.3
			s0.6-0.5,0.7-0.8v-1.3h-1.4c-0.5,0-1,0.1-1.2,0.4s-0.4,0.6-0.4,1c0,0.3,0.1,0.6,0.3,0.8C75.7,127.1,76,127.2,76.3,127.2z"/>
		<path class="st2" d="M85.8,117.1v2.3h1.6v1.8h-1.6v4.8c0,0.4,0.1,0.6,0.2,0.8s0.4,0.2,0.6,0.2c0.1,0,0.3,0,0.4,0
			c0.1,0,0.2,0,0.3-0.1l0.2,1.9c-0.3,0.1-0.5,0.2-0.8,0.2c-0.2,0-0.5,0.1-0.8,0.1c-0.9,0-1.6-0.2-2-0.7s-0.7-1.3-0.7-2.3v-4.9h-1.4
			v-1.8h1.4v-2.3H85.8z"/>
		<path class="st2" d="M94,121.6l-0.9,0c-0.4,0-0.7,0.1-0.9,0.2s-0.4,0.4-0.6,0.7v6.4H89v-9.5h2.4l0.1,1.4c0.2-0.5,0.5-0.9,0.9-1.2
			c0.4-0.3,0.8-0.4,1.2-0.4c0.1,0,0.2,0,0.4,0c0.1,0,0.2,0,0.3,0.1L94,121.6z"/>
		<path class="st2" d="M98.1,129h-2.6v-9.5h2.6V129z M97.3,115.6h2.9l0,0.1l-2.4,2.3h-2.2L97.3,115.6z"/>
		<path class="st2" d="M104.3,127.2c0.4,0,0.8-0.1,1.1-0.4s0.4-0.6,0.4-1.1h2.3l0,0.1c0,1-0.3,1.8-1.1,2.4c-0.7,0.6-1.7,1-2.7,1
			c-1.4,0-2.5-0.4-3.3-1.3s-1.2-2-1.2-3.5v-0.3c0-1.4,0.4-2.5,1.1-3.5c0.8-0.9,1.8-1.4,3.2-1.4c1.2,0,2.1,0.3,2.8,1s1.1,1.5,1,2.6
			l0,0.1h-2.3c0-0.5-0.1-0.9-0.4-1.2c-0.3-0.3-0.6-0.5-1.1-0.5c-0.7,0-1.1,0.3-1.4,0.8s-0.4,1.2-0.4,2v0.3c0,0.8,0.1,1.5,0.4,2
			S103.6,127.2,104.3,127.2z"/>
		<path class="st2" d="M115.4,127.5c-0.3,0.5-0.7,0.9-1.1,1.2s-1,0.4-1.6,0.4c-1,0-1.8-0.3-2.4-1s-0.8-1.7-0.8-3.2v-5.5h2.6v5.5
			c0,0.8,0.1,1.4,0.3,1.7c0.2,0.3,0.6,0.5,1.1,0.5c0.4,0,0.8-0.1,1.1-0.2c0.3-0.1,0.5-0.3,0.7-0.6v-6.9h2.6v9.5h-2.1L115.4,127.5z"
			/>
		<path class="st2" d="M122.4,129h-2.6v-13.7h2.6V129z"/>
		<path class="st2" d="M130.2,129c-0.1-0.2-0.2-0.4-0.2-0.7s-0.1-0.5-0.1-0.7c-0.3,0.5-0.6,0.8-1,1.2s-0.9,0.5-1.5,0.5
			c-1,0-1.8-0.3-2.3-0.8s-0.8-1.2-0.8-2.1c0-0.9,0.4-1.7,1.1-2.2c0.7-0.5,1.8-0.8,3.1-0.8h1.4v-0.8c0-0.5-0.1-0.8-0.4-1.1
			s-0.6-0.4-1.1-0.4c-0.4,0-0.7,0.1-1,0.3c-0.2,0.2-0.3,0.5-0.3,0.8h-2.5l0-0.1c0-0.8,0.3-1.5,1.1-2.1s1.7-0.9,2.9-0.9
			c1.1,0,2.1,0.3,2.8,0.9s1.1,1.4,1.1,2.5v3.9c0,0.4,0,0.9,0.1,1.3s0.2,0.8,0.3,1.2H130.2z M127.8,127.2c0.4,0,0.8-0.1,1.2-0.3
			s0.6-0.5,0.7-0.8v-1.3h-1.4c-0.5,0-1,0.1-1.2,0.4s-0.4,0.6-0.4,1c0,0.3,0.1,0.6,0.3,0.8C127.2,127.1,127.4,127.2,127.8,127.2z"/>
		<path class="st2" d="M139.4,126.3c0-0.3-0.1-0.5-0.4-0.7c-0.3-0.2-0.8-0.4-1.5-0.5c-1.1-0.2-2-0.6-2.5-1s-0.9-1.1-0.9-1.8
			c0-0.8,0.3-1.5,1-2.1s1.6-0.9,2.8-0.9c1.2,0,2.2,0.3,2.9,0.9s1.1,1.3,1,2.1l0,0.1h-2.5c0-0.4-0.1-0.7-0.4-0.9s-0.6-0.4-1.1-0.4
			c-0.4,0-0.7,0.1-1,0.3s-0.4,0.5-0.4,0.8c0,0.3,0.1,0.5,0.4,0.7c0.2,0.2,0.8,0.3,1.5,0.5c1.2,0.2,2,0.6,2.6,1s0.9,1.1,0.9,1.9
			c0,0.9-0.4,1.6-1.1,2.1s-1.7,0.8-2.9,0.8c-1.3,0-2.3-0.3-3-1c-0.7-0.6-1.1-1.4-1.1-2.2l0-0.1h2.3c0,0.5,0.2,0.9,0.5,1.1
			s0.7,0.3,1.2,0.3c0.5,0,0.8-0.1,1.1-0.3C139.2,126.9,139.4,126.6,139.4,126.3z"/>
	</g>
	<linearGradient id="SVGID_2_" gradientUnits="userSpaceOnUse" x1="36.8103" y1="42.206" x2="825.8101" y2="42.206">
		<stop  offset="0" style="stop-color:#63BD58"/>
		<stop  offset="0.6873" style="stop-color:#61D258"/>
	</linearGradient>
	<path class="st3" d="M106.4,37.2C106.4,37.2,106.4,37.2,106.4,37.2L106.4,37.2C104,21,90.6,8.4,74.1,7.3c-0.8-0.1-1.5-0.1-2.3-0.1
		c-19.3,0-35,15.7-35,35c0,18.7,14.7,34,33.2,34.9c0.6,0,1.2,0,1.8,0c17.6,0,32.2-13,34.6-30h79v-10H106.4z"/>
	<g>
		<linearGradient id="SVGID_3_" gradientUnits="userSpaceOnUse" x1="61.5705" y1="93.7507" x2="82.276" y2="93.7507">
			<stop  offset="0" style="stop-color:#63BD58"/>
			<stop  offset="0.6873" style="stop-color:#61D258"/>
		</linearGradient>
		<path class="st4" d="M78.9,85.4c-3.4,3.3-6.8,6.7-10.2,10c-1.2-1.2-2.5-2.4-3.7-3.7c-1.2,1.2-2.3,2.3-3.5,3.5
			c2.4,2.3,4.8,4.7,7,6.9c4.5-4.5,9.1-9,13.7-13.4C81.1,87.6,80,86.5,78.9,85.4z"/>
	</g>
	<g>
		<g id="UKOZUL_31_">
			<g>
				<path class="st1" d="M88.2,34.5c-1.3,3.8-2.5,7.7-3.8,11.5c-0.8,2.3-1.7,4.6-2.7,6.8c-0.6,1.2-1.5,2.4-2.4,3.4
					c-1.7,1.9-5.4,3.1-8.3,1.7c-3.4-1.6-6.8-3.1-10.2-4.6c-2.5-1.1-3.6-3-3.5-5.7c0-0.6,0.1-1.2,0.2-1.9c0.7,0.3,1.3,0.5,1.8,0.7
					c3.7,1.5,7.5,3,11.3,4.5c0.5,0.2,0.6,0.4,0.6,0.9c0,0.7,0.1,1.5,0.4,2.2c0.5,1.6,1.8,2.3,3.4,2c1.8-0.4,3.1-1.6,4-3.2
					c1-2,1.9-4.1,2.7-6.2c1.3-3.6,2.5-7.2,3.7-10.8c0.1-0.1,0.1-0.3,0.1-0.6c-0.6-0.1-1.1-0.2-1.7-0.3c-4.3-0.9-8.7-1.7-13-2.6
					c-0.6-0.1-0.8,0.1-0.9,0.6c-1.3,3.7-2.7,7.4-4,11.1c-0.1,0.3-0.2,0.6-0.4,1c-0.3,0.6-0.9,0.9-1.5,0.6c-0.5-0.2-0.8-0.8-0.7-1.4
					c0.3-0.9,0.6-1.8,0.9-2.7c1.3-3.5,2.6-7,3.9-10.6c0.4-1.2,0.7-1.4,1.9-1.1c5.6,1.1,11.1,2.2,16.7,3.3c0.7,0.1,1.4,0.3,1.6,1.1
					C88.2,34.3,88.2,34.4,88.2,34.5z"/>
			</g>
		</g>
		<g>
			<path class="st1" d="M61.2,29.6h3.4V32h-3.4v3.9h-2.6V32h-3.4v-2.4h3.4v-3.7h2.6V29.6z"/>
		</g>
	</g>
</g>
</svg>
