<?xml version="1.0" encoding="utf-8"?>
<!-- Generator: Adobe Illustrator 22.1.0, SVG Export Plug-In . SVG Version: 6.00 Build 0)  -->
<svg version="1.1" id="Capa_1" xmlns="http://www.w3.org/2000/svg" xmlns:xlink="http://www.w3.org/1999/xlink" x="0px" y="0px"
	 viewBox="0 0 26 26" style="enable-background:new 0 0 26 26;" xml:space="preserve">
<style type="text/css">
	.st0{fill:#FFFFFF;}
</style>
<g>
	<g>
		<path class="st0" d="M13,26C5.8,26,0,20.2,0,13S5.8,0,13,0s13,5.8,13,13S20.2,26,13,26z M13,1C6.4,1,1,6.4,1,13s5.4,12,12,12
			s12-5.4,12-12S19.6,1,13,1z"/>
	</g>
	<path class="st0" d="M7.1,12.4l-0.5,0.5c-0.5,0.5-0.5,1.2,0,1.7l3.7,3.8c0.5,0.5,1.2,0.5,1.7,0l8.3-8.3c0.5-0.5,0.5-1.2,0-1.6
		l-0.5-0.6c-0.5-0.5-1.2-0.5-1.7,0l-6.9,7l-2.4-2.4C8.3,11.9,7.6,11.9,7.1,12.4z"/>
</g>
</svg>
