<?xml version="1.0" encoding="utf-8"?>
<!-- Generator: Adobe Illustrator 22.1.0, SVG Export Plug-In . SVG Version: 6.00 Build 0)  -->
<svg version="1.1" id="Capa_1" xmlns="http://www.w3.org/2000/svg" xmlns:xlink="http://www.w3.org/1999/xlink" x="0px" y="0px"
	 viewBox="0 0 56.2 56.2" style="enable-background:new 0 0 56.2 56.2;" xml:space="preserve">
<style type="text/css">
	.st0{fill:#FFFFFF;}
	.st1{clip-path:url(#SVGID_4_);}
	.st2{clip-path:url(#SVGID_6_);fill:#FFFFFF;}
</style>
<g>
	<g id="wAdd4e.tif_8_">
		<g>
			<g>
				<path class="st0" d="M8.4,25.7c0-0.3,0.1-0.7,0.1-1c0.1-0.8,0.3-1.5,0.8-2.2c0.5-0.6,1.1-0.9,1.8-1.1c0.6-0.2,1.3-0.3,1.9-0.5
					c0.1,0,0.3,0,0.4,0.1c0.6,0.7,2,0.6,2.6,0.2c0.1,0,0.1-0.1,0.2-0.2c0.1-0.2,0.2-0.2,0.4-0.1c0.9,0.1,1.8,0.3,2.6,0.8
					c1.1,0.5,1.7,1.4,1.9,2.6c0,0.2,0.1,0.3,0.1,0.5c0,0.1,0,0.2-0.1,0.2c-0.5,0.2-1,0.4-1.5,0.7c-1.1,0.6-1.8,1.6-2.3,2.8
					c-0.1,0.2-0.2,0.5-0.2,0.7s-0.1,0.3-0.3,0.3c-0.4,0-0.9,0.1-1.3,0.1c-1.2,0-2.4,0-3.6-0.2c-1-0.2-2.1-0.5-2.9-1.2
					c-0.2-0.2-0.4-0.3-0.6-0.5C8.4,27,8.4,26.3,8.4,25.7z"/>
				<path class="st0" d="M44.7,27.7c-0.1,0-0.1,0.1-0.2,0.1c-0.7,0.8-1.6,1.1-2.6,1.4c-1.3,0.3-2.5,0.4-3.8,0.4c-0.4,0-0.9,0-1.3,0
					c0-0.2-0.1-0.3-0.1-0.5c-0.5-2.1-1.8-3.4-3.8-4c-0.2-0.1-0.4-0.1-0.6-0.2C32,24.8,32,24.7,32,24.4c0.3-1.3,0.9-2.3,2.3-2.8
					c0.7-0.3,1.5-0.5,2.2-0.6c0.2,0,0.3,0,0.5,0.2c0.2,0.3,0.6,0.4,0.9,0.4c0.3,0,0.7,0,1,0s0.6-0.2,0.8-0.5c0-0.1,0.1-0.1,0.2-0.1
					c0.8,0.2,1.6,0.3,2.4,0.6c1.3,0.5,2,1.5,2.2,2.9c0.1,0.7,0.1,1.5,0.2,2.3c0,0.1,0,0.3,0,0.4C44.7,27.4,44.7,27.5,44.7,27.7z"/>
				<path class="st0" d="M38.6,12c0.3,0,0.5,0.1,0.8,0.1c1.2,0.3,2,1.1,2.3,2.3c0.1,0.3,0.1,0.5,0.1,0.8c0.1,0.8,0.1,1.6-0.1,2.3
					c-0.2,0.9-0.7,1.7-1.4,2.3c-1.4,1.2-3.3,1-4.6-0.4c-0.6-0.7-0.9-1.5-1.1-2.4c-0.1-1-0.1-1.9,0.2-2.9c0.4-1.2,1.2-1.9,2.4-2.1
					c0.2,0,0.5-0.1,0.7-0.1C38.2,12,38.4,12,38.6,12z"/>
				<path class="st0" d="M26.7,37.4c-1.1-0.1-2.1-0.1-3.2-0.2c-1.5-0.2-3-0.6-4.3-1.5c-0.3-0.2-0.5-0.5-0.8-0.7
					c-0.2-0.2-0.3-0.5-0.3-0.8c0-1.6,0.1-3.1,0.4-4.7c0.3-1.4,1.2-2.3,2.5-2.9c1.1-0.5,2.3-0.8,3.5-1c0.1,0,0.2,0,0.3,0.1
					c0.1,0.1,0.3,0.2,0.4,0.3c0.3,0.3,0.7,0.5,1.2,0.5c0.4,0,0.8,0,1.1,0c0.5,0,0.9-0.3,1.2-0.7c0.2-0.2,0.3-0.2,0.5-0.2
					c1,0.2,2,0.4,2.9,0.8c1.8,0.7,2.8,2,3.1,3.9c0.2,1.2,0.3,2.5,0.3,3.7c0,0.6-0.3,1-0.7,1.4c-0.7,0.7-1.6,1-2.5,1.3
					c-1.6,0.5-3.2,0.7-4.8,0.7C27.3,37.4,27,37.4,26.7,37.4L26.7,37.4z"/>
				<path class="st0" d="M26.7,13.6c0.9,0,1.6,0,2.3,0.3c1.3,0.5,2.1,1.4,2.5,2.7c0.2,0.5,0.2,1.1,0.3,1.6c0.1,0.9,0.1,1.7-0.1,2.6
					c-0.3,1.4-1,2.6-2.1,3.5c-1.8,1.3-4.1,1.2-5.7-0.4c-1.1-1.1-1.7-2.4-1.8-3.9c-0.1-1.1-0.1-2.2,0.2-3.3c0.3-1,0.8-1.9,1.7-2.5
					c0.6-0.4,1.3-0.6,2-0.7C26.2,13.6,26.5,13.6,26.7,13.6z"/>
				<path class="st0" d="M18.5,16.1c0,1.2-0.3,2.2-1,3.1c-0.8,0.9-1.7,1.5-3,1.4c-0.9-0.1-1.6-0.5-2.2-1.2c-0.6-0.7-0.9-1.5-1-2.3
					c-0.1-0.9-0.1-1.8,0.1-2.7c0.4-1.4,1.2-2.1,2.6-2.3c0.7-0.1,1.3-0.1,1.9,0.1c1.3,0.3,2,1.1,2.3,2.3
					C18.4,14.9,18.5,15.5,18.5,16.1L18.5,16.1z"/>
			</g>
		</g>
	</g>
	<path class="st0" d="M43.6,56.1h-31c-6.9,0-12.5-5.6-12.5-12.5v-31c0-6.9,5.6-12.5,12.5-12.5h31.1c6.9,0,12.5,5.6,12.5,12.5v31.1
		C56.1,50.5,50.5,56.1,43.6,56.1z M12.6,1.1C6.2,1.1,1.1,6.2,1.1,12.6v31.1c0,6.3,5.1,11.5,11.5,11.5h31.1c6.3,0,11.5-5.1,11.5-11.5
		V12.6c0-6.3-5.1-11.5-11.5-11.5C43.7,1.1,12.6,1.1,12.6,1.1z"/>
	<path class="st0" d="M43.8,53.1H12.4c-5.2,0-9.4-4.2-9.4-9.4V12.4C3,7.2,7.2,3,12.4,3h31.4c5.2,0,9.4,4.2,9.4,9.4v31.4
		C53.1,48.9,48.9,53.1,43.8,53.1z M12.4,3.8c-4.7,0-8.6,3.9-8.6,8.6v31.4c0,4.7,3.9,8.6,8.6,8.6h31.4c4.7,0,8.6-3.9,8.6-8.6V12.4
		c0-4.7-3.9-8.6-8.6-8.6C43.8,3.8,12.4,3.8,12.4,3.8z"/>
	<g>
		<g>
			<path id="SVGID_1_" class="st0" d="M39.2,36.2c0-0.5,0.4-0.8,0.8-0.8c0.5,0,0.8,0.4,0.8,0.8v4.1c0,0.5-0.4,0.8-0.8,0.8
				c-0.5,0-0.8-0.4-0.8-0.8V36.2z M40,43.6c-0.5,0-0.8-0.4-0.8-0.8S39.6,42,40,42c0.5,0,0.8,0.4,0.8,0.8S40.5,43.6,40,43.6z
				 M40.5,32.9c-0.4-0.6-0.7-0.5-1,0l-5.9,10.6c-0.3,0.6-0.2,0.9,0.5,0.9h11.8c0.5,0,0.9-0.3,0.5-0.9L40.5,32.9z M38.1,32.1
				L38.1,32.1c1-1.8,2.9-1.8,3.9,0l5.9,10.6c1,1.7,0,3.4-2,3.4H34.1c-2,0-3-1.6-2-3.4L38.1,32.1z"/>
		</g>
		<g>
			<defs>
				<path id="SVGID_2_" d="M39.2,36.2c0-0.5,0.4-0.8,0.8-0.8c0.5,0,0.8,0.4,0.8,0.8v4.1c0,0.5-0.4,0.8-0.8,0.8
					c-0.5,0-0.8-0.4-0.8-0.8V36.2z M40,43.6c-0.5,0-0.8-0.4-0.8-0.8S39.6,42,40,42c0.5,0,0.8,0.4,0.8,0.8S40.5,43.6,40,43.6z
					 M40.5,32.9c-0.4-0.6-0.7-0.5-1,0l-5.9,10.6c-0.3,0.6-0.2,0.9,0.5,0.9h11.8c0.5,0,0.9-0.3,0.5-0.9L40.5,32.9z M38.1,32.1
					L38.1,32.1c1-1.8,2.9-1.8,3.9,0l5.9,10.6c1,1.7,0,3.4-2,3.4H34.1c-2,0-3-1.6-2-3.4L38.1,32.1z"/>
			</defs>
			<use xlink:href="#SVGID_2_"  style="overflow:visible;fill:#FFFFFF;"/>
			<clipPath id="SVGID_4_">
				<use xlink:href="#SVGID_2_"  style="overflow:visible;"/>
			</clipPath>
			<g class="st1">
				<g>
					<rect id="SVGID_3_" x="-141" y="-1291.4" class="st0" width="927.2" height="1810.7"/>
				</g>
				<g>
					<defs>
						<rect id="SVGID_5_" x="-141" y="-1291.4" width="927.2" height="1810.7"/>
					</defs>
					<use xlink:href="#SVGID_5_"  style="overflow:visible;fill:#FFFFFF;"/>
					<clipPath id="SVGID_6_">
						<use xlink:href="#SVGID_5_"  style="overflow:visible;"/>
					</clipPath>
					<rect x="28.5" y="27.6" class="st2" width="23" height="21.7"/>
				</g>
			</g>
		</g>
	</g>
</g>
</svg>
