<?xml version="1.0" encoding="utf-8"?>
<!-- Generator: Adobe Illustrator 22.1.0, SVG Export Plug-In . SVG Version: 6.00 Build 0)  -->
<svg version="1.1" id="Capa_1" xmlns="http://www.w3.org/2000/svg" xmlns:xlink="http://www.w3.org/1999/xlink" x="0px" y="0px"
	 viewBox="0 0 56.2 56.2" style="enable-background:new 0 0 56.2 56.2;" xml:space="preserve">
<style type="text/css">
	.st0{fill:#FFFFFF;}
</style>
<g>
	<g id="wAdd4e.tif_1_">
		<g>
			<g>
				<path class="st0" d="M9.9,29.1c0-0.3,0.1-0.7,0.1-1c0.1-0.8,0.3-1.6,0.8-2.2s1.1-0.9,1.8-1.2c0.6-0.2,1.3-0.3,1.9-0.5
					c0.1,0,0.3,0,0.4,0.1c0.6,0.7,2,0.6,2.6,0.2c0.1,0,0.1-0.1,0.2-0.2c0.1-0.2,0.2-0.2,0.4-0.1c0.9,0.1,1.8,0.3,2.6,0.8
					c1.1,0.5,1.7,1.4,1.9,2.6c0,0.2,0.1,0.3,0.1,0.5c0,0.1,0,0.2-0.1,0.2c-0.5,0.2-1,0.4-1.5,0.7c-1.1,0.6-1.8,1.6-2.3,2.8
					c-0.1,0.2-0.2,0.5-0.2,0.7s-0.1,0.3-0.3,0.3c-0.4,0-0.9,0.1-1.3,0.1c-1.2,0-2.4,0-3.6-0.2c-1-0.2-2.1-0.5-2.9-1.2
					c-0.2-0.2-0.4-0.3-0.6-0.5C9.9,30.4,9.9,29.7,9.9,29.1z"/>
				<path class="st0" d="M46.3,31.1c-0.1,0-0.1,0.1-0.2,0.1c-0.7,0.8-1.6,1.1-2.6,1.4C42.2,32.9,41,33,39.7,33c-0.4,0-0.9,0-1.3,0
					c0-0.2-0.1-0.3-0.1-0.5c-0.5-2.1-1.8-3.4-3.8-4c-0.2-0.1-0.4-0.1-0.6-0.2c-0.3-0.1-0.3-0.2-0.3-0.5c0.3-1.3,0.9-2.3,2.3-2.9
					c0.7-0.3,1.5-0.5,2.2-0.6c0.2,0,0.3,0,0.5,0.2c0.2,0.3,0.6,0.4,0.9,0.4c0.3,0,0.7,0,1,0s0.6-0.2,0.8-0.5c0-0.1,0.1-0.1,0.2-0.1
					c0.8,0.2,1.6,0.3,2.4,0.6c1.3,0.5,2,1.5,2.2,2.9c0.1,0.7,0.1,1.5,0.2,2.3c0,0.1,0,0.3,0,0.4C46.3,30.8,46.3,30.9,46.3,31.1z"/>
				<path class="st0" d="M40.2,15.4c0.3,0,0.5,0.1,0.8,0.1c1.2,0.3,2,1.1,2.3,2.3c0.1,0.3,0.1,0.6,0.1,0.8c0.1,0.8,0.1,1.6-0.1,2.3
					c-0.2,0.9-0.7,1.7-1.4,2.3c-1.4,1.2-3.4,1-4.6-0.4c-0.6-0.7-1-1.5-1.1-2.4c-0.1-1-0.1-1.9,0.2-2.9c0.4-1.2,1.2-1.9,2.4-2.1
					c0.2,0,0.5-0.1,0.7-0.1C39.8,15.4,40,15.4,40.2,15.4z"/>
				<path class="st0" d="M28.2,40.9c-1.1-0.1-2.1-0.1-3.2-0.2c-1.6-0.2-3-0.6-4.3-1.5c-0.3-0.2-0.5-0.5-0.8-0.7
					c-0.2-0.2-0.3-0.5-0.3-0.8c0-1.6,0.1-3.1,0.4-4.7c0.3-1.4,1.2-2.3,2.5-2.9c1.1-0.5,2.3-0.8,3.5-1c0.1,0,0.2,0,0.3,0.1
					c0.1,0.1,0.3,0.2,0.4,0.3c0.3,0.3,0.7,0.5,1.2,0.5c0.4,0,0.8,0,1.1,0c0.5,0,0.9-0.3,1.2-0.7c0.2-0.2,0.3-0.2,0.5-0.2
					c1,0.2,2,0.4,2.9,0.8c1.8,0.7,2.8,2,3.1,3.9c0.2,1.2,0.3,2.5,0.3,3.7c0,0.6-0.3,1-0.7,1.4c-0.7,0.7-1.6,1-2.5,1.3
					c-1.6,0.5-3.2,0.7-4.8,0.7C28.8,40.8,28.5,40.8,28.2,40.9L28.2,40.9z"/>
				<path class="st0" d="M28.2,17c0.9,0,1.6,0,2.3,0.3c1.3,0.5,2.1,1.4,2.5,2.7c0.2,0.5,0.2,1.1,0.3,1.7c0.1,0.9,0.1,1.7-0.1,2.6
					c-0.3,1.4-1,2.6-2.2,3.5c-1.8,1.4-4.2,1.2-5.8-0.4c-1.1-1.1-1.7-2.4-1.8-3.9c-0.1-1.1-0.1-2.2,0.2-3.3c0.3-1.1,0.8-1.9,1.7-2.5
					c0.6-0.4,1.3-0.6,2-0.7C27.7,17,28.1,17,28.2,17z"/>
				<path class="st0" d="M20,19.4c0,1.2-0.3,2.2-1,3.2c-0.8,1-1.7,1.5-3,1.4c-0.9-0.1-1.6-0.5-2.2-1.2c-0.6-0.7-0.9-1.5-1-2.4
					s-0.1-1.8,0.1-2.7c0.4-1.4,1.2-2.1,2.6-2.3c0.7-0.1,1.3-0.1,2,0.1c1.3,0.3,2,1.1,2.3,2.3C19.9,18.3,20,18.9,20,19.4L20,19.4z"/>
			</g>
		</g>
	</g>
	<path class="st0" d="M43.7,56.2H12.5C5.6,56.2,0,50.6,0,43.7V12.5C0,5.6,5.6,0,12.5,0h31.2c6.9,0,12.5,5.6,12.5,12.5v31.2
		C56.2,50.6,50.6,56.2,43.7,56.2z M12.5,1C6.2,1,1,6.2,1,12.5v31.2C1,50,6.2,55.2,12.5,55.2h31.2c6.3,0,11.5-5.2,11.5-11.5V12.5
		C55.2,6.2,50,1,43.7,1H12.5z"/>
	<path class="st0" d="M43.8,53.2H12.4C7.2,53.2,3,49,3,43.8V12.4C3,7.2,7.2,3,12.4,3h31.5c5.2,0,9.4,4.2,9.4,9.4v31.5
		C53.2,49,49,53.2,43.8,53.2z M12.4,3.7c-4.8,0-8.6,3.9-8.6,8.6v31.5c0,4.8,3.9,8.6,8.6,8.6h31.5c4.8,0,8.6-3.9,8.6-8.6V12.4
		c0-4.8-3.9-8.6-8.6-8.6L12.4,3.7L12.4,3.7z"/>
</g>
</svg>
