<?xml version="1.0" encoding="utf-8"?>
<!-- Generator: Adobe Illustrator 22.1.0, SVG Export Plug-In . SVG Version: 6.00 Build 0)  -->
<svg version="1.1" id="Capa_1" xmlns="http://www.w3.org/2000/svg" xmlns:xlink="http://www.w3.org/1999/xlink" x="0px" y="0px"
	 viewBox="0 0 56.2 56.2" style="enable-background:new 0 0 56.2 56.2;" xml:space="preserve">
<style type="text/css">
	.st0{fill:#FFFFFF;}
</style>
<g>
	<g>
		<path class="st0" d="M43.7,56.2H12.5C5.6,56.2,0,50.6,0,43.7V12.5C0,5.6,5.6,0,12.5,0h31.2c6.9,0,12.5,5.6,12.5,12.5v31.2
			C56.2,50.6,50.6,56.2,43.7,56.2z M12.5,1C6.2,1,1,6.2,1,12.5v31.2C1,50,6.2,55.2,12.5,55.2h31.2c6.3,0,11.5-5.2,11.5-11.5V12.5
			C55.2,6.2,50,1,43.7,1H12.5z"/>
		<path class="st0" d="M43.8,53.2H12.4C7.2,53.2,3,49,3,43.8V12.4C3,7.2,7.2,3,12.4,3h31.5c5.2,0,9.4,4.2,9.4,9.4v31.5
			C53.2,49,49,53.2,43.8,53.2z M12.4,3.7c-4.8,0-8.6,3.9-8.6,8.6v31.5c0,4.8,3.9,8.6,8.6,8.6h31.5c4.8,0,8.6-3.9,8.6-8.6V12.4
			c0-4.8-3.9-8.6-8.6-8.6L12.4,3.7L12.4,3.7z"/>
	</g>
	<g id="AC9uQH_1_">
		<g>
			<path class="st0" d="M40.8,44.7h-23c-1.3,0-2.3-1-2.3-2.3V12.3c0-1.3,1-2.3,2.3-2.3h16.4c2.8,2.8,5.6,5.7,8.4,8.5
				c0.4,0.4,0.5,0.7,0.5,1.3c0,7.6,0,15.1,0,22.7C43.1,43.7,42,44.7,40.8,44.7z M18.2,12.8c0,9.8,0,19.5,0,29.2c7.4,0,14.7,0,22.1,0
				c0-7,0-14,0-21.1c-0.3,0-0.5,0-0.8,0c-1.9,0-3.8,0-5.7,0c-1.2,0-1.6-0.4-1.6-1.6c0-1.8,0-3.6,0-5.5c0-0.3,0-0.6,0-1
				C27.5,12.8,22.9,12.8,18.2,12.8z M34.9,18.1c1.2,0,2.3,0,3.2,0c-1-1.1-2.1-2.1-3.2-3.2C34.9,15.9,34.9,17,34.9,18.1z"/>
			<path class="st0" d="M31,32.3c-1.1-1.2-2.1-2.2-3.1-3.2c-1.8,1.9-3.6,3.6-5.4,5.4c-0.5-0.5-0.9-0.9-1.2-1.3
				c2.2-2.2,4.4-4.3,6.6-6.6c0.9,0.9,1.9,1.9,2.8,2.9c1.3-1.3,2.5-2.5,3.8-3.8c-0.2,0-0.4-0.1-0.7-0.1c0-0.6,0-1.1,0-1.7
				c1.3,0,2.6,0,3.9,0c0,1.3,0,2.6,0,3.9c-0.5,0-1.1,0-1.6,0c0-0.2-0.1-0.5-0.1-0.7C34.4,28.9,32.8,30.5,31,32.3z"/>
			<path class="st0" d="M21.5,38.7c0-0.6,0-1.1,0-1.7c5.1,0,10.3,0,15.5,0c0,0.5,0,1.1,0,1.7C31.9,38.7,26.7,38.7,21.5,38.7z"/>
			<path class="st0" d="M30.7,16.1c0,0.6,0,1.1,0,1.7c-3.1,0-6.1,0-9.1,0c0-0.6,0-1.1,0-1.7C24.5,16.1,27.6,16.1,30.7,16.1z"/>
			<path class="st0" d="M21.5,21.7c0-0.6,0-1.1,0-1.7c3.1,0,6.1,0,9.1,0c0,0.5,0,1.1,0,1.7C27.6,21.7,24.6,21.7,21.5,21.7z"/>
		</g>
	</g>
</g>
</svg>
