<?xml version="1.0" encoding="utf-8"?>
<!-- Generator: Adobe Illustrator 22.1.0, SVG Export Plug-In . SVG Version: 6.00 Build 0)  -->
<svg version="1.1" id="Capa_1" xmlns="http://www.w3.org/2000/svg" xmlns:xlink="http://www.w3.org/1999/xlink" x="0px" y="0px"
	 viewBox="0 0 42.8 42.8" style="enable-background:new 0 0 42.8 42.8;" xml:space="preserve">
<style type="text/css">
	.st0{fill:#FFFFFF;}
</style>
<g>
	<path class="st0" d="M34.5,4.4c-3.6,0-6.5,2.9-6.5,6.5c0,1,0.2,1.9,0.6,2.7l5.9,11.6l5.9-11.6c0.4-0.8,0.6-1.8,0.6-2.7
		C41,7.3,38.1,4.4,34.5,4.4z M34.5,14.9c-2.2,0-3.9-1.8-3.9-3.9s1.7-4,3.9-4s3.9,1.8,3.9,3.9S36.6,14.9,34.5,14.9z M36.4,27.2
		l2.4,4.8l-6,3l-2-10.1l0.3-0.3l0,0l-1.2-2.5l-0.6,0.6l-7.8-5.2l-7.8,5.2l-5.2-5.2l-8,15.7L11,38.4l10.5-5.2L32,38.4l10.5-5.2
		l-4.4-8.8L36.4,27.2z M10,35l-6-3l5-10.1l2.7,2.7l0.3,0.3L10,35z M20.1,30.9l-7.3,3.7l1.9-9.4L15,25l5.1-3.4V30.9z M22.7,30.9v-9.4
		l5.1,3.4l0.3,0.2l1.9,9.4L22.7,30.9z"/>
</g>
</svg>
