<?xml version="1.0" encoding="utf-8"?>
<!-- Generator: Adobe Illustrator 22.1.0, SVG Export Plug-In . SVG Version: 6.00 Build 0)  -->
<svg version="1.1" id="Capa_1" xmlns="http://www.w3.org/2000/svg" xmlns:xlink="http://www.w3.org/1999/xlink" x="0px" y="0px"
	 viewBox="0 0 25.8 25" style="enable-background:new 0 0 25.8 25;" xml:space="preserve">
<style type="text/css">
	.st0{fill:#606060;}
	.st1{fill:#FFFFFF;}
</style>
<g>
	<g>
		<g>
			<path class="st0" d="M408.2-126.8c-0.3-0.3-0.5-0.6-0.8-0.9l-0.2-0.3c-0.3-0.3-0.3-0.5-0.2-0.7c0.1-0.4,0.2-0.9,0.2-1.3
				c0.3-1.4-0.2-2.3-1.5-2.8c-0.4-0.2-0.8-0.3-1.1-0.4c-0.4-0.1-0.7-0.4-0.8-0.8c-0.2-0.5-0.3-1-0.5-1.5c-0.4-0.9-1.2-1.3-2.2-1.2
				c-0.4,0-0.8,0.1-1.3,0.2c-0.6,0.2-1,0-1.4-0.4c-0.3-0.3-0.6-0.6-1-0.8c-0.9-0.7-1.8-0.7-2.7,0c-0.3,0.2-0.6,0.5-0.9,0.8l-0.3,0.3
				c-0.3,0.3-0.5,0.3-0.7,0.2c-0.3-0.1-0.7-0.1-1-0.2l-0.3-0.1c-1.4-0.3-2.3,0.2-2.8,1.6c-0.1,0.3-0.3,0.7-0.4,1.1
				c-0.1,0.4-0.4,0.7-0.8,0.8c-0.5,0.2-1,0.3-1.4,0.5c-0.9,0.4-1.3,1.2-1.2,2.2c0,0.4,0.1,0.8,0.2,1.3c0.2,0.6,0,1-0.4,1.5
				c-0.3,0.3-0.6,0.7-0.8,1c-0.6,0.9-0.6,1.8,0,2.6c0.3,0.4,0.6,0.7,1,1.2c0.3,0.3,0.3,0.6,0.2,1c-0.1,0.4-0.1,0.7-0.2,1l-0.1,0.3
				v0.1c0,0.7,0,1.7,1.2,2.3c0.5,0.2,1,0.4,1.5,0.6c0.4,0.1,0.7,0.4,0.8,0.8c0.2,0.5,0.3,1,0.5,1.5c0.4,0.9,1.2,1.4,2.2,1.2
				c0.4,0,0.8-0.1,1.3-0.2c0.6-0.1,1,0,1.4,0.4s0.7,0.7,1,0.8c0.4,0.3,0.9,0.5,1.3,0.5c0.5,0,0.9-0.2,1.3-0.5s0.8-0.7,1.2-1
				c0.3-0.3,0.6-0.3,1-0.3c0.3,0.1,0.5,0.1,0.8,0.2l0.3,0.1c1.4,0.3,2.3-0.2,2.8-1.5c0.2-0.4,0.3-0.8,0.4-1.1
				c0.1-0.4,0.4-0.7,0.8-0.8c0.5-0.2,1-0.3,1.5-0.6c0.9-0.4,1.3-1.2,1.2-2.1c0-0.4-0.1-0.8-0.2-1.3c-0.2-0.6,0-1,0.4-1.4
				c0.3-0.3,0.6-0.7,0.8-1C408.9-125,408.8-125.9,408.2-126.8z M406.8-125.1c-0.2,0.2-0.4,0.5-0.7,0.8c-0.8,0.8-1.1,1.9-0.8,3
				c0.1,0.4,0.1,0.7,0.2,1.1c0,0.3,0,0.3-0.2,0.4c-0.4,0.2-0.8,0.3-1.3,0.5c-1,0.3-1.7,1-2,2c-0.1,0.3-0.2,0.6-0.3,1
				c-0.2,0.5-0.3,0.6-0.9,0.5l-0.3-0.1c-0.2,0-0.5-0.1-0.7-0.1c-0.9-0.2-1.8,0-2.5,0.7c-0.3,0.3-0.7,0.6-1,0.9
				c-0.3,0.2-0.4,0.2-0.6,0c-0.3-0.3-0.6-0.5-0.8-0.7c-0.6-0.6-1.3-0.9-2.1-0.9c-0.3,0-0.6,0-0.9,0.1c-0.4,0.1-0.8,0.1-1.1,0.2
				c-0.3,0-0.3,0-0.4-0.2c-0.2-0.4-0.3-0.8-0.5-1.3c-0.3-1-0.9-1.6-1.9-1.9c-0.4-0.1-0.9-0.3-1.3-0.5c-0.2-0.1-0.2-0.1-0.2-0.6v-0.2
				c0.1-0.3,0.1-0.6,0.2-1c0.2-0.9,0-1.8-0.6-2.5c-0.4-0.4-0.7-0.7-0.9-1.1c-0.2-0.3-0.2-0.4,0-0.6s0.4-0.5,0.6-0.8
				c0.9-0.9,1.2-1.9,0.8-3.1c-0.1-0.3-0.1-0.7-0.2-1c0-0.3,0-0.4,0.2-0.4c0.4-0.2,0.8-0.3,1.2-0.5c1-0.3,1.7-1,2-2
				c0.1-0.3,0.2-0.6,0.3-0.9c0.2-0.6,0.3-0.6,0.9-0.5l0.3,0.1c0.3,0.1,0.7,0.1,1,0.2c0.7,0.1,1.5-0.1,2.1-0.6l0.3-0.3
				c0.3-0.2,0.6-0.5,0.8-0.7c0.3-0.2,0.4-0.2,0.7,0c0.3,0.2,0.5,0.4,0.8,0.6c0.8,0.9,1.9,1.1,3.1,0.8c0.3-0.1,0.6-0.1,1-0.2
				c0.3,0,0.3,0,0.4,0.2c0.2,0.4,0.3,0.8,0.5,1.3c0.3,1,1,1.7,2,1.9c0.3,0.1,0.6,0.2,1,0.3c0.5,0.2,0.6,0.3,0.5,0.9
				c-0.1,0.4-0.2,0.9-0.2,1.3c-0.1,0.8,0.1,1.5,0.6,2.1l0.2,0.3c0.3,0.3,0.5,0.6,0.7,0.9C407-125.5,407-125.4,406.8-125.1z"/>
		</g>
		<path class="st0" d="M400.5-130.9c-2.2,2.1-4.4,4.3-6.6,6.5c-0.8-0.8-1.6-1.6-2.4-2.4c-0.8,0.7-1.5,1.5-2.3,2.2
			c1.5,1.5,3.1,3,4.5,4.4c2.9-2.9,5.9-5.8,8.8-8.6C401.9-129.5,401.2-130.2,400.5-130.9z"/>
	</g>
</g>
<g>
	<g>
		<path class="st1" d="M4.7,8.1c-1,0-1.8,0.8-1.8,1.8s0.8,1.8,1.8,1.8s1.8-0.8,1.8-1.8S5.7,8.1,4.7,8.1z"/>
		<path class="st1" d="M8.4,9.9c0-1.7-1.1-3.1-2.7-3.5V1.3c0-0.5-0.4-0.9-0.9-0.9s-1,0.4-1,0.9v5.1C2.2,6.8,1.1,8.2,1.1,9.9
			s1.2,3.1,2.8,3.5v10.1c0,0.5,0.4,0.9,0.9,0.9s0.9-0.4,0.9-0.9V13.4C7.2,13,8.4,11.6,8.4,9.9z M4.7,11.8c-1,0-1.8-0.8-1.8-1.8
			s0.8-1.8,1.8-1.8S6.5,9,6.5,10S5.7,11.8,4.7,11.8z"/>
	</g>
	<g>
		<path class="st1" d="M21.2,8.1c-1,0-1.8,0.8-1.8,1.8s0.8,1.8,1.8,1.8S23,10.9,23,9.9S22.2,8.1,21.2,8.1z"/>
		<path class="st1" d="M24.8,9.9c0-1.7-1.1-3.1-2.7-3.5V1.3c0-0.5-0.4-0.9-0.9-0.9s-0.9,0.4-0.9,0.9v5.1c-1.6,0.4-2.8,1.8-2.8,3.5
			s1.2,3.1,2.8,3.5v10.1c0,0.5,0.4,0.9,0.9,0.9s0.9-0.4,0.9-0.9V13.4C23.7,13,24.8,11.6,24.8,9.9z M21.2,11.8c-1,0-1.8-0.8-1.8-1.8
			s0.8-1.8,1.8-1.8S23,9,23,10S22.2,11.8,21.2,11.8z"/>
	</g>
	<g>
		<path class="st1" d="M13,16.8c1,0,1.8-0.8,1.8-1.8S14,13.1,13,13.1s-1.8,0.8-1.8,1.8S12,16.8,13,16.8z"/>
		<path class="st1" d="M9.3,14.9c0,1.7,1.1,3.1,2.7,3.5v5.1c0,0.5,0.4,0.9,0.9,0.9s0.9-0.4,0.9-0.9v-5.1c1.6-0.4,2.8-1.8,2.8-3.5
			s-1.2-3.1-2.8-3.5V1.3c0-0.5-0.4-0.9-0.9-0.9S12,0.8,12,1.3v10.1C10.5,11.9,9.3,13.3,9.3,14.9z M13,13.1c1,0,1.8,0.8,1.8,1.8
			S14,16.8,13,16.8S11.2,16,11.2,15S12,13.1,13,13.1z"/>
	</g>
</g>
</svg>
