<?xml version="1.0" encoding="utf-8"?>
<!-- Generator: Adobe Illustrator 22.1.0, SVG Export Plug-In . SVG Version: 6.00 Build 0)  -->
<svg version="1.1" id="Capa_1" xmlns="http://www.w3.org/2000/svg" xmlns:xlink="http://www.w3.org/1999/xlink" x="0px" y="0px"
	 viewBox="0 0 34.4 27.5" style="enable-background:new 0 0 34.4 27.5;" xml:space="preserve">
<style type="text/css">
	.st0{fill:#606060;}
	.st1{fill:#FFFFFF;}
</style>
<g>
	<g>
		<g>
			<path class="st0" d="M412.5-124.3c-0.3-0.3-0.5-0.6-0.8-0.9l-0.2-0.3c-0.3-0.3-0.3-0.5-0.2-0.7c0.1-0.4,0.2-0.9,0.2-1.3
				c0.3-1.4-0.2-2.3-1.5-2.8c-0.4-0.2-0.8-0.3-1.1-0.4c-0.4-0.1-0.7-0.4-0.8-0.8c-0.2-0.5-0.3-1-0.5-1.5c-0.4-0.9-1.2-1.3-2.2-1.2
				c-0.4,0-0.8,0.1-1.3,0.2c-0.6,0.2-1,0-1.4-0.4c-0.3-0.3-0.6-0.6-1-0.8c-0.9-0.7-1.8-0.7-2.7,0c-0.3,0.2-0.6,0.5-0.9,0.8l-0.3,0.3
				c-0.3,0.3-0.5,0.3-0.7,0.2c-0.3-0.1-0.7-0.1-1-0.2l-0.3-0.1c-1.4-0.3-2.3,0.2-2.8,1.6c-0.1,0.3-0.3,0.7-0.4,1.1
				c-0.1,0.4-0.4,0.7-0.8,0.8c-0.5,0.2-1,0.3-1.4,0.5c-0.9,0.4-1.3,1.2-1.2,2.2c0,0.4,0.1,0.8,0.2,1.3c0.2,0.6,0,1-0.4,1.5
				c-0.3,0.3-0.6,0.7-0.8,1c-0.6,0.9-0.6,1.8,0,2.6c0.3,0.4,0.6,0.7,1,1.2c0.3,0.3,0.3,0.6,0.2,1c-0.1,0.4-0.1,0.7-0.2,1l-0.1,0.3
				v0.1c0,0.7,0,1.7,1.2,2.3c0.5,0.2,1,0.4,1.5,0.6c0.4,0.1,0.7,0.4,0.8,0.8c0.2,0.5,0.3,1,0.5,1.5c0.4,0.9,1.2,1.4,2.2,1.2
				c0.4,0,0.8-0.1,1.3-0.2c0.6-0.1,1,0,1.4,0.4s0.7,0.7,1,0.8c0.4,0.3,0.9,0.5,1.3,0.5c0.5,0,0.9-0.2,1.3-0.5s0.8-0.7,1.2-1
				c0.3-0.3,0.6-0.3,1-0.3c0.3,0.1,0.5,0.1,0.8,0.2l0.3,0.1c1.4,0.3,2.3-0.2,2.8-1.5c0.2-0.4,0.3-0.8,0.4-1.1
				c0.1-0.4,0.4-0.7,0.8-0.8c0.5-0.2,1-0.3,1.5-0.6c0.9-0.4,1.3-1.2,1.2-2.1c0-0.4-0.1-0.8-0.2-1.3c-0.2-0.6,0-1,0.4-1.4
				c0.3-0.3,0.6-0.7,0.8-1C413.1-122.5,413.1-123.4,412.5-124.3z M411.1-122.7c-0.2,0.2-0.4,0.5-0.7,0.8c-0.8,0.8-1.1,1.9-0.8,3
				c0.1,0.4,0.1,0.7,0.2,1.1c0,0.3,0,0.3-0.2,0.4c-0.4,0.2-0.8,0.3-1.3,0.5c-1,0.3-1.7,1-2,2c-0.1,0.3-0.2,0.6-0.3,1
				c-0.2,0.5-0.3,0.6-0.9,0.5l-0.3-0.1c-0.2,0-0.5-0.1-0.7-0.1c-0.9-0.2-1.8,0-2.5,0.7c-0.3,0.3-0.7,0.6-1,0.9
				c-0.3,0.2-0.4,0.2-0.6,0c-0.3-0.3-0.6-0.5-0.8-0.7c-0.6-0.6-1.3-0.9-2.1-0.9c-0.3,0-0.6,0-0.9,0.1c-0.4,0.1-0.8,0.1-1.1,0.2
				c-0.3,0-0.3,0-0.4-0.2c-0.2-0.4-0.3-0.8-0.5-1.3c-0.3-1-0.9-1.6-1.9-1.9c-0.4-0.1-0.9-0.3-1.3-0.5c-0.2-0.1-0.2-0.1-0.2-0.6v-0.2
				c0.1-0.3,0.1-0.6,0.2-1c0.2-0.9,0-1.8-0.6-2.5c-0.4-0.4-0.7-0.7-0.9-1.1c-0.2-0.3-0.2-0.4,0-0.6s0.4-0.5,0.6-0.8
				c0.9-0.9,1.2-1.9,0.8-3.1c-0.1-0.3-0.1-0.7-0.2-1c0-0.3,0-0.4,0.2-0.4c0.4-0.2,0.8-0.3,1.2-0.5c1-0.3,1.7-1,2-2
				c0.1-0.3,0.2-0.6,0.3-0.9c0.2-0.6,0.3-0.6,0.9-0.5l0.3,0.1c0.3,0.1,0.7,0.1,1,0.2c0.7,0.1,1.5-0.1,2.1-0.6l0.3-0.3
				c0.3-0.2,0.6-0.5,0.8-0.7c0.3-0.2,0.4-0.2,0.7,0c0.3,0.2,0.5,0.4,0.8,0.6c0.8,0.9,1.9,1.1,3.1,0.8c0.3-0.1,0.6-0.1,1-0.2
				c0.3,0,0.3,0,0.4,0.2c0.2,0.4,0.3,0.8,0.5,1.3c0.3,1,1,1.7,2,1.9c0.3,0.1,0.6,0.2,1,0.3c0.5,0.2,0.6,0.3,0.5,0.9
				c-0.1,0.4-0.2,0.9-0.2,1.3c-0.1,0.8,0.1,1.5,0.6,2.1l0.2,0.3c0.3,0.3,0.5,0.6,0.7,0.9C411.3-123,411.3-122.9,411.1-122.7z"/>
		</g>
		<path class="st0" d="M404.8-128.4c-2.2,2.1-4.4,4.3-6.6,6.5c-0.8-0.8-1.6-1.6-2.4-2.4c-0.8,0.7-1.5,1.5-2.3,2.2
			c1.5,1.5,3.1,3,4.5,4.4c2.9-2.9,5.9-5.8,8.8-8.6C406.2-127,405.5-127.7,404.8-128.4z"/>
	</g>
</g>
<g id="nb1dj5_2_">
	<g>
		<path class="st1" d="M33.2,14.1c-0.4,0.5-0.8,1-1.3,1.5c-0.4,0.5-0.8,0.5-1.3,0.1c-3.6-3-7.2-6-10.8-9C19,6,18.1,5.3,17.2,4.5
			c-1.2,1-2.4,2-3.6,3c-3.2,2.7-6.5,5.4-9.7,8.1c-0.7,0.6-0.9,0.6-1.5-0.1C2.2,15.2,2,15,1.8,14.7C1,14,1,13.8,1.8,13.1
			c4.5-3.8,9-7.5,13.5-11.3c1.2-1,2.4-1,3.5,0c1.5,1.2,2.9,2.5,4.6,3.8c0-1,0-1.8,0-2.5c0-2.1-0.2-2,2-2c0.7,0,1.4,0,2.1,0
			c0.8,0,0.9,0.1,0.9,1c0,2.3,0,4.6,0,6.9c0,0.6,0.2,1,0.7,1.4c1.2,0.9,2.3,1.9,3.4,2.8c0.2,0.2,0.4,0.4,0.6,0.6
			C33.2,13.9,33.2,14,33.2,14.1z"/>
		<path class="st1" d="M14.7,26.4c-1.8,0-3.5,0-5.2,0c-0.8,0-1.7,0-2.5,0c-0.7,0-1.2-0.4-1.2-1.2c0-3.1,0-6.2,0-9.2
			c0-0.2,0.1-0.5,0.3-0.6c3.7-3.1,7.4-6.1,11.1-9.2c1.9,1.6,3.8,3.1,5.7,4.7c1.7,1.4,3.5,2.8,5.1,4.3c0.3,0.2,0.5,0.7,0.5,1
			c0,2.9,0,5.8,0,8.7c0,1.2-0.4,1.6-1.6,1.6c-2.4,0-4.8,0-7.3,0c0-2.5,0-5,0-7.5c-1.7,0-3.3,0-5,0C14.7,21.4,14.7,23.9,14.7,26.4z"
			/>
	</g>
</g>
</svg>
