<?xml version="1.0" encoding="utf-8"?>
<!-- Generator: Adobe Illustrator 22.1.0, SVG Export Plug-In . SVG Version: 6.00 Build 0)  -->
<svg version="1.1" id="Capa_1" xmlns="http://www.w3.org/2000/svg" xmlns:xlink="http://www.w3.org/1999/xlink" x="0px" y="0px"
	 viewBox="0 0 31.3 27.5" style="enable-background:new 0 0 31.3 27.5;" xml:space="preserve">
<style type="text/css">
	.st0{fill:#606060;}
	.st1{fill:#FFFFFF;}
</style>
<g>
	<g>
		<g>
			<path class="st0" d="M410.9-124.3c-0.3-0.3-0.5-0.6-0.8-0.9l-0.2-0.3c-0.3-0.3-0.3-0.5-0.2-0.7c0.1-0.4,0.2-0.9,0.2-1.3
				c0.3-1.4-0.2-2.3-1.5-2.8c-0.4-0.2-0.8-0.3-1.1-0.4c-0.4-0.1-0.7-0.4-0.8-0.8c-0.2-0.5-0.3-1-0.5-1.5c-0.4-0.9-1.2-1.3-2.2-1.2
				c-0.4,0-0.8,0.1-1.3,0.2c-0.6,0.2-1,0-1.4-0.4c-0.3-0.3-0.6-0.6-1-0.8c-0.9-0.7-1.8-0.7-2.7,0c-0.3,0.2-0.6,0.5-0.9,0.8l-0.3,0.3
				c-0.3,0.3-0.5,0.3-0.7,0.2c-0.3-0.1-0.7-0.1-1-0.2l-0.3-0.1c-1.4-0.3-2.3,0.2-2.8,1.6c-0.1,0.3-0.3,0.7-0.4,1.1
				c-0.1,0.4-0.4,0.7-0.8,0.8c-0.5,0.2-1,0.3-1.4,0.5c-0.9,0.4-1.3,1.2-1.2,2.2c0,0.4,0.1,0.8,0.2,1.3c0.2,0.6,0,1-0.4,1.5
				c-0.3,0.3-0.6,0.7-0.8,1c-0.6,0.9-0.6,1.8,0,2.6c0.3,0.4,0.6,0.7,1,1.2c0.3,0.3,0.3,0.6,0.2,1c-0.1,0.4-0.1,0.7-0.2,1l-0.1,0.3
				v0.1c0,0.7,0,1.7,1.2,2.3c0.5,0.2,1,0.4,1.5,0.6c0.4,0.1,0.7,0.4,0.8,0.8c0.2,0.5,0.3,1,0.5,1.5c0.4,0.9,1.2,1.4,2.2,1.2
				c0.4,0,0.8-0.1,1.3-0.2c0.6-0.1,1,0,1.4,0.4s0.7,0.7,1,0.8c0.4,0.3,0.9,0.5,1.3,0.5c0.5,0,0.9-0.2,1.3-0.5s0.8-0.7,1.2-1
				c0.3-0.3,0.6-0.3,1-0.3c0.3,0.1,0.5,0.1,0.8,0.2l0.3,0.1c1.4,0.3,2.3-0.2,2.8-1.5c0.2-0.4,0.3-0.8,0.4-1.1
				c0.1-0.4,0.4-0.7,0.8-0.8c0.5-0.2,1-0.3,1.5-0.6c0.9-0.4,1.3-1.2,1.2-2.1c0-0.4-0.1-0.8-0.2-1.3c-0.2-0.6,0-1,0.4-1.4
				c0.3-0.3,0.6-0.7,0.8-1C411.6-122.5,411.6-123.4,410.9-124.3z M409.6-122.7c-0.2,0.2-0.4,0.5-0.7,0.8c-0.8,0.8-1.1,1.9-0.8,3
				c0.1,0.4,0.1,0.7,0.2,1.1c0,0.3,0,0.3-0.2,0.4c-0.4,0.2-0.8,0.3-1.3,0.5c-1,0.3-1.7,1-2,2c-0.1,0.3-0.2,0.6-0.3,1
				c-0.2,0.5-0.3,0.6-0.9,0.5l-0.3-0.1c-0.2,0-0.5-0.1-0.7-0.1c-0.9-0.2-1.8,0-2.5,0.7c-0.3,0.3-0.7,0.6-1,0.9
				c-0.3,0.2-0.4,0.2-0.6,0c-0.3-0.3-0.6-0.5-0.8-0.7c-0.6-0.6-1.3-0.9-2.1-0.9c-0.3,0-0.6,0-0.9,0.1c-0.4,0.1-0.8,0.1-1.1,0.2
				c-0.3,0-0.3,0-0.4-0.2c-0.2-0.4-0.3-0.8-0.5-1.3c-0.3-1-0.9-1.6-1.9-1.9c-0.4-0.1-0.9-0.3-1.3-0.5c-0.2-0.1-0.2-0.1-0.2-0.6v-0.2
				c0.1-0.3,0.1-0.6,0.2-1c0.2-0.9,0-1.8-0.6-2.5c-0.4-0.4-0.7-0.7-0.9-1.1c-0.2-0.3-0.2-0.4,0-0.6s0.4-0.5,0.6-0.8
				c0.9-0.9,1.2-1.9,0.8-3.1c-0.1-0.3-0.1-0.7-0.2-1c0-0.3,0-0.4,0.2-0.4c0.4-0.2,0.8-0.3,1.2-0.5c1-0.3,1.7-1,2-2
				c0.1-0.3,0.2-0.6,0.3-0.9c0.2-0.6,0.3-0.6,0.9-0.5l0.3,0.1c0.3,0.1,0.7,0.1,1,0.2c0.7,0.1,1.5-0.1,2.1-0.6l0.3-0.3
				c0.3-0.2,0.6-0.5,0.8-0.7c0.3-0.2,0.4-0.2,0.7,0c0.3,0.2,0.5,0.4,0.8,0.6c0.8,0.9,1.9,1.1,3.1,0.8c0.3-0.1,0.6-0.1,1-0.2
				c0.3,0,0.3,0,0.4,0.2c0.2,0.4,0.3,0.8,0.5,1.3c0.3,1,1,1.7,2,1.9c0.3,0.1,0.6,0.2,1,0.3c0.5,0.2,0.6,0.3,0.5,0.9
				c-0.1,0.4-0.2,0.9-0.2,1.3c-0.1,0.8,0.1,1.5,0.6,2.1l0.2,0.3c0.3,0.3,0.5,0.6,0.7,0.9C409.8-123,409.8-122.9,409.6-122.7z"/>
		</g>
		<path class="st0" d="M403.3-128.4c-2.2,2.1-4.4,4.3-6.6,6.5c-0.8-0.8-1.6-1.6-2.4-2.4c-0.8,0.7-1.5,1.5-2.3,2.2
			c1.5,1.5,3.1,3,4.5,4.4c2.9-2.9,5.9-5.8,8.8-8.6C404.7-127,404-127.7,403.3-128.4z"/>
	</g>
</g>
<g>
	<g id="wtOC0O.tif_2_">
		<g>
			<path class="st1" d="M6.9,21.9c0.5-0.7,1-1.4,1.5-2.1c4.4,5.4,11.3,5,15.1,2.1c3.9-3,5.3-8.2,3.2-12.5c-2.2-4.6-7.5-6.9-12.6-5.5
				c-4.5,1.2-8,5.7-7.6,9.8c0.9,0,1.9,0,3.1,0c-1.5,2.1-2.8,4.1-4.2,6.2c-1.4-2-2.8-4-4.2-6.1c1,0,1.8,0,2.7,0
				c0.2-1,0.3-1.9,0.5-2.8c1.3-5.5,6.3-9.6,12-9.8c6.3-0.3,11.7,3.4,13.5,9c2.2,7-2.2,14.5-9.6,16.1c-4.8,1-9.1-0.2-12.6-3.7
				C7.3,22.3,7.1,22.1,6.9,21.9z"/>
		</g>
	</g>
	<g>
		<path class="st1" d="M18.5,17.1c0-0.5-0.1-0.9-0.4-1.2s-0.8-0.6-1.5-0.9c-1.4-0.5-2.4-1-3.1-1.6c-0.7-0.6-1-1.5-1-2.6
			c0-1,0.3-1.9,1-2.5c0.7-0.7,1.6-1,2.7-1.2V5.3h1.4v2c1.1,0.2,1.9,0.6,2.6,1.3c0.6,0.7,0.9,1.6,0.9,2.7l0,0h-2.6
			c0-0.7-0.2-1.2-0.5-1.5c-0.3-0.4-0.7-0.5-1.3-0.5c-0.6,0-1,0.1-1.2,0.4c-0.3,0.3-0.4,0.7-0.4,1.2s0.1,0.8,0.4,1.1s0.8,0.6,1.6,0.9
			c1.3,0.4,2.4,1,3,1.6s1,1.5,1,2.6s-0.3,1.9-1,2.5s-1.6,1-2.7,1.1v1.8H16v-1.8c-1.2-0.1-2.1-0.5-2.9-1.2S12,18,12,16.7v-0.1h2.6
			c0,0.8,0.2,1.3,0.6,1.7c0.4,0.3,0.9,0.5,1.5,0.5s1-0.1,1.3-0.4C18.3,18,18.5,17.6,18.5,17.1z"/>
	</g>
</g>
</svg>
