<?xml version="1.0" encoding="utf-8"?>
<!DOCTYPE svg PUBLIC "-//W3C//DTD SVG 20010904//EN"
 "http://www.w3.org/TR/2001/REC-SVG-20010904/DTD/svg10.dtd">
<!-- Generator: Adobe Illustrator 22.1.0, SVG Export Plug-In . SVG Version: 6.00 Build 0)  -->
<svg version="1.1" id="Capa_1" xmlns="http://www.w3.org/2000/svg" xmlns:xlink="http://www.w3.org/1999/xlink" x="0px" y="0px"
	 viewBox="0 0 35.7 35.7" style="enable-background:new 0 0 35.7 35.7;" xml:space="preserve">
<style type="text/css">
	.st0{fill:#FFFFFF;}
	.st1{fill:#E6E6E6;}
	.st2{clip-path:url(#SVGID_3_);}
	.st3{clip-path:url(#SVGID_6_);fill:url(#SVGID_7_);}
</style>
<g>
	<g>
		<g>
			<circle class="st0" cx="17.8" cy="17.8" r="17.3"/>
			<path class="st1" d="M17.8,35.7C8,35.7,0,27.7,0,17.8S8,0,17.8,0s17.8,8,17.8,17.8S27.7,35.7,17.8,35.7z M17.8,1
				C8.6,1,1,8.6,1,17.8s7.6,16.8,16.8,16.8s16.8-7.6,16.8-16.8S27.1,1,17.8,1z"/>
		</g>
	</g>
	<g>
		<defs>
			<path id="SVGID_1_" d="M18.9,15.6c0-0.6-0.5-1.1-1.1-1.1c-0.6,0-1.1,0.5-1.1,1.1c0,0.6,0.5,1.1,1.1,1.1
				C18.4,16.7,18.9,16.2,18.9,15.6z M14.5,15.6c0-1.8,1.5-3.3,3.3-3.3s3.3,1.5,3.3,3.3c0,1.8-1.5,3.3-3.3,3.3S14.5,17.5,14.5,15.6z
				 M17.1,25.9c0.3,0.3,0.7,0.6,0.7,0.6s0.5-0.3,0.7-0.6c0.8-0.7,1.7-1.5,2.5-2.5c2.1-2.5,3.4-5.2,3.4-7.8c0-3.6-3-6.6-6.6-6.6
				s-6.6,3-6.6,6.6c0,2.6,1.3,5.3,3.4,7.8C15.4,24.4,16.3,25.2,17.1,25.9z M22.7,24.9c-1.8,2.1-4,4-4.9,4c-0.9,0-3.1-1.9-4.9-4
				C10.5,22,9,18.8,9,15.6c0-4.9,3.9-8.8,8.8-8.8c4.9,0,8.8,3.9,8.8,8.8C26.6,18.8,25.2,22,22.7,24.9z"/>
		</defs>
		<linearGradient id="SVGID_2_" gradientUnits="userSpaceOnUse" x1="9.044" y1="17.8354" x2="26.6294" y2="17.8354">
			<stop  offset="0" style="stop-color:#63BD58"/>
			<stop  offset="0.6873" style="stop-color:#61D258"/>
		</linearGradient>
		<use xlink:href="#SVGID_1_"  style="overflow:visible;fill:url(#SVGID_2_);"/>
		<clipPath id="SVGID_3_">
			<use xlink:href="#SVGID_1_"  style="overflow:visible;"/>
		</clipPath>
		<g class="st2">
			<defs>
				<rect id="SVGID_4_" x="-644.7" y="-1907.9" width="1232.2" height="2406.3"/>
			</defs>
			<linearGradient id="SVGID_5_" gradientUnits="userSpaceOnUse" x1="-644.7263" y1="-704.7813" x2="587.5109" y2="-704.7813">
				<stop  offset="0" style="stop-color:#63BD58"/>
				<stop  offset="0.6873" style="stop-color:#61D258"/>
			</linearGradient>
			<use xlink:href="#SVGID_4_"  style="overflow:visible;fill:url(#SVGID_5_);"/>
			<clipPath id="SVGID_6_">
				<use xlink:href="#SVGID_4_"  style="overflow:visible;"/>
			</clipPath>
			<linearGradient id="SVGID_7_" gradientUnits="userSpaceOnUse" x1="4.7654" y1="17.8354" x2="30.908" y2="17.8354">
				<stop  offset="0" style="stop-color:#63BD58"/>
				<stop  offset="0.6873" style="stop-color:#61D258"/>
			</linearGradient>
			<rect x="4.8" y="2.6" class="st3" width="26.1" height="30.5"/>
		</g>
	</g>
</g>
</svg>
