<?xml version="1.0" encoding="utf-8"?>
<!-- Generator: Adobe Illustrator 22.1.0, SVG Export Plug-In . SVG Version: 6.00 Build 0)  -->
<svg version="1.1" id="Capa_1" xmlns="http://www.w3.org/2000/svg" xmlns:xlink="http://www.w3.org/1999/xlink" x="0px" y="0px"
	 viewBox="0 0 22.4 35.4" style="enable-background:new 0 0 22.4 35.4;" xml:space="preserve">
<style type="text/css">
	.st0{fill:#8DC63F;}
	.st1{fill:#FFFFFF;}
	.st2{fill:#62B02E;}
</style>
<g>
	<path class="st0" d="M22.3,10.8C22.1,4.8,17.2,0,11.2,0C5.1,0,0.1,5,0.1,11.1c0,0.3,0,0.6,0,0.8c0,0.9,0.1,1.9,0.4,2.8
		c0.5,1.9,1.3,3.8,2.3,5.5c2.8,5,5.5,10,8.3,15c0,0,0,0.1,0.1,0.1s0.1-0.1,0.1-0.1c2.8-5.1,5.5-10,8.3-15.1c0.8-1.4,1.5-2.9,2-4.5
		C22.2,14.1,22.4,12.5,22.3,10.8z"/>
	<circle class="st1" cx="11.2" cy="11.3" r="6.4"/>
	<path class="st2" d="M11.2,18.3c-3.8,0-7-3.1-7-7s3.1-7,7-7s7,3.1,7,7S15,18.3,11.2,18.3z M11.2,5.4c-3.3,0-5.9,2.7-5.9,5.9
		s2.7,5.9,5.9,5.9s5.9-2.7,5.9-5.9S14.5,5.4,11.2,5.4z"/>
	<path class="st0" d="M14.8,8.5L14.8,8.5c-0.8-0.1-1.5-0.3-2.2-0.4c-0.7-0.1-1.4-0.3-2.1-0.4c-0.4-0.1-0.5,0-0.6,0.3
		C9.8,8.4,9.7,8.8,9.5,9.3C9.3,9.7,9.2,10.2,9,10.6l-0.1,0.2c-0.1,0.2-0.1,0.3-0.2,0.5c-0.1,0.2,0,0.4,0.2,0.5c0.1,0,0.2,0,0.3,0
		c0.1,0,0.2-0.1,0.2-0.2c0,0,0-0.1,0-0.1c0,0,0-0.1,0-0.1c0.2-0.5,0.3-0.9,0.5-1.4c0.2-0.5,0.3-0.9,0.5-1.4c0-0.1,0-0.1,0.1-0.1
		c0.6,0.1,1.1,0.2,1.6,0.3C12.9,8.8,13.4,9,14,9.1c0.1,0,0.1,0,0.2,0c0,0,0.1,0,0.1,0c0,0,0,0,0,0l-0.1,0.3
		c-0.3,0.8-0.5,1.6-0.8,2.4c-0.2,0.4-0.4,0.9-0.7,1.5c-0.2,0.4-0.5,0.7-0.9,0.8c-0.4,0.1-0.7-0.1-0.8-0.4c0-0.2-0.1-0.4-0.1-0.5
		c0-0.1-0.1-0.2-0.2-0.3l-2.8-1.1c-0.1,0-0.2-0.1-0.3-0.1l-0.2-0.1l0,0.1c0,0.2,0,0.3,0,0.5c0,0.7,0.3,1.2,0.9,1.5
		C8.4,13.8,8.7,14,9,14.1c0.6,0.2,1.1,0.5,1.7,0.8c0.2,0.1,0.5,0.2,0.8,0.2c0.6,0,1.1-0.3,1.4-0.6c0.2-0.2,0.5-0.5,0.6-0.9
		c0.2-0.5,0.5-1.1,0.7-1.7c0.3-1,0.7-2,1-2.9l0,0c0,0,0,0,0,0c0,0,0-0.1,0-0.1C15.2,8.6,15,8.5,14.8,8.5z"/>
</g>
</svg>
