<?xml version="1.0" encoding="utf-8"?>
<!-- Generator: Adobe Illustrator 22.1.0, SVG Export Plug-In . SVG Version: 6.00 Build 0)  -->
<svg version="1.1" id="Capa_1" xmlns="http://www.w3.org/2000/svg" xmlns:xlink="http://www.w3.org/1999/xlink" x="0px" y="0px"
	 viewBox="0 0 22.4 35.4" style="enable-background:new 0 0 22.4 35.4;" xml:space="preserve">
<style type="text/css">
	.st0{fill:#845446;}
	.st1{fill:#FFFFFF;}
	.st2{fill:#734439;}
</style>
<g>
	<path class="st0" d="M22.3,10.8C22.1,4.8,17.2,0,11.2,0C5.1,0,0.1,5,0.1,11.1c0,0.3,0,0.6,0,0.8c0,0.9,0.1,1.9,0.4,2.8
		c0.5,1.9,1.3,3.8,2.3,5.5c2.8,5,5.5,10,8.3,15c0,0,0,0.1,0.1,0.1c0.1,0,0.1-0.1,0.1-0.1c2.8-5.1,5.5-10,8.3-15.1
		c0.8-1.4,1.5-2.9,2-4.5C22.2,14.1,22.4,12.5,22.3,10.8z"/>
	<circle class="st1" cx="11.2" cy="11.3" r="6.4"/>
	<path class="st2" d="M11.2,18.3c-3.8,0-7-3.1-7-7s3.1-7,7-7s7,3.1,7,7S15,18.3,11.2,18.3z M11.2,5.4c-3.3,0-5.9,2.7-5.9,5.9
		s2.7,5.9,5.9,5.9s5.9-2.7,5.9-5.9S14.5,5.4,11.2,5.4z"/>
</g>
<g id="wtOC0O.tif_1_">
	<g>
		<path class="st0" d="M8.1,13.8c0.2-0.2,0.3-0.4,0.4-0.6c1.3,1.6,3.4,1.5,4.6,0.6c1.2-0.9,1.6-2.5,1-3.8c-0.7-1.4-2.3-2.1-3.8-1.7
			C9,8.7,7.9,10,8,11.3c0.3,0,0.6,0,0.9,0c-0.4,0.6-0.9,1.2-1.3,1.9c-0.4-0.6-0.8-1.2-1.3-1.9c0.3,0,0.6,0,0.8,0
			c0-0.3,0.1-0.6,0.1-0.9c0.4-1.7,1.9-2.9,3.6-3c1.9-0.1,3.5,1,4.1,2.7c0.7,2.1-0.7,4.4-2.9,4.9C10.7,15.4,9.4,15,8.3,14
			C8.2,13.9,8.2,13.8,8.1,13.8z"/>
		<path class="st0" d="M11.4,13.2c0,0.2,0,0.3,0,0.5c-0.1,0-0.2,0-0.2,0c0-0.2,0-0.3,0-0.5c-0.4-0.1-0.8-0.1-1-0.5
			C10,12.5,10,12.3,9.9,12c0.3,0,0.5,0,0.7,0c0.1,0.3,0.1,0.6,0.5,0.6c0-0.3,0-0.7,0-1c0,0-0.1-0.1-0.1-0.1c-0.1,0-0.2-0.1-0.3-0.1
			c-0.5-0.2-0.7-0.6-0.7-1.1c0.1-0.5,0.4-0.8,0.9-0.9c0,0,0.1,0,0.1,0c0-0.1,0-0.2,0-0.3c0.1,0,0.1,0,0.2,0c0,0.1,0,0.2,0,0.3
			c0.3,0.1,0.6,0.1,0.8,0.4c0.1,0.2,0.2,0.4,0.3,0.7c-0.3,0-0.5,0-0.7,0c0,0-0.1-0.1-0.1-0.2c0-0.2-0.1-0.4-0.4-0.4
			c0,0.3,0,0.6,0,0.9c0,0,0.1,0.1,0.1,0.1c0.1,0.1,0.3,0.1,0.4,0.2c0.5,0.2,0.7,0.6,0.7,1.1c0,0.5-0.4,0.8-0.9,1
			C11.6,13.2,11.5,13.2,11.4,13.2z M11.4,11.7c0,0.3,0,0.6,0,1c0.3,0,0.4-0.2,0.4-0.4C11.9,11.9,11.7,11.7,11.4,11.7z M11.1,10.8
			c0-0.3,0-0.5,0-0.7c0,0,0-0.1,0-0.1c-0.3,0-0.4,0.2-0.4,0.4C10.7,10.6,10.8,10.8,11.1,10.8z"/>
	</g>
</g>
</svg>
