<?xml version="1.0" encoding="utf-8"?>
<!-- Generator: Adobe Illustrator 22.1.0, SVG Export Plug-In . SVG Version: 6.00 Build 0)  -->
<svg version="1.1" id="Capa_1" xmlns="http://www.w3.org/2000/svg" xmlns:xlink="http://www.w3.org/1999/xlink" x="0px" y="0px"
	 viewBox="0 0 35.7 35.7" style="enable-background:new 0 0 35.7 35.7;" xml:space="preserve">
<style type="text/css">
	.st0{fill:#FFFFFF;}
	.st1{fill:#E6E6E6;}
	.st2{clip-path:url(#SVGID_3_);}
	.st3{clip-path:url(#SVGID_6_);fill:url(#SVGID_7_);}
</style>
<g>
	<g>
		<g>
			<circle class="st0" cx="17.8" cy="17.8" r="17.3"/>
			<path class="st1" d="M17.8,35.7C8,35.7,0,27.7,0,17.8S8,0,17.8,0s17.8,8,17.8,17.8S27.7,35.7,17.8,35.7z M17.8,1
				C8.6,1,1,8.6,1,17.8s7.6,16.8,16.8,16.8s16.8-7.6,16.8-16.8S27.1,1,17.8,1z"/>
		</g>
	</g>
	<g>
		<defs>
			<path id="SVGID_1_" d="M18.3,18.7l5.1-5.1c0,0-1.4-1.4-1.4-1.4c0,0-3,3-5.1,5.1L18.3,18.7z M16.9,20.1l-1.4-1.4
				c-0.4,0.4-0.6,0.6-0.6,0.6l-0.4,1.8l1.8-0.4L16.9,20.1z M25.4,8.9l1.4,1.4c0.7,0.7,0.7,2,0,2.7l-9.5,9.5l-3.6,0.9
				c-1,0.3-1.6-0.4-1.4-1.4l0.9-3.6l9.5-9.5C23.4,8.1,24.6,8.1,25.4,8.9z M8.3,26.4c0-0.5,0.4-1,1-1h17.2c0.5,0,1,0.4,1,1
				c0,0.5-0.4,1-1,1H9.2C8.7,27.3,8.3,26.9,8.3,26.4z"/>
		</defs>
		<linearGradient id="SVGID_2_" gradientUnits="userSpaceOnUse" x1="8.2665" y1="17.8354" x2="27.4069" y2="17.8354">
			<stop  offset="0" style="stop-color:#63BD58"/>
			<stop  offset="0.6873" style="stop-color:#61D258"/>
		</linearGradient>
		<use xlink:href="#SVGID_1_"  style="overflow:visible;fill-rule:evenodd;clip-rule:evenodd;fill:url(#SVGID_2_);"/>
		<clipPath id="SVGID_3_">
			<use xlink:href="#SVGID_1_"  style="overflow:visible;"/>
		</clipPath>
		<g class="st2">
			<defs>
				<rect id="SVGID_4_" x="-191.6" y="-1613.1" width="1073" height="2095.2"/>
			</defs>
			<linearGradient id="SVGID_5_" gradientUnits="userSpaceOnUse" x1="-191.587" y1="-565.5004" x2="881.3706" y2="-565.5004">
				<stop  offset="0" style="stop-color:#63BD58"/>
				<stop  offset="0.6873" style="stop-color:#61D258"/>
			</linearGradient>
			<use xlink:href="#SVGID_4_"  style="overflow:visible;fill:url(#SVGID_5_);"/>
			<clipPath id="SVGID_6_">
				<use xlink:href="#SVGID_4_"  style="overflow:visible;"/>
			</clipPath>
			<linearGradient id="SVGID_7_" gradientUnits="userSpaceOnUse" x1="4.5409" y1="17.8354" x2="31.1324" y2="17.8354">
				<stop  offset="0" style="stop-color:#63BD58"/>
				<stop  offset="0.6873" style="stop-color:#61D258"/>
			</linearGradient>
			<rect x="4.5" y="4.6" class="st3" width="26.6" height="26.5"/>
		</g>
	</g>
</g>
</svg>
