<?xml version="1.0" encoding="utf-8"?>
<!-- Generator: Adobe Illustrator 22.1.0, SVG Export Plug-In . SVG Version: 6.00 Build 0)  -->
<svg version="1.1" id="Capa_1" xmlns="http://www.w3.org/2000/svg" xmlns:xlink="http://www.w3.org/1999/xlink" x="0px" y="0px"
	 viewBox="0 0 35.7 35.7" style="enable-background:new 0 0 35.7 35.7;" xml:space="preserve">
<style type="text/css">
	.st0{fill:#FFFFFF;}
	.st1{fill:#E6E6E6;}
	.st2{fill:url(#SVGID_1_);}
</style>
<g>
	<g>
		<g>
			<circle class="st0" cx="17.8" cy="17.8" r="17.3"/>
			<path class="st1" d="M17.8,35.7C8,35.7,0,27.7,0,17.8S8,0,17.8,0s17.8,8,17.8,17.8S27.7,35.7,17.8,35.7z M17.8,1
				C8.6,1,1,8.6,1,17.8s7.6,16.8,16.8,16.8s16.8-7.6,16.8-16.8S27.1,1,17.8,1z"/>
		</g>
	</g>
	<g>
		<linearGradient id="SVGID_1_" gradientUnits="userSpaceOnUse" x1="5.7278" y1="17.8354" x2="29.9455" y2="17.8354">
			<stop  offset="0" style="stop-color:#63BD58"/>
			<stop  offset="0.6873" style="stop-color:#61D258"/>
		</linearGradient>
		<path class="st2" d="M29.3,22.8l-1.2-0.6c-0.4-0.2-0.9-0.5-1.3-0.7c-0.1,0-0.3-0.1-0.5,0c-0.3,0.2-0.7,0.3-1,0.5l-0.8,0.4l2.6,1.4
			l-1.8,0.9c-2.4,1.2-4.8,2.4-7.3,3.5c-0.1,0-0.1,0-0.2,0c-2.4-1.2-4.8-2.3-7.1-3.5l-1.9-0.9l0.9-0.5c0.8-0.4,1.6-0.9,2.4-1.3
			c0.1-0.1,0.2-0.1,0.4,0c0.8,0.4,1.6,0.8,2.4,1.1c0.7,0.3,1.4,0.7,2.1,1c0.6,0.3,1.1,0.3,1.7,0c3.4-1.7,6.9-3.3,10.3-5
			c0.3-0.2,0.7-0.4,0.8-1c0-0.7-0.5-1-0.7-1.1c-0.2-0.1-0.4-0.2-0.6-0.3c-0.5-0.3-1-0.5-1.5-0.8c-0.4-0.2-0.8-0.4-1.4,0
			c-0.2,0.1-0.3,0.2-0.5,0.3c-0.1,0-0.2,0.1-0.3,0.1l-0.4,0.2l2.7,1.5l-2.2,1.1c-2.3,1.1-4.5,2.2-6.8,3.3c-0.1,0.1-0.2,0.1-0.4,0
			c-2.2-1.1-4.5-2.2-6.7-3.3l-2.3-1.1l0.8-0.4c0.9-0.5,1.7-0.9,2.6-1.4c0.1-0.1,0.2-0.1,0.3,0c0.8,0.4,1.7,0.8,2.5,1.2
			c0.7,0.3,1.4,0.7,2,1c0.5,0.3,1.1,0.3,1.6,0c3.5-1.7,6.9-3.4,10.4-5c0.5-0.2,0.7-0.6,0.7-1c0-0.4-0.2-0.8-0.7-1
			C25.5,9.5,22,7.7,18.6,5.8c-0.6-0.3-1.2-0.3-1.7,0c-1.9,1-3.7,2-5.6,3l-2.8,1.5c-0.7,0.4-1.3,0.7-2,1.1c-0.3,0.2-0.6,0.5-0.6,0.8
			c-0.1,0.3,0,0.5,0.1,0.8c0.2,0.3,0.5,0.4,0.6,0.5c0.9,0.5,1.9,0.9,2.8,1.4l0.8,0.4l-3.6,1.9c-0.5,0.2-0.7,0.6-0.7,1
			c0,0.5,0.2,0.8,0.7,1c0.3,0.1,0.5,0.3,0.8,0.4l2.8,1.4l-0.4,0.2c-1,0.6-2.1,1.1-3.1,1.7C6.2,23,6,23.4,6,23.8c0,0.4,0.2,0.8,0.7,1
			l10.5,5.1c0.3,0.1,0.5,0.2,0.8,0.2c0.3,0,0.5-0.1,0.8-0.2l10.5-5.1c0.5-0.2,0.7-0.6,0.7-1C30,23.4,29.7,23,29.3,22.8z M8.5,12.3
			l1.4-0.8c2.5-1.4,5.1-2.7,7.6-4.1c0.1-0.1,0.2-0.1,0.2,0c2.3,1.2,4.5,2.4,6.8,3.6l2.3,1.2l-2.4,1.2c-2.2,1.1-4.4,2.2-6.7,3.2
			c-0.1,0-0.1,0-0.2,0c-2.3-1.1-4.5-2.2-6.8-3.3L8.5,12.3z"/>
	</g>
</g>
</svg>
